SplineFontDB: 3.2
FontName: ZiraCode
FullName: Zira Code
FamilyName: Zira Code
Weight: Regular
Copyright: Copyright 2014-2020 The Fira Code Project Authors (https://github.com/tonsky/FiraCode)
Version: 5.002
ItalicAngle: 0
UnderlinePosition: -100
UnderlineWidth: 50
Ascent: 1560
Descent: 390
InvalidEm: 0
sfntRevision: 0x00050083
woffMajor: 0
woffMinor: 0
LayerCount: 2
Layer: 0 1 "Back" 1
Layer: 1 1 "Fore" 0
XUID: [1021 955 -1296738581 6621720]
StyleMap: 0x0040
FSType: 0
OS2Version: 4
OS2_WeightWidthSlopeOnly: 0
OS2_UseTypoMetrics: 1
CreationTime: 1591966968
ModificationTime: 1594015178
PfmFamily: 17
TTFWeight: 400
TTFWidth: 5
LineGap: 0
VLineGap: 0
Panose: 2 11 8 9 5 0 0 2 0 4
OS2TypoAscent: 1800
OS2TypoAOffset: 0
OS2TypoDescent: -600
OS2TypoDOffset: 0
OS2TypoLinegap: 0
OS2WinAscent: 1800
OS2WinAOffset: 0
OS2WinDescent: 600
OS2WinDOffset: 0
HheadAscent: 1800
HheadAOffset: 0
HheadDescent: -600
HheadDOffset: 0
OS2SubXSize: 1267
OS2SubYSize: 1170
OS2SubXOff: 0
OS2SubYOff: 146
OS2SupXSize: 1267
OS2SupYSize: 1170
OS2SupXOff: 0
OS2SupYOff: 682
OS2StrikeYSize: 50
OS2StrikeYPos: 631
OS2CapHeight: 1377
OS2XHeight: 1053
OS2Vendor: 'CTDB'
OS2CodePages: 6000009f.00000000
OS2UnicodeRanges: 40000287.02003901.02000000.00000000
Lookup: 1 0 0 "'aalt' Access All Alternates lookup 0" { "'aalt' Access All Alternates lookup 0 subtable"  } ['aalt' ('DFLT' <'dflt' > 'cyrl' <'dflt' > 'grek' <'dflt' > 'latn' <'AFK ' 'AZE ' 'CAT ' 'CRT ' 'KAZ ' 'MOL ' 'PLK ' 'ROM ' 'TAT ' 'TRK ' 'dflt' > 'zinh' <'dflt' > 'zyyy' <'dflt' > ) ]
Lookup: 3 0 0 "'aalt' Access All Alternates lookup 1" { "'aalt' Access All Alternates lookup 1 subtable"  } ['aalt' ('DFLT' <'dflt' > 'cyrl' <'dflt' > 'grek' <'dflt' > 'latn' <'AFK ' 'AZE ' 'CAT ' 'CRT ' 'KAZ ' 'MOL ' 'PLK ' 'ROM ' 'TAT ' 'TRK ' 'dflt' > 'zinh' <'dflt' > 'zyyy' <'dflt' > ) ]

StartChar: .notdef
Encoding: 1114112 -1 0
Width: 1200
Flags: W
LayerCount: 2
Fore
SplineSet
80 -104 m 1,0,-1
 80 1478 l 1,1,-1
 1120 1478 l 1,2,-1
 1120 -104 l 1,3,-1
 80 -104 l 1,0,-1
190 0 m 1,4,-1
 1012 0 l 1,5,-1
 1012 1374 l 1,6,-1
 190 1374 l 1,7,-1
 190 0 l 1,4,-1
614 516 m 2,8,9
 614 495 614 495 598.5 481.5 c 128,-1,10
 583 468 583 468 564 468 c 0,11,12
 544 468 544 468 529 481 c 128,-1,13
 514 494 514 494 514 516 c 2,14,-1
 514 684 l 1,15,16
 586 688 586 688 625 704 c 128,-1,17
 664 720 664 720 680 751.5 c 128,-1,18
 696 783 696 783 696 838 c 0,19,20
 696 904 696 904 670 940 c 128,-1,21
 644 976 644 976 574 976 c 0,22,23
 544 976 544 976 521.5 971 c 128,-1,24
 499 966 499 966 470 954 c 0,25,26
 455 948 455 948 444 948 c 0,27,28
 422 948 422 948 409 961 c 128,-1,29
 396 974 396 974 396 994 c 0,30,31
 396 1031 396 1031 455 1051.5 c 128,-1,32
 514 1072 514 1072 582 1072 c 0,33,34
 702 1072 702 1072 753 1008 c 128,-1,35
 804 944 804 944 804 842 c 0,36,37
 804 736 804 736 758.5 678.5 c 128,-1,38
 713 621 713 621 614 606 c 1,39,-1
 614 516 l 2,8,9
514 390 m 128,-1,41
 534 410 534 410 564 410 c 256,42,43
 594 410 594 410 614 390 c 128,-1,44
 634 370 634 370 634 340 c 0,45,46
 634 308 634 308 614 287 c 128,-1,47
 594 266 594 266 564 266 c 256,48,49
 534 266 534 266 514 287 c 128,-1,50
 494 308 494 308 494 340 c 0,51,40
 494 370 494 370 514 390 c 128,-1,41
EndSplineSet
Validated: 1
EndChar

StartChar: A
Encoding: 65 65 4
Width: 1200
GlyphClass: 2
Flags: W
AnchorPoint: "Anchor-7" 600 1377 basechar 0
AnchorPoint: "Anchor-6" 596 0 basechar 0
LayerCount: 2
Fore
SplineSet
977 0 m 1,0,-1
 867 351 l 1,1,-1
 322 351 l 1,2,-1
 212 0 l 1,3,-1
 41 0 l 1,4,-1
 489 1377 l 1,5,-1
 711 1377 l 1,6,-1
 1159 0 l 1,7,-1
 977 0 l 1,0,-1
596 1231 m 1,8,-1
 367 495 l 1,9,-1
 822 495 l 1,10,-1
 596 1231 l 1,8,-1
EndSplineSet
Validated: 1
Substitution2: "Single Substitution lookup 143 subtable" ordfeminine
Substitution2: "'aalt' Access All Alternates lookup 0 subtable" ordfeminine
EndChar

StartChar: Aogonek
Encoding: 260 260 11
Width: 1200
GlyphClass: 2
Flags: W
AnchorPoint: "Anchor-7" 600 1377 basechar 0
AnchorPoint: "Anchor-6" 596 0 basechar 0
LayerCount: 2
Fore
SplineSet
1077 0 m 1,0,1
 978 -44 978 -44 923.5 -82.5 c 128,-1,2
 869 -121 869 -121 849 -155.5 c 128,-1,3
 829 -190 829 -190 829 -229 c 0,4,5
 829 -276 829 -276 855 -300.5 c 128,-1,6
 881 -325 881 -325 941 -325 c 0,7,8
 995 -325 995 -325 1065 -311 c 1,9,-1
 1047 -445 l 1,10,11
 1011 -452 1011 -452 984 -455.5 c 128,-1,12
 957 -459 957 -459 921 -459 c 0,13,14
 847 -459 847 -459 791.5 -433 c 128,-1,15
 736 -407 736 -407 706.5 -362.5 c 128,-1,16
 677 -318 677 -318 677 -262 c 0,17,18
 677 -167 677 -167 747 -94 c 128,-1,19
 817 -21 817 -21 966 34 c 1,20,-1
 867 351 l 1,21,-1
 322 351 l 1,22,-1
 212 0 l 1,23,-1
 41 0 l 1,24,-1
 489 1377 l 1,25,-1
 711 1377 l 1,26,-1
 1159 0 l 1,27,-1
 1077 0 l 1,0,1
596 1231 m 1,28,-1
 367 495 l 1,29,-1
 822 495 l 1,30,-1
 596 1231 l 1,28,-1
EndSplineSet
Validated: 1
EndChar

StartChar: AE
Encoding: 198 198 14
Width: 1200
GlyphClass: 2
Flags: W
AnchorPoint: "Anchor-7" 723 1377 basechar 0
AnchorPoint: "Anchor-6" 600 0 basechar 0
LayerCount: 2
Fore
SplineSet
732 0 m 1,0,-1
 659 351 l 1,1,-1
 252 351 l 1,2,-1
 153 0 l 1,3,-1
 -24 0 l 1,4,-1
 380 1377 l 1,5,-1
 1132 1377 l 1,6,-1
 1111 1236 l 1,7,-1
 640 1236 l 1,8,-1
 742 769 l 1,9,-1
 1114 769 l 1,10,-1
 1114 628 l 1,11,-1
 769 628 l 1,12,-1
 872 141 l 1,13,-1
 1215 141 l 1,14,-1
 1215 0 l 1,15,-1
 732 0 l 1,0,-1
481 1240 m 1,16,-1
 297 497 l 1,17,-1
 628 497 l 1,18,-1
 481 1240 l 1,16,-1
EndSplineSet
Validated: 1
EndChar

StartChar: B
Encoding: 66 66 16
Width: 1200
GlyphClass: 2
Flags: W
AnchorPoint: "Anchor-7" 600 1377 basechar 0
AnchorPoint: "Anchor-6" 600 0 basechar 0
LayerCount: 2
Fore
SplineSet
1006 163.5 m 128,-1,1
 933 76 933 76 817 38 c 128,-1,2
 701 0 701 0 563 0 c 2,3,-1
 193 0 l 1,4,-1
 193 1377 l 1,5,-1
 532 1377 l 2,6,7
 741 1377 741 1377 880 1296.5 c 128,-1,8
 1019 1216 1019 1216 1019 1030 c 0,9,10
 1019 906 1019 906 946 830 c 128,-1,11
 873 754 873 754 763 729 c 1,12,13
 1079 675 1079 675 1079 393 c 0,14,0
 1079 251 1079 251 1006 163.5 c 128,-1,1
571 1237 m 2,16,-1
 366 1237 l 1,17,-1
 366 791 l 1,18,-1
 588 791 l 2,19,20
 713 791 713 791 777 846.5 c 128,-1,21
 841 902 841 902 841 1021 c 0,22,15
 841 1237 841 1237 571 1237 c 2,16,-1
816.5 590 m 128,-1,24
 737 648 737 648 601 648 c 2,25,-1
 366 648 l 1,26,-1
 366 143 l 1,27,-1
 593 143 l 2,28,29
 720 143 720 143 808 196 c 128,-1,30
 896 249 896 249 896 387 c 0,31,23
 896 532 896 532 816.5 590 c 128,-1,24
EndSplineSet
Validated: 1
EndChar

StartChar: C
Encoding: 67 67 17
Width: 1200
GlyphClass: 2
Flags: W
AnchorPoint: "Anchor-7" 731 1377 basechar 0
AnchorPoint: "Anchor-6" 699 0 basechar 0
LayerCount: 2
Fore
SplineSet
937.5 1366.5 m 128,-1,1
 1029 1334 1029 1334 1115 1265 c 1,2,-1
 1018 1152 l 1,3,4
 896 1254 896 1254 729 1254 c 0,5,6
 609 1254 609 1254 514.5 1198 c 128,-1,7
 420 1142 420 1142 363.5 1016 c 128,-1,8
 307 890 307 890 307 689 c 0,9,10
 307 492 307 492 361 366 c 128,-1,11
 415 240 415 240 508.5 183 c 128,-1,12
 602 126 602 126 725 126 c 0,13,14
 830 126 830 126 905 157 c 128,-1,15
 980 188 980 188 1045 241 c 1,16,-1
 1135 127 l 1,17,18
 1065 59 1065 59 963 18 c 128,-1,19
 861 -23 861 -23 723 -23 c 0,20,21
 553 -23 553 -23 417.5 60 c 128,-1,22
 282 143 282 143 204.5 303.5 c 128,-1,23
 127 464 127 464 127 689 c 0,24,25
 127 913 127 913 206 1073.5 c 128,-1,26
 285 1234 285 1234 419 1316.5 c 128,-1,27
 553 1399 553 1399 716 1399 c 0,28,0
 846 1399 846 1399 937.5 1366.5 c 128,-1,1
EndSplineSet
Validated: 1
EndChar

StartChar: Ccedilla
Encoding: 199 199 20
Width: 1200
GlyphClass: 2
Flags: W
AnchorPoint: "Anchor-7" 731 1377 basechar 0
AnchorPoint: "Anchor-6" 699 0 basechar 0
LayerCount: 2
Fore
SplineSet
739 -114 m 1,0,1
 832 -122 832 -122 878 -169 c 128,-1,2
 924 -216 924 -216 924 -281 c 0,3,4
 924 -344 924 -344 891 -388 c 128,-1,5
 858 -432 858 -432 802 -454.5 c 128,-1,6
 746 -477 746 -477 680 -477 c 0,7,8
 621 -477 621 -477 566 -464 c 128,-1,9
 511 -451 511 -451 471 -428 c 1,10,-1
 525 -331 l 1,11,12
 553 -346 553 -346 590 -354.5 c 128,-1,13
 627 -363 627 -363 660 -363 c 0,14,15
 780 -363 780 -363 780 -281 c 0,16,17
 780 -230 780 -230 737.5 -212.5 c 128,-1,18
 695 -195 695 -195 606 -195 c 1,19,-1
 620 -15 l 1,20,21
 475 9 475 9 364 98 c 128,-1,22
 253 187 253 187 190 337 c 128,-1,23
 127 487 127 487 127 689 c 0,24,25
 127 913 127 913 206 1073.5 c 128,-1,26
 285 1234 285 1234 419 1316.5 c 128,-1,27
 553 1399 553 1399 716 1399 c 0,28,29
 846 1399 846 1399 937.5 1366.5 c 128,-1,30
 1029 1334 1029 1334 1115 1265 c 1,31,-1
 1018 1152 l 1,32,33
 896 1254 896 1254 729 1254 c 0,34,35
 609 1254 609 1254 514.5 1198 c 128,-1,36
 420 1142 420 1142 363.5 1016 c 128,-1,37
 307 890 307 890 307 689 c 0,38,39
 307 492 307 492 361 366 c 128,-1,40
 415 240 415 240 508.5 183 c 128,-1,41
 602 126 602 126 725 126 c 0,42,43
 830 126 830 126 905 157 c 128,-1,44
 980 188 980 188 1045 241 c 1,45,-1
 1135 127 l 1,46,47
 1067 61 1067 61 969 20.5 c 128,-1,48
 871 -20 871 -20 739 -23 c 1,49,-1
 739 -114 l 1,0,1
EndSplineSet
Validated: 1
EndChar

StartChar: D
Encoding: 68 68 23
Width: 1200
GlyphClass: 2
Flags: W
AnchorPoint: "Anchor-7" 567 1377 basechar 0
AnchorPoint: "Anchor-6" 600 0 basechar 0
LayerCount: 2
Fore
SplineSet
925.5 152 m 128,-1,1
 746 0 746 0 483 0 c 2,2,-1
 167 0 l 1,3,-1
 167 1377 l 1,4,-1
 461 1377 l 2,5,6
 645 1377 645 1377 786 1321.5 c 128,-1,7
 927 1266 927 1266 1016 1115 c 128,-1,8
 1105 964 1105 964 1105 695 c 0,9,0
 1105 304 1105 304 925.5 152 c 128,-1,1
859 1038 m 128,-1,11
 798 1157 798 1157 707.5 1196 c 128,-1,12
 617 1235 617 1235 502 1235 c 2,13,-1
 340 1235 l 1,14,-1
 340 139 l 1,15,-1
 504 139 l 2,16,17
 683 139 683 139 801.5 261.5 c 128,-1,18
 920 384 920 384 920 695 c 0,19,10
 920 919 920 919 859 1038 c 128,-1,11
EndSplineSet
Validated: 1
EndChar

StartChar: Eth
Encoding: 208 208 24
Width: 1200
GlyphClass: 2
Flags: W
AnchorPoint: "Anchor-7" 586 1377 basechar 0
AnchorPoint: "Anchor-6" 619 0 basechar 0
LayerCount: 2
Fore
SplineSet
480 1377 m 2,0,1
 664 1377 664 1377 805 1321.5 c 128,-1,2
 946 1266 946 1266 1035 1115 c 128,-1,3
 1124 964 1124 964 1124 695 c 0,4,5
 1124 304 1124 304 944.5 152 c 128,-1,6
 765 0 765 0 502 0 c 2,7,-1
 186 0 l 1,8,-1
 186 639 l 1,9,-1
 41 639 l 1,10,-1
 41 773 l 1,11,-1
 186 773 l 1,12,-1
 186 1377 l 1,13,-1
 480 1377 l 2,0,1
523 139 m 2,14,15
 702 139 702 139 820.5 261.5 c 128,-1,16
 939 384 939 384 939 695 c 0,17,18
 939 919 939 919 878 1038 c 128,-1,19
 817 1157 817 1157 726.5 1196 c 128,-1,20
 636 1235 636 1235 521 1235 c 2,21,-1
 359 1235 l 1,22,-1
 359 773 l 1,23,-1
 675 773 l 1,24,-1
 675 639 l 1,25,-1
 359 639 l 1,26,-1
 359 139 l 1,27,-1
 523 139 l 2,14,15
EndSplineSet
Validated: 1
EndChar

StartChar: E
Encoding: 69 69 27
Width: 1200
GlyphClass: 2
Flags: W
AnchorPoint: "Anchor-7" 642 1377 basechar 0
AnchorPoint: "Anchor-6" 651 0 basechar 0
LayerCount: 2
Fore
SplineSet
1013 1235 m 1,0,-1
 425 1235 l 1,1,-1
 425 771 l 1,2,-1
 935 771 l 1,3,-1
 935 628 l 1,4,-1
 425 628 l 1,5,-1
 425 139 l 1,6,-1
 1051 139 l 1,7,-1
 1051 0 l 1,8,-1
 251 0 l 1,9,-1
 251 1377 l 1,10,-1
 1033 1377 l 1,11,-1
 1013 1235 l 1,0,-1
EndSplineSet
Validated: 1
EndChar

StartChar: Eogonek
Encoding: 280 280 36
Width: 1200
GlyphClass: 2
Flags: W
AnchorPoint: "Anchor-7" 642 1377 basechar 0
AnchorPoint: "Anchor-6" 651 0 basechar 0
LayerCount: 2
Fore
SplineSet
425 139 m 1,0,-1
 1051 139 l 1,1,-1
 1051 0 l 1,2,-1
 936 0 l 1,3,4
 837 -44 837 -44 782.5 -82.5 c 128,-1,5
 728 -121 728 -121 708 -155.5 c 128,-1,6
 688 -190 688 -190 688 -229 c 0,7,8
 688 -276 688 -276 714 -300.5 c 128,-1,9
 740 -325 740 -325 800 -325 c 0,10,11
 854 -325 854 -325 924 -311 c 1,12,-1
 906 -445 l 1,13,14
 870 -452 870 -452 843 -455.5 c 128,-1,15
 816 -459 816 -459 780 -459 c 0,16,17
 706 -459 706 -459 650.5 -433 c 128,-1,18
 595 -407 595 -407 565.5 -362.5 c 128,-1,19
 536 -318 536 -318 536 -262 c 0,20,21
 536 -181 536 -181 587 -116 c 128,-1,22
 638 -51 638 -51 745 0 c 1,23,-1
 251 0 l 1,24,-1
 251 1377 l 1,25,-1
 1033 1377 l 1,26,-1
 1013 1235 l 1,27,-1
 425 1235 l 1,28,-1
 425 771 l 1,29,-1
 935 771 l 1,30,-1
 935 628 l 1,31,-1
 425 628 l 1,32,-1
 425 139 l 1,0,-1
EndSplineSet
Validated: 1
EndChar

StartChar: F
Encoding: 70 70 37
Width: 1200
GlyphClass: 2
Flags: W
AnchorPoint: "Anchor-7" 600 1377 basechar 0
AnchorPoint: "Anchor-6" 600 0 basechar 0
LayerCount: 2
Fore
SplineSet
1067 1235 m 1,0,-1
 449 1235 l 1,1,-1
 449 753 l 1,2,-1
 989 753 l 1,3,-1
 989 613 l 1,4,-1
 449 613 l 1,5,-1
 449 0 l 1,6,-1
 277 0 l 1,7,-1
 277 1377 l 1,8,-1
 1088 1377 l 1,9,-1
 1067 1235 l 1,0,-1
EndSplineSet
Validated: 1
EndChar

StartChar: G
Encoding: 71 71 38
Width: 1200
GlyphClass: 2
Flags: W
AnchorPoint: "Anchor-7" 660 1377 basechar 0
AnchorPoint: "Anchor-6" 661 0 basechar 0
LayerCount: 2
Fore
SplineSet
342 56.5 m 128,-1,1
 222 136 222 136 156.5 295.5 c 128,-1,2
 91 455 91 455 91 689 c 0,3,4
 91 916 91 916 171 1076.5 c 128,-1,5
 251 1237 251 1237 382.5 1318 c 128,-1,6
 514 1399 514 1399 667 1399 c 0,7,8
 796 1399 796 1399 886 1362.5 c 128,-1,9
 976 1326 976 1326 1061 1248 c 1,10,-1
 956 1139 l 1,11,12
 893 1198 893 1198 823 1226 c 128,-1,13
 753 1254 753 1254 668 1254 c 0,14,15
 561 1254 561 1254 473 1198.5 c 128,-1,16
 385 1143 385 1143 331 1017 c 128,-1,17
 277 891 277 891 277 689 c 0,18,19
 277 394 277 394 368 258.5 c 128,-1,20
 459 123 459 123 643 123 c 0,21,22
 782 123 782 123 905 189 c 1,23,-1
 905 609 l 1,24,-1
 634 609 l 1,25,-1
 613 753 l 1,26,-1
 1077 753 l 1,27,-1
 1077 97 l 1,28,29
 971 39 971 39 866.5 8 c 128,-1,30
 762 -23 762 -23 627 -23 c 0,31,0
 462 -23 462 -23 342 56.5 c 128,-1,1
EndSplineSet
Validated: 1
EndChar

StartChar: H
Encoding: 72 72 43
Width: 1200
GlyphClass: 2
Flags: W
AnchorPoint: "Anchor-7" 600 1377 basechar 0
AnchorPoint: "Anchor-6" 600 0 basechar 0
LayerCount: 2
Fore
SplineSet
1033 0 m 1,0,-1
 860 0 l 1,1,-1
 860 653 l 1,2,-1
 340 653 l 1,3,-1
 340 0 l 1,4,-1
 167 0 l 1,5,-1
 167 1377 l 1,6,-1
 340 1377 l 1,7,-1
 340 795 l 1,8,-1
 860 795 l 1,9,-1
 860 1377 l 1,10,-1
 1033 1377 l 1,11,-1
 1033 0 l 1,0,-1
EndSplineSet
Validated: 1
EndChar

StartChar: Hbar
Encoding: 294 294 44
Width: 1200
Flags: W
LayerCount: 2
Fore
SplineSet
1035 1151 m 1,0,-1
 1196 1151 l 1,1,-1
 1196 1018 l 1,2,-1
 1035 1018 l 1,3,-1
 1035 0 l 1,4,-1
 861 0 l 1,5,-1
 861 653 l 1,6,-1
 339 653 l 1,7,-1
 339 0 l 1,8,-1
 165 0 l 1,9,-1
 165 1018 l 1,10,-1
 4 1018 l 1,11,-1
 4 1151 l 1,12,-1
 165 1151 l 1,13,-1
 165 1377 l 1,14,-1
 339 1377 l 1,15,-1
 339 1151 l 1,16,-1
 861 1151 l 1,17,-1
 861 1377 l 1,18,-1
 1035 1377 l 1,19,-1
 1035 1151 l 1,0,-1
339 797 m 1,20,-1
 861 797 l 1,21,-1
 861 1018 l 1,22,-1
 339 1018 l 1,23,-1
 339 797 l 1,20,-1
EndSplineSet
Validated: 1
EndChar

StartChar: I
Encoding: 73 73 46
Width: 1200
GlyphClass: 2
Flags: W
AnchorPoint: "Anchor-7" 600 1377 basechar 0
AnchorPoint: "Anchor-6" 600 0 basechar 0
LayerCount: 2
Fore
SplineSet
206 1377 m 1,0,-1
 994 1377 l 1,1,-1
 994 1238 l 1,2,-1
 688 1238 l 1,3,-1
 688 139 l 1,4,-1
 994 139 l 1,5,-1
 994 0 l 1,6,-1
 206 0 l 1,7,-1
 206 139 l 1,8,-1
 512 139 l 1,9,-1
 512 1238 l 1,10,-1
 206 1238 l 1,11,-1
 206 1377 l 1,0,-1
EndSplineSet
Validated: 1
EndChar

StartChar: IJ
Encoding: 306 306 47
Width: 1200
Flags: W
LayerCount: 2
Fore
SplineSet
389 -142 m 1,0,1
 586 -123 586 -123 695.5 -56 c 128,-1,2
 805 11 805 11 847.5 119 c 128,-1,3
 890 227 890 227 890 387 c 2,4,-1
 890 1233 l 1,5,-1
 401 1233 l 1,6,-1
 401 143 l 1,7,-1
 561 143 l 1,8,-1
 561 0 l 1,9,-1
 23 0 l 1,10,-1
 23 143 l 1,11,-1
 223 143 l 1,12,-1
 223 1233 l 1,13,-1
 23 1233 l 1,14,-1
 23 1377 l 1,15,-1
 1065 1377 l 1,16,-1
 1065 376 l 2,17,18
 1065 108 1065 108 920.5 -65.5 c 128,-1,19
 776 -239 776 -239 409 -272 c 1,20,-1
 389 -142 l 1,0,1
EndSplineSet
Validated: 1
EndChar

StartChar: Iogonek
Encoding: 302 302 55
Width: 1200
GlyphClass: 2
Flags: W
AnchorPoint: "Anchor-7" 600 1377 basechar 0
AnchorPoint: "Anchor-6" 600 0 basechar 0
LayerCount: 2
Fore
SplineSet
994 1238 m 1,0,-1
 688 1238 l 1,1,-1
 688 139 l 1,2,-1
 994 139 l 1,3,-1
 994 0 l 1,4,-1
 688 0 l 1,5,6
 589 -44 589 -44 534.5 -82.5 c 128,-1,7
 480 -121 480 -121 460 -155.5 c 128,-1,8
 440 -190 440 -190 440 -229 c 0,9,10
 440 -276 440 -276 466 -300.5 c 128,-1,11
 492 -325 492 -325 552 -325 c 0,12,13
 606 -325 606 -325 676 -311 c 1,14,-1
 658 -445 l 1,15,16
 622 -452 622 -452 595 -455.5 c 128,-1,17
 568 -459 568 -459 532 -459 c 0,18,19
 458 -459 458 -459 402.5 -433 c 128,-1,20
 347 -407 347 -407 317.5 -362.5 c 128,-1,21
 288 -318 288 -318 288 -262 c 0,22,23
 288 -181 288 -181 339 -116 c 128,-1,24
 390 -51 390 -51 497 0 c 1,25,-1
 206 0 l 1,26,-1
 206 139 l 1,27,-1
 512 139 l 1,28,-1
 512 1238 l 1,29,-1
 206 1238 l 1,30,-1
 206 1377 l 1,31,-1
 994 1377 l 1,32,-1
 994 1238 l 1,0,-1
EndSplineSet
Validated: 1
EndChar

StartChar: J
Encoding: 74 74 57
Width: 1200
GlyphClass: 2
Flags: W
AnchorPoint: "Anchor-7" 699 1377 basechar 0
AnchorPoint: "Anchor-6" 600 0 basechar 0
LayerCount: 2
Fore
SplineSet
993 457 m 2,0,1
 993 330 993 330 948.5 222 c 128,-1,2
 904 114 904 114 799 45.5 c 128,-1,3
 694 -23 694 -23 523 -23 c 0,4,5
 420 -23 420 -23 323 9 c 128,-1,6
 226 41 226 41 145 102 c 1,7,-1
 222 217 l 1,8,9
 305 164 305 164 378.5 143 c 128,-1,10
 452 122 452 122 521 122 c 0,11,12
 663 122 663 122 741.5 213.5 c 128,-1,13
 820 305 820 305 820 467 c 2,14,-1
 820 1235 l 1,15,-1
 412 1235 l 1,16,-1
 412 1377 l 1,17,-1
 993 1377 l 1,18,-1
 993 457 l 2,0,1
EndSplineSet
Validated: 1
EndChar

StartChar: K
Encoding: 75 75 59
Width: 1200
GlyphClass: 2
Flags: W
AnchorPoint: "Anchor-7" 653 1377 basechar 0
AnchorPoint: "Anchor-6" 645 0 basechar 0
LayerCount: 2
Fore
SplineSet
383 1377 m 1,0,-1
 383 0 l 1,1,-1
 210 0 l 1,2,-1
 210 1377 l 1,3,-1
 383 1377 l 1,0,-1
957 0 m 1,4,-1
 393 735 l 1,5,-1
 935 1377 l 1,6,-1
 1135 1377 l 1,7,-1
 597 746 l 1,8,-1
 1173 0 l 1,9,-1
 957 0 l 1,4,-1
EndSplineSet
Validated: 1
EndChar

StartChar: L
Encoding: 76 76 61
Width: 1200
GlyphClass: 2
Flags: W
AnchorPoint: "Anchor-7" 359 1377 basechar 0
AnchorPoint: "Anchor-6" 663 0 basechar 0
LayerCount: 2
Fore
SplineSet
1053 0 m 1,0,-1
 271 0 l 1,1,-1
 271 1377 l 1,2,-1
 445 1377 l 1,3,-1
 445 155 l 1,4,-1
 1073 155 l 1,5,-1
 1053 0 l 1,0,-1
EndSplineSet
Validated: 1
EndChar

StartChar: Lslash
Encoding: 321 321 66
Width: 1200
GlyphClass: 2
Flags: W
AnchorPoint: "Anchor-7" 356 1377 basechar 0
AnchorPoint: "Anchor-6" 659 0 basechar 0
LayerCount: 2
Fore
SplineSet
441 643 m 1,0,-1
 441 155 l 1,1,-1
 1070 155 l 1,2,-1
 1050 0 l 1,3,-1
 267 0 l 1,4,-1
 267 536 l 1,5,-1
 153 465 l 1,6,-1
 81 578 l 1,7,-1
 267 693 l 1,8,-1
 267 1377 l 1,9,-1
 441 1377 l 1,10,-1
 441 801 l 1,11,-1
 769 1005 l 1,12,-1
 844 893 l 1,13,-1
 441 643 l 1,0,-1
EndSplineSet
Validated: 1
EndChar

StartChar: M
Encoding: 77 77 67
Width: 1200
GlyphClass: 2
Flags: W
AnchorPoint: "Anchor-7" 600 1377 basechar 0
AnchorPoint: "Anchor-6" 600 0 basechar 0
LayerCount: 2
Fore
SplineSet
1061 1377 m 1,0,-1
 1139 0 l 1,1,-1
 972 0 l 1,2,-1
 929 719 l 2,3,4
 918 911 918 911 918 1161 c 2,5,-1
 918 1218 l 1,6,-1
 686 247 l 1,7,-1
 512 247 l 1,8,-1
 263 1218 l 1,9,10
 266 1158 266 1158 266 993 c 0,11,12
 266 824 266 824 261 721 c 2,13,-1
 224 0 l 1,14,-1
 61 0 l 1,15,-1
 139 1377 l 1,16,-1
 381 1377 l 1,17,-1
 604 434 l 1,18,-1
 817 1377 l 1,19,-1
 1061 1377 l 1,0,-1
EndSplineSet
Validated: 1
EndChar

StartChar: N
Encoding: 78 78 68
Width: 1200
GlyphClass: 2
Flags: W
AnchorPoint: "Anchor-7" 597 1377 basechar 0
AnchorPoint: "Anchor-6" 600 0 basechar 0
LayerCount: 2
Fore
SplineSet
305 1211 m 2,0,1
 305 1203 305 1203 306 1183 c 128,-1,2
 307 1163 307 1163 310 1126 c 0,3,4
 328 853 328 853 328 690 c 2,5,-1
 328 0 l 1,6,-1
 167 0 l 1,7,-1
 167 1377 l 1,8,-1
 402 1377 l 1,9,-1
 895 161 l 1,10,-1
 891 233 l 1,11,12
 872 499 872 499 872 688 c 2,13,-1
 872 1377 l 1,14,-1
 1033 1377 l 1,15,-1
 1033 0 l 1,16,-1
 790 0 l 1,17,-1
 305 1211 l 2,0,1
EndSplineSet
Validated: 1
EndChar

StartChar: Eng
Encoding: 330 330 72
Width: 1200
GlyphClass: 2
Flags: W
AnchorPoint: "Anchor-7" 597 1377 basechar 0
AnchorPoint: "Anchor-6" 600 0 basechar 0
LayerCount: 2
Fore
SplineSet
872 1377 m 1,0,-1
 1033 1377 l 1,1,-1
 1033 -123 l 2,2,3
 1033 -271 1033 -271 955.5 -348 c 128,-1,4
 878 -425 878 -425 743 -425 c 0,5,6
 617 -425 617 -425 518 -351 c 1,7,-1
 584 -236 l 1,8,9
 624 -261 624 -261 656.5 -272 c 128,-1,10
 689 -283 689 -283 736 -283 c 0,11,12
 860 -283 860 -283 860 -133 c 2,13,-1
 860 0 l 1,14,-1
 790 0 l 1,15,-1
 305 1211 l 2,16,17
 305 1203 305 1203 306 1183 c 128,-1,18
 307 1163 307 1163 310 1126 c 0,19,20
 328 853 328 853 328 690 c 2,21,-1
 328 0 l 1,22,-1
 167 0 l 1,23,-1
 167 1377 l 1,24,-1
 402 1377 l 1,25,-1
 895 161 l 1,26,-1
 891 233 l 1,27,28
 872 499 872 499 872 688 c 2,29,-1
 872 1377 l 1,0,-1
EndSplineSet
Validated: 1
EndChar

StartChar: O
Encoding: 79 79 74
Width: 1200
GlyphClass: 2
Flags: W
AnchorPoint: "Anchor-7" 600 1377 basechar 0
AnchorPoint: "Anchor-6" 600 0 basechar 0
LayerCount: 2
Fore
SplineSet
1049.5 315 m 128,-1,1
 992 155 992 155 878 66 c 128,-1,2
 764 -23 764 -23 600 -23 c 256,3,4
 436 -23 436 -23 322 64 c 128,-1,5
 208 151 208 151 150.5 310.5 c 128,-1,6
 93 470 93 470 93 685 c 0,7,8
 93 897 93 897 150.5 1058 c 128,-1,9
 208 1219 208 1219 322 1309 c 128,-1,10
 436 1399 436 1399 600 1399 c 256,11,12
 764 1399 764 1399 878 1311 c 128,-1,13
 992 1223 992 1223 1049.5 1062.5 c 128,-1,14
 1107 902 1107 902 1107 687 c 0,15,0
 1107 475 1107 475 1049.5 315 c 128,-1,1
847.5 1112 m 128,-1,17
 770 1254 770 1254 600 1254 c 256,18,19
 430 1254 430 1254 352.5 1111 c 128,-1,20
 275 968 275 968 275 685 c 0,21,22
 275 405 275 405 354 264 c 128,-1,23
 433 123 433 123 600 123 c 0,24,25
 770 123 770 123 847.5 264 c 128,-1,26
 925 405 925 405 925 687 c 0,27,16
 925 970 925 970 847.5 1112 c 128,-1,17
EndSplineSet
Validated: 1
Substitution2: "Single Substitution lookup 143 subtable" ordmasculine
Substitution2: "'aalt' Access All Alternates lookup 0 subtable" ordmasculine
EndChar

StartChar: Oslash
Encoding: 216 216 82
Width: 1200
GlyphClass: 2
Flags: W
AnchorPoint: "Anchor-7" 600 1377 basechar 0
AnchorPoint: "Anchor-6" 600 0 basechar 0
LayerCount: 2
Fore
SplineSet
867 1319 m 1,0,1
 985 1234 985 1234 1046 1071 c 128,-1,2
 1107 908 1107 908 1107 687 c 0,3,4
 1107 475 1107 475 1049.5 315 c 128,-1,5
 992 155 992 155 878 66 c 128,-1,6
 764 -23 764 -23 600 -23 c 0,7,8
 533 -23 533 -23 474 -8 c 1,9,-1
 409 -220 l 1,10,-1
 259 -181 l 1,11,-1
 334 56 l 1,12,13
 216 139 216 139 154.5 301.5 c 128,-1,14
 93 464 93 464 93 685 c 0,15,16
 93 897 93 897 150.5 1058 c 128,-1,17
 208 1219 208 1219 322 1309 c 128,-1,18
 436 1399 436 1399 600 1399 c 0,19,20
 671 1399 671 1399 729 1383 c 1,21,-1
 793 1606 l 1,22,-1
 944 1567 l 1,23,-1
 867 1319 l 1,0,1
305 376 m 128,-1,25
 334 257 334 257 395 196 c 1,26,-1
 698 1241 l 1,27,28
 653 1253 653 1253 600 1253 c 0,29,30
 431 1253 431 1253 353.5 1110 c 128,-1,31
 276 967 276 967 276 685 c 0,32,24
 276 495 276 495 305 376 c 128,-1,25
846.5 265 m 128,-1,34
 924 406 924 406 924 687 c 0,35,36
 924 881 924 881 895 1001.5 c 128,-1,37
 866 1122 866 1122 804 1182 c 1,38,-1
 502 136 l 1,39,40
 547 124 547 124 600 124 c 0,41,33
 769 124 769 124 846.5 265 c 128,-1,34
EndSplineSet
Validated: 1
EndChar

StartChar: OE
Encoding: 338 338 85
Width: 1200
GlyphClass: 2
Flags: W
AnchorPoint: "Anchor-7" 600 1377 basechar 0
AnchorPoint: "Anchor-6" 600 0 basechar 0
LayerCount: 2
Fore
SplineSet
566 1377 m 1,1,-1
 1217 1377 l 1,2,-1
 1196 1236 l 1,3,-1
 709 1236 l 1,4,5
 824 1096 824 1096 838 769 c 1,6,-1
 1145 769 l 1,7,-1
 1145 628 l 1,8,-1
 838 628 l 1,9,10
 829 290 829 290 701 141 c 1,11,-1
 1235 141 l 1,12,-1
 1235 0 l 1,13,-1
 560 0 l 1,14,15
 521 -11 521 -11 489 -17 c 128,-1,16
 457 -23 457 -23 423 -23 c 0,17,18
 -3 -23 -3 -23 -3 685 c 0,19,20
 -3 1034 -3 1034 104.5 1216.5 c 128,-1,21
 212 1399 212 1399 423 1399 c 0,22,0
 500 1399 500 1399 566 1377 c 1,1,-1
287.5 1198.5 m 128,-1,24
 235 1140 235 1140 209 1014.5 c 128,-1,25
 183 889 183 889 183 685 c 0,26,27
 183 386 183 386 242.5 252.5 c 128,-1,28
 302 119 302 119 423 119 c 0,29,30
 508 119 508 119 561.5 176.5 c 128,-1,31
 615 234 615 234 641 358.5 c 128,-1,32
 667 483 667 483 667 687 c 0,33,34
 667 892 667 892 642 1017 c 128,-1,35
 617 1142 617 1142 563.5 1199.5 c 128,-1,36
 510 1257 510 1257 423 1257 c 0,37,23
 340 1257 340 1257 287.5 1198.5 c 128,-1,24
EndSplineSet
Validated: 1
EndChar

StartChar: P
Encoding: 80 80 86
Width: 1200
GlyphClass: 2
Flags: W
AnchorPoint: "Anchor-7" 600 1377 basechar 0
AnchorPoint: "Anchor-6" 600 0 basechar 0
LayerCount: 2
Fore
SplineSet
971.5 617.5 m 128,-1,1
 829 511 829 511 581 511 c 2,2,-1
 405 511 l 1,3,-1
 405 0 l 1,4,-1
 231 0 l 1,5,-1
 231 1377 l 1,6,-1
 583 1377 l 2,7,8
 836 1377 836 1377 975 1271.5 c 128,-1,9
 1114 1166 1114 1166 1114 954 c 0,10,0
 1114 724 1114 724 971.5 617.5 c 128,-1,1
841.5 1171 m 128,-1,12
 755 1239 755 1239 604 1239 c 2,13,-1
 405 1239 l 1,14,-1
 405 651 l 1,15,-1
 597 651 l 2,16,17
 755 651 755 651 841.5 718.5 c 128,-1,18
 928 786 928 786 928 952 c 0,19,11
 928 1103 928 1103 841.5 1171 c 128,-1,12
EndSplineSet
Validated: 1
EndChar

StartChar: Thorn
Encoding: 222 222 87
Width: 1200
GlyphClass: 2
Flags: W
AnchorPoint: "Anchor-7" 600 1377 basechar 0
AnchorPoint: "Anchor-6" 600 0 basechar 0
LayerCount: 2
Fore
SplineSet
387 1377 m 1,0,-1
 387 1144 l 1,1,-1
 585 1144 l 2,2,3
 839 1144 839 1144 975 1036 c 128,-1,4
 1111 928 1111 928 1111 710 c 0,5,6
 1111 479 1111 479 969.5 368 c 128,-1,7
 828 257 828 257 584 257 c 2,8,-1
 387 257 l 1,9,-1
 387 0 l 1,10,-1
 215 0 l 1,11,-1
 215 1377 l 1,12,-1
 387 1377 l 1,0,-1
387 1007 m 1,13,-1
 387 396 l 1,14,-1
 607 396 l 2,15,16
 761 396 761 396 845 466 c 128,-1,17
 929 536 929 536 929 706 c 0,18,19
 929 861 929 861 843.5 934 c 128,-1,20
 758 1007 758 1007 606 1007 c 2,21,-1
 387 1007 l 1,13,-1
EndSplineSet
Validated: 1
EndChar

StartChar: Q
Encoding: 81 81 88
Width: 1200
GlyphClass: 2
Flags: W
AnchorPoint: "Anchor-7" 600 1377 basechar 0
AnchorPoint: "Anchor-6" 600 0 basechar 0
LayerCount: 2
Fore
SplineSet
1040.5 296 m 128,-1,1
 974 136 974 136 822 53 c 1,2,3
 920 34 920 34 988 -4.5 c 128,-1,4
 1056 -43 1056 -43 1103.5 -108 c 128,-1,5
 1151 -173 1151 -173 1185 -274 c 1,6,-1
 1002 -346 l 1,7,8
 958 -233 958 -233 905.5 -162.5 c 128,-1,9
 853 -92 853 -92 774.5 -55.5 c 128,-1,10
 696 -19 696 -19 580 -19 c 0,11,12
 424 -19 424 -19 314 67.5 c 128,-1,13
 204 154 204 154 147.5 312.5 c 128,-1,14
 91 471 91 471 91 685 c 0,15,16
 91 897 91 897 149 1058 c 128,-1,17
 207 1219 207 1219 321.5 1309 c 128,-1,18
 436 1399 436 1399 599 1399 c 0,19,20
 763 1399 763 1399 877 1311 c 128,-1,21
 991 1223 991 1223 1049 1062.5 c 128,-1,22
 1107 902 1107 902 1107 687 c 0,23,0
 1107 456 1107 456 1040.5 296 c 128,-1,1
848 1111.5 m 128,-1,25
 769 1254 769 1254 599 1254 c 256,26,27
 429 1254 429 1254 350 1111 c 128,-1,28
 271 968 271 968 271 685 c 0,29,30
 271 406 271 406 351.5 264.5 c 128,-1,31
 432 123 432 123 599 123 c 0,32,33
 770 123 770 123 848.5 264.5 c 128,-1,34
 927 406 927 406 927 687 c 0,35,24
 927 969 927 969 848 1111.5 c 128,-1,25
EndSplineSet
Validated: 1
EndChar

StartChar: R
Encoding: 82 82 89
Width: 1200
GlyphClass: 2
Flags: W
AnchorPoint: "Anchor-7" 600 1377 basechar 0
AnchorPoint: "Anchor-6" 597 0 basechar 0
LayerCount: 2
Fore
SplineSet
982 745.5 m 128,-1,1
 889 648 889 648 739 611 c 1,2,-1
 1147 0 l 1,3,-1
 939 0 l 1,4,-1
 563 591 l 1,5,-1
 377 591 l 1,6,-1
 377 0 l 1,7,-1
 203 0 l 1,8,-1
 203 1377 l 1,9,-1
 557 1377 l 2,10,11
 812 1377 812 1377 943.5 1279 c 128,-1,12
 1075 1181 1075 1181 1075 991 c 0,13,0
 1075 843 1075 843 982 745.5 c 128,-1,1
813.5 1180.5 m 128,-1,15
 738 1239 738 1239 577 1239 c 2,16,-1
 377 1239 l 1,17,-1
 377 727 l 1,18,-1
 577 727 l 2,19,20
 731 727 731 727 810 789.5 c 128,-1,21
 889 852 889 852 889 991 c 0,22,14
 889 1122 889 1122 813.5 1180.5 c 128,-1,15
EndSplineSet
Validated: 1
EndChar

StartChar: S
Encoding: 83 83 93
Width: 1200
GlyphClass: 2
Flags: W
AnchorPoint: "Anchor-7" 611 1377 basechar 0
AnchorPoint: "Anchor-6" 593 0 basechar 0
LayerCount: 2
Fore
SplineSet
1013.5 170.5 m 128,-1,1
 954 79 954 79 840.5 28 c 128,-1,2
 727 -23 727 -23 570 -23 c 0,3,4
 421 -23 421 -23 298 22.5 c 128,-1,5
 175 68 175 68 87 153 c 1,6,-1
 190 269 l 1,7,8
 265 198 265 198 358.5 160.5 c 128,-1,9
 452 123 452 123 573 123 c 0,10,11
 659 123 659 123 732 151.5 c 128,-1,12
 805 180 805 180 849 237.5 c 128,-1,13
 893 295 893 295 893 378 c 0,14,15
 893 447 893 447 866.5 493 c 128,-1,16
 840 539 840 539 775 575.5 c 128,-1,17
 710 612 710 612 591 647 c 0,18,19
 444 690 444 690 348 740.5 c 128,-1,20
 252 791 252 791 199.5 865 c 128,-1,21
 147 939 147 939 147 1045 c 0,22,23
 147 1147 147 1147 203.5 1227.5 c 128,-1,24
 260 1308 260 1308 361.5 1353.5 c 128,-1,25
 463 1399 463 1399 593 1399 c 0,26,27
 731 1399 731 1399 837.5 1359.5 c 128,-1,28
 944 1320 944 1320 1033 1242 c 1,29,-1
 931 1129 l 1,30,31
 860 1192 860 1192 775 1223 c 128,-1,32
 690 1254 690 1254 599 1254 c 0,33,34
 522 1254 522 1254 459.5 1231.5 c 128,-1,35
 397 1209 397 1209 360.5 1163 c 128,-1,36
 324 1117 324 1117 324 1051 c 0,37,38
 324 990 324 990 356 948 c 128,-1,39
 388 906 388 906 462 871 c 128,-1,40
 536 836 536 836 671 796 c 0,41,42
 795 760 795 760 881 713.5 c 128,-1,43
 967 667 967 667 1020 586.5 c 128,-1,44
 1073 506 1073 506 1073 381 c 0,45,0
 1073 262 1073 262 1013.5 170.5 c 128,-1,1
EndSplineSet
Validated: 1
EndChar

StartChar: Scedilla
Encoding: 350 350 96
Width: 1200
GlyphClass: 2
Flags: W
AnchorPoint: "Anchor-7" 611 1377 basechar 0
AnchorPoint: "Anchor-6" 593 0 basechar 0
LayerCount: 2
Fore
SplineSet
1021 183 m 128,-1,1
 969 96 969 96 870 42.5 c 128,-1,2
 771 -11 771 -11 633 -21 c 1,3,-1
 633 -114 l 1,4,5
 726 -122 726 -122 772 -169 c 128,-1,6
 818 -216 818 -216 818 -281 c 0,7,8
 818 -344 818 -344 785 -388 c 128,-1,9
 752 -432 752 -432 696 -454.5 c 128,-1,10
 640 -477 640 -477 574 -477 c 0,11,12
 515 -477 515 -477 460 -464 c 128,-1,13
 405 -451 405 -451 365 -428 c 1,14,-1
 419 -331 l 1,15,16
 447 -346 447 -346 484 -354.5 c 128,-1,17
 521 -363 521 -363 554 -363 c 0,18,19
 674 -363 674 -363 674 -281 c 0,20,21
 674 -230 674 -230 631.5 -212.5 c 128,-1,22
 589 -195 589 -195 500 -195 c 1,23,-1
 514 -21 l 1,24,25
 383 -13 383 -13 275 31.5 c 128,-1,26
 167 76 167 76 87 153 c 1,27,-1
 190 269 l 1,28,29
 265 198 265 198 358.5 160.5 c 128,-1,30
 452 123 452 123 573 123 c 0,31,32
 659 123 659 123 732 151.5 c 128,-1,33
 805 180 805 180 849 237.5 c 128,-1,34
 893 295 893 295 893 378 c 0,35,36
 893 447 893 447 866.5 493 c 128,-1,37
 840 539 840 539 775 575.5 c 128,-1,38
 710 612 710 612 591 647 c 0,39,40
 444 690 444 690 348 740.5 c 128,-1,41
 252 791 252 791 199.5 865 c 128,-1,42
 147 939 147 939 147 1045 c 0,43,44
 147 1147 147 1147 203.5 1227.5 c 128,-1,45
 260 1308 260 1308 361.5 1353.5 c 128,-1,46
 463 1399 463 1399 593 1399 c 0,47,48
 731 1399 731 1399 837.5 1359.5 c 128,-1,49
 944 1320 944 1320 1033 1242 c 1,50,-1
 931 1129 l 1,51,52
 860 1192 860 1192 775 1223 c 128,-1,53
 690 1254 690 1254 599 1254 c 0,54,55
 522 1254 522 1254 459.5 1231.5 c 128,-1,56
 397 1209 397 1209 360.5 1163 c 128,-1,57
 324 1117 324 1117 324 1051 c 0,58,59
 324 990 324 990 356 948 c 128,-1,60
 388 906 388 906 462 871 c 128,-1,61
 536 836 536 836 671 796 c 0,62,63
 795 760 795 760 881 713.5 c 128,-1,64
 967 667 967 667 1020 586.5 c 128,-1,65
 1073 506 1073 506 1073 381 c 0,66,0
 1073 270 1073 270 1021 183 c 128,-1,1
EndSplineSet
Validated: 1
Substitution2: "'locl' Localized Forms in Latin lookup 17 subtable" uni0218
Substitution2: "'locl' Localized Forms in Latin lookup 16 subtable" uni0218
Substitution2: "'aalt' Access All Alternates lookup 0 subtable" uni0218
EndChar

StartChar: uni1E9E
Encoding: 7838 7838 99
Width: 1200
Flags: W
LayerCount: 2
Fore
SplineSet
832.5 1374.5 m 128,-1,1
 952 1338 952 1338 1072 1273 c 1,2,-1
 1072 1176 l 1,3,-1
 713 786 l 1,4,5
 1159 735 1159 735 1159 389 c 0,6,7
 1159 264 1159 264 1105 173.5 c 128,-1,8
 1051 83 1051 83 953.5 35.5 c 128,-1,9
 856 -12 856 -12 728 -12 c 0,10,11
 585 -12 585 -12 491 35 c 1,12,-1
 544 153 l 1,13,14
 581 139 581 139 621 131 c 128,-1,15
 661 123 661 123 714 123 c 0,16,17
 841 123 841 123 912.5 191 c 128,-1,18
 984 259 984 259 984 390 c 0,19,20
 984 532 984 532 879 602.5 c 128,-1,21
 774 673 774 673 557 685 c 1,22,-1
 557 801 l 1,23,-1
 916 1200 l 1,24,25
 834 1237 834 1237 754.5 1257 c 128,-1,26
 675 1277 675 1277 587 1277 c 0,27,28
 314 1277 314 1277 314 992 c 2,29,-1
 314 12 l 1,30,-1
 147 12 l 1,31,-1
 147 993 l 2,32,33
 147 1125 147 1125 197.5 1219 c 128,-1,34
 248 1313 248 1313 345.5 1362 c 128,-1,35
 443 1411 443 1411 581 1411 c 0,36,0
 713 1411 713 1411 832.5 1374.5 c 128,-1,1
EndSplineSet
Validated: 1
EndChar

StartChar: T
Encoding: 84 84 100
Width: 1200
GlyphClass: 2
Flags: W
AnchorPoint: "Anchor-7" 598 1377 basechar 0
AnchorPoint: "Anchor-6" 598 0 basechar 0
LayerCount: 2
Fore
SplineSet
1101 1228 m 1,0,-1
 683 1228 l 1,1,-1
 683 0 l 1,2,-1
 510 0 l 1,3,-1
 510 1228 l 1,4,-1
 80 1228 l 1,5,-1
 80 1377 l 1,6,-1
 1119 1377 l 1,7,-1
 1101 1228 l 1,0,-1
EndSplineSet
Validated: 1
EndChar

StartChar: Tbar
Encoding: 358 358 101
Width: 1200
GlyphClass: 2
Flags: W
AnchorPoint: "Anchor-7" 598 1377 basechar 0
AnchorPoint: "Anchor-6" 598 0 basechar 0
LayerCount: 2
Fore
SplineSet
1119 1377 m 1,0,-1
 1101 1228 l 1,1,-1
 683 1228 l 1,2,-1
 683 835 l 1,3,-1
 947 835 l 1,4,-1
 947 700 l 1,5,-1
 683 700 l 1,6,-1
 683 0 l 1,7,-1
 510 0 l 1,8,-1
 510 700 l 1,9,-1
 249 700 l 1,10,-1
 249 835 l 1,11,-1
 510 835 l 1,12,-1
 510 1228 l 1,13,-1
 80 1228 l 1,14,-1
 80 1377 l 1,15,-1
 1119 1377 l 1,0,-1
EndSplineSet
Validated: 1
EndChar

StartChar: uni0162
Encoding: 354 354 103
Width: 1200
GlyphClass: 2
Flags: W
AnchorPoint: "Anchor-7" 598 1377 basechar 0
AnchorPoint: "Anchor-6" 598 0 basechar 0
LayerCount: 2
Fore
SplineSet
683 0 m 1,0,-1
 656 0 l 1,1,-1
 656 -114 l 1,2,3
 749 -122 749 -122 795.5 -169 c 128,-1,4
 842 -216 842 -216 842 -281 c 0,5,6
 842 -344 842 -344 808.5 -388 c 128,-1,7
 775 -432 775 -432 719 -454.5 c 128,-1,8
 663 -477 663 -477 597 -477 c 0,9,10
 538 -477 538 -477 483 -464 c 128,-1,11
 428 -451 428 -451 389 -428 c 1,12,-1
 443 -331 l 1,13,14
 470 -346 470 -346 507 -354.5 c 128,-1,15
 544 -363 544 -363 577 -363 c 0,16,17
 697 -363 697 -363 697 -281 c 0,18,19
 697 -230 697 -230 654.5 -212.5 c 128,-1,20
 612 -195 612 -195 524 -195 c 1,21,-1
 539 0 l 1,22,-1
 510 0 l 1,23,-1
 510 1228 l 1,24,-1
 80 1228 l 1,25,-1
 80 1377 l 1,26,-1
 1119 1377 l 1,27,-1
 1101 1228 l 1,28,-1
 683 1228 l 1,29,-1
 683 0 l 1,0,-1
EndSplineSet
Validated: 1
Substitution2: "'locl' Localized Forms in Latin lookup 17 subtable" uni021A
Substitution2: "'locl' Localized Forms in Latin lookup 16 subtable" uni021A
Substitution2: "'aalt' Access All Alternates lookup 0 subtable" uni021A
EndChar

StartChar: U
Encoding: 85 85 105
Width: 1200
GlyphClass: 2
Flags: W
AnchorPoint: "Anchor-7" 600 1377 basechar 0
AnchorPoint: "Anchor-6" 600 0 basechar 0
LayerCount: 2
Fore
SplineSet
1055 446 m 2,0,1
 1055 307 1055 307 999 201 c 128,-1,2
 943 95 943 95 839.5 36 c 128,-1,3
 736 -23 736 -23 598 -23 c 0,4,5
 459 -23 459 -23 356.5 36 c 128,-1,6
 254 95 254 95 199.5 201 c 128,-1,7
 145 307 145 307 145 446 c 2,8,-1
 145 1377 l 1,9,-1
 317 1377 l 1,10,-1
 317 440 l 2,11,12
 317 285 317 285 389.5 206 c 128,-1,13
 462 127 462 127 598 127 c 0,14,15
 735 127 735 127 807.5 206 c 128,-1,16
 880 285 880 285 880 440 c 2,17,-1
 880 1377 l 1,18,-1
 1055 1377 l 1,19,-1
 1055 446 l 2,0,1
EndSplineSet
Validated: 1
EndChar

StartChar: Uogonek
Encoding: 370 370 113
Width: 1200
GlyphClass: 2
Flags: W
AnchorPoint: "Anchor-7" 600 1377 basechar 0
AnchorPoint: "Anchor-6" 600 0 basechar 0
LayerCount: 2
Fore
SplineSet
880 1377 m 1,0,-1
 1055 1377 l 1,1,-1
 1055 446 l 2,2,3
 1055 333 1055 333 1017 241 c 128,-1,4
 979 149 979 149 908.5 86 c 128,-1,5
 838 23 838 23 741 -4 c 1,6,7
 646 -47 646 -47 594 -84.5 c 128,-1,8
 542 -122 542 -122 522.5 -156.5 c 128,-1,9
 503 -191 503 -191 503 -229 c 0,10,11
 503 -276 503 -276 529 -300.5 c 128,-1,12
 555 -325 555 -325 615 -325 c 0,13,14
 669 -325 669 -325 739 -311 c 1,15,-1
 721 -445 l 1,16,17
 685 -452 685 -452 658 -455.5 c 128,-1,18
 631 -459 631 -459 595 -459 c 0,19,20
 521 -459 521 -459 465.5 -433 c 128,-1,21
 410 -407 410 -407 380.5 -362.5 c 128,-1,22
 351 -318 351 -318 351 -262 c 0,23,24
 351 -188 351 -188 393 -127.5 c 128,-1,25
 435 -67 435 -67 524 -18 c 1,26,27
 406 -3 406 -3 321 59 c 128,-1,28
 236 121 236 121 190.5 220.5 c 128,-1,29
 145 320 145 320 145 446 c 2,30,-1
 145 1377 l 1,31,-1
 317 1377 l 1,32,-1
 317 440 l 2,33,34
 317 285 317 285 389.5 206 c 128,-1,35
 462 127 462 127 598 127 c 0,36,37
 735 127 735 127 807.5 206 c 128,-1,38
 880 285 880 285 880 440 c 2,39,-1
 880 1377 l 1,0,-1
EndSplineSet
Validated: 1
EndChar

StartChar: V
Encoding: 86 86 116
Width: 1200
GlyphClass: 2
Flags: W
AnchorPoint: "Anchor-7" 600 1377 basechar 0
AnchorPoint: "Anchor-6" 600 0 basechar 0
LayerCount: 2
Fore
SplineSet
236 1377 m 1,0,-1
 604 197 l 1,1,-1
 976 1377 l 1,2,-1
 1151 1377 l 1,3,-1
 690 0 l 1,4,-1
 510 0 l 1,5,-1
 49 1377 l 1,6,-1
 236 1377 l 1,0,-1
EndSplineSet
Validated: 1
EndChar

StartChar: W
Encoding: 87 87 117
Width: 1200
GlyphClass: 2
Flags: W
AnchorPoint: "Anchor-7" 600 1377 basechar 0
AnchorPoint: "Anchor-6" 600 0 basechar 0
LayerCount: 2
Fore
SplineSet
1030 1377 m 1,0,-1
 1191 1377 l 1,1,-1
 981 0 l 1,2,-1
 753 0 l 1,3,-1
 595 1039 l 1,4,-1
 436 0 l 1,5,-1
 203 0 l 1,6,-1
 9 1377 l 1,7,-1
 183 1377 l 1,8,-1
 330 191 l 1,9,-1
 495 1217 l 1,10,-1
 708 1217 l 1,11,-1
 865 191 l 1,12,-1
 1030 1377 l 1,0,-1
EndSplineSet
Validated: 1
EndChar

StartChar: X
Encoding: 88 88 122
Width: 1200
GlyphClass: 2
Flags: W
AnchorPoint: "Anchor-7" 600 1377 basechar 0
AnchorPoint: "Anchor-6" 600 0 basechar 0
LayerCount: 2
Fore
SplineSet
494 734 m 1,0,-1
 99 1377 l 1,1,-1
 298 1377 l 1,2,-1
 600 848 l 1,3,-1
 903 1377 l 1,4,-1
 1091 1377 l 1,5,-1
 700 743 l 1,6,-1
 1138 0 l 1,7,-1
 939 0 l 1,8,-1
 596 622 l 1,9,-1
 249 0 l 1,10,-1
 62 0 l 1,11,-1
 494 734 l 1,0,-1
EndSplineSet
Validated: 1
EndChar

StartChar: Y
Encoding: 89 89 123
Width: 1200
GlyphClass: 2
Flags: W
AnchorPoint: "Anchor-7" 607 1377 basechar 0
AnchorPoint: "Anchor-6" 600 0 basechar 0
LayerCount: 2
Fore
SplineSet
1153 1377 m 1,0,-1
 688 531 l 1,1,-1
 688 0 l 1,2,-1
 512 0 l 1,3,-1
 512 529 l 1,4,-1
 47 1377 l 1,5,-1
 239 1377 l 1,6,-1
 604 687 l 1,7,-1
 973 1377 l 1,8,-1
 1153 1377 l 1,0,-1
EndSplineSet
Validated: 1
EndChar

StartChar: Z
Encoding: 90 90 128
Width: 1200
GlyphClass: 2
Flags: W
AnchorPoint: "Anchor-7" 637 1377 basechar 0
AnchorPoint: "Anchor-6" 600 0 basechar 0
LayerCount: 2
Fore
SplineSet
1057 1235 m 1,0,-1
 334 150 l 1,1,-1
 1055 150 l 1,2,-1
 1034 0 l 1,3,-1
 143 0 l 1,4,-1
 143 141 l 1,5,-1
 871 1229 l 1,6,-1
 215 1229 l 1,7,-1
 215 1377 l 1,8,-1
 1057 1377 l 1,9,-1
 1057 1235 l 1,0,-1
EndSplineSet
Validated: 1
EndChar

StartChar: a
Encoding: 97 97 139
Width: 1200
GlyphClass: 2
Flags: W
AnchorPoint: "Anchor-7" 584 1053 basechar 0
AnchorPoint: "Anchor-6" 600 0 basechar 0
LayerCount: 2
Fore
SplineSet
955 230 m 2,0,1
 955 168 955 168 975 138.5 c 128,-1,2
 995 109 995 109 1041 95 c 1,3,-1
 1000 -23 l 1,4,5
 848 -3 848 -3 807 125 c 1,6,7
 751 52 751 52 665.5 14.5 c 128,-1,8
 580 -23 580 -23 477 -23 c 0,9,10
 373 -23 373 -23 296 17 c 128,-1,11
 219 57 219 57 178 130.5 c 128,-1,12
 137 204 137 204 137 302 c 0,13,14
 137 465 137 465 264 552 c 128,-1,15
 391 639 391 639 631 639 c 2,16,-1
 786 639 l 1,17,-1
 786 727 l 2,18,19
 786 837 786 837 722 886.5 c 128,-1,20
 658 936 658 936 535 936 c 0,21,22
 416 936 416 936 261 882 c 1,23,-1
 217 1009 l 1,24,25
 393 1075 393 1075 561 1075 c 0,26,27
 754 1075 754 1075 854.5 984.5 c 128,-1,28
 955 894 955 894 955 735 c 2,29,-1
 955 230 l 2,0,1
668.5 144.5 m 128,-1,31
 739 184 739 184 786 254 c 1,32,-1
 786 525 l 1,33,-1
 634 525 l 2,34,35
 467 525 467 525 392 468 c 128,-1,36
 317 411 317 411 317 304 c 0,37,38
 317 105 317 105 520 105 c 0,39,30
 598 105 598 105 668.5 144.5 c 128,-1,31
EndSplineSet
Validated: 1
Substitution2: "Single Substitution lookup 143 subtable" ordfeminine
Substitution2: "'aalt' Access All Alternates lookup 0 subtable" ordfeminine
EndChar

StartChar: aogonek
Encoding: 261 261 146
Width: 1200
GlyphClass: 2
Flags: W
AnchorPoint: "Anchor-7" 584 1053 basechar 0
AnchorPoint: "Anchor-6" 600 0 basechar 0
LayerCount: 2
Fore
SplineSet
1000 -23 m 1,0,1
 901 -67 901 -67 846.5 -105.5 c 128,-1,2
 792 -144 792 -144 772 -178.5 c 128,-1,3
 752 -213 752 -213 752 -252 c 0,4,5
 752 -299 752 -299 778 -323.5 c 128,-1,6
 804 -348 804 -348 864 -348 c 0,7,8
 918 -348 918 -348 988 -334 c 1,9,-1
 970 -468 l 1,10,11
 934 -475 934 -475 907 -478.5 c 128,-1,12
 880 -482 880 -482 844 -482 c 0,13,14
 770 -482 770 -482 714.5 -456 c 128,-1,15
 659 -430 659 -430 629.5 -385.5 c 128,-1,16
 600 -341 600 -341 600 -285 c 0,17,18
 600 -190 600 -190 671 -116.5 c 128,-1,19
 742 -43 742 -43 893 12 c 1,20,21
 831 50 831 50 807 125 c 1,22,23
 751 52 751 52 665.5 14.5 c 128,-1,24
 580 -23 580 -23 477 -23 c 0,25,26
 373 -23 373 -23 296 17 c 128,-1,27
 219 57 219 57 178 130.5 c 128,-1,28
 137 204 137 204 137 302 c 0,29,30
 137 465 137 465 264 552 c 128,-1,31
 391 639 391 639 631 639 c 2,32,-1
 786 639 l 1,33,-1
 786 727 l 2,34,35
 786 837 786 837 722 886.5 c 128,-1,36
 658 936 658 936 535 936 c 0,37,38
 416 936 416 936 261 882 c 1,39,-1
 217 1009 l 1,40,41
 393 1075 393 1075 561 1075 c 0,42,43
 754 1075 754 1075 854.5 984.5 c 128,-1,44
 955 894 955 894 955 735 c 2,45,-1
 955 230 l 2,46,47
 955 168 955 168 975 138.5 c 128,-1,48
 995 109 995 109 1041 95 c 1,49,-1
 1000 -23 l 1,0,1
786 525 m 1,50,-1
 634 525 l 2,51,52
 467 525 467 525 392 468 c 128,-1,53
 317 411 317 411 317 304 c 0,54,55
 317 105 317 105 520 105 c 0,56,57
 598 105 598 105 668.5 144.5 c 128,-1,58
 739 184 739 184 786 254 c 1,59,-1
 786 525 l 1,50,-1
EndSplineSet
Validated: 1
EndChar

StartChar: ae
Encoding: 230 230 149
Width: 1200
GlyphClass: 2
Flags: W
AnchorPoint: "Anchor-7" 617 1053 basechar 0
LayerCount: 2
Fore
SplineSet
1128.5 940.5 m 128,-1,1
 1213 806 1213 806 1213 559 c 0,2,3
 1213 500 1213 500 1209 465 c 1,4,-1
 671 465 l 1,5,6
 685 285 685 285 738.5 201.5 c 128,-1,7
 792 118 792 118 897 118 c 0,8,9
 952 118 952 118 996.5 137 c 128,-1,10
 1041 156 1041 156 1095 197 c 1,11,-1
 1173 82 l 1,12,13
 1108 31 1108 31 1042 4 c 128,-1,14
 976 -23 976 -23 895 -23 c 0,15,16
 790 -23 790 -23 716.5 23.5 c 128,-1,17
 643 70 643 70 587 169 c 1,18,19
 524 63 524 63 458.5 20 c 128,-1,20
 393 -23 393 -23 293 -23 c 0,21,22
 201 -23 201 -23 132 17.5 c 128,-1,23
 63 58 63 58 25.5 131.5 c 128,-1,24
 -12 205 -12 205 -12 302 c 0,25,26
 -12 467 -12 467 97.5 554 c 128,-1,27
 207 641 207 641 417 641 c 2,28,-1
 507 641 l 1,29,-1
 507 727 l 2,30,31
 507 835 507 835 460.5 885 c 128,-1,32
 414 935 414 935 325 935 c 0,33,34
 274 935 274 935 229 923 c 128,-1,35
 184 911 184 911 117 881 c 1,36,-1
 71 1008 l 1,37,38
 216 1075 216 1075 341 1075 c 0,39,40
 451 1075 451 1075 513.5 1030 c 128,-1,41
 576 985 576 985 607 900 c 1,42,43
 638 983 638 983 705 1029 c 128,-1,44
 772 1075 772 1075 869 1075 c 0,45,0
 1044 1075 1044 1075 1128.5 940.5 c 128,-1,1
764 903 m 128,-1,47
 725 870 725 870 702.5 796 c 128,-1,48
 680 722 680 722 671 597 c 1,49,-1
 1049 597 l 1,50,51
 1047 713 1047 713 1029 786.5 c 128,-1,52
 1011 860 1011 860 971 898 c 128,-1,53
 931 936 931 936 864 936 c 0,54,46
 803 936 803 936 764 903 c 128,-1,47
423 525 m 2,55,56
 286 525 286 525 227.5 469.5 c 128,-1,57
 169 414 169 414 169 311 c 0,58,59
 169 213 169 213 209 160 c 128,-1,60
 249 107 249 107 317 107 c 0,61,62
 382 107 382 107 431.5 152 c 128,-1,63
 481 197 481 197 532 294 c 1,64,65
 507 405 507 405 507 525 c 1,66,-1
 423 525 l 2,55,56
EndSplineSet
Validated: 1048577
EndChar

StartChar: b
Encoding: 98 98 151
Width: 1200
GlyphClass: 2
Flags: W
AnchorPoint: "Anchor-7" 600 1477 basechar 0
AnchorPoint: "Anchor-6" 600 0 basechar 0
LayerCount: 2
Fore
SplineSet
369 916 m 1,0,1
 428 993 428 993 504 1034 c 128,-1,2
 580 1075 580 1075 669 1075 c 0,3,4
 873 1075 873 1075 968.5 930.5 c 128,-1,5
 1064 786 1064 786 1064 527 c 0,6,7
 1064 366 1064 366 1016 241.5 c 128,-1,8
 968 117 968 117 874 47 c 128,-1,9
 780 -23 780 -23 647 -23 c 0,10,11
 555 -23 555 -23 484 9.5 c 128,-1,12
 413 42 413 42 360 109 c 1,13,-1
 348 0 l 1,14,-1
 201 0 l 1,15,-1
 201 1477 l 1,16,-1
 369 1498 l 1,17,-1
 369 916 l 1,0,1
811 216.5 m 128,-1,19
 881 320 881 320 881 528 c 0,20,21
 881 733 881 733 818 836.5 c 128,-1,22
 755 940 755 940 633 940 c 0,23,24
 552 940 552 940 485 892 c 128,-1,25
 418 844 418 844 369 771 c 1,26,-1
 369 249 l 1,27,28
 411 185 411 185 473.5 149 c 128,-1,29
 536 113 536 113 607 113 c 0,30,18
 741 113 741 113 811 216.5 c 128,-1,19
EndSplineSet
Validated: 1
EndChar

StartChar: c
Encoding: 99 99 152
Width: 1200
GlyphClass: 2
Flags: W
AnchorPoint: "Anchor-7" 688 1036 basechar 0
AnchorPoint: "Anchor-6" 678 0 basechar 0
LayerCount: 2
Fore
SplineSet
951 214 m 1,1,-1
 1033 104 l 1,2,3
 964 46 964 46 867 11.5 c 128,-1,4
 770 -23 770 -23 677 -23 c 0,5,6
 522 -23 522 -23 410.5 44 c 128,-1,7
 299 111 299 111 241 234 c 128,-1,8
 183 357 183 357 183 522 c 0,9,10
 183 681 183 681 242 806.5 c 128,-1,11
 301 932 301 932 413 1003.5 c 128,-1,12
 525 1075 525 1075 679 1075 c 0,13,14
 880 1075 880 1075 1031 953 c 1,15,-1
 949 841 l 1,16,17
 813 935 813 935 677 935 c 0,18,19
 584 935 584 935 514 889 c 128,-1,20
 444 843 444 843 404.5 750 c 128,-1,21
 365 657 365 657 365 522 c 0,22,23
 365 320 365 320 449.5 221 c 128,-1,24
 534 122 534 122 677 122 c 0,25,0
 818 122 818 122 951 214 c 1,1,-1
EndSplineSet
Validated: 1
EndChar

StartChar: ccedilla
Encoding: 231 231 155
Width: 1200
GlyphClass: 2
Flags: W
AnchorPoint: "Anchor-7" 688 1036 basechar 0
AnchorPoint: "Anchor-6" 678 0 basechar 0
LayerCount: 2
Fore
SplineSet
718 -114 m 1,0,1
 811 -122 811 -122 857 -169 c 128,-1,2
 903 -216 903 -216 903 -281 c 0,3,4
 903 -344 903 -344 870 -388 c 128,-1,5
 837 -432 837 -432 781 -454.5 c 128,-1,6
 725 -477 725 -477 659 -477 c 0,7,8
 600 -477 600 -477 545 -464 c 128,-1,9
 490 -451 490 -451 450 -428 c 1,10,-1
 504 -331 l 1,11,12
 532 -346 532 -346 569 -354.5 c 128,-1,13
 606 -363 606 -363 639 -363 c 0,14,15
 759 -363 759 -363 759 -281 c 0,16,17
 759 -230 759 -230 716.5 -212.5 c 128,-1,18
 674 -195 674 -195 585 -195 c 1,19,-1
 599 -18 l 1,20,21
 467 -2 467 -2 373.5 68.5 c 128,-1,22
 280 139 280 139 231.5 255 c 128,-1,23
 183 371 183 371 183 522 c 0,24,25
 183 681 183 681 242 806.5 c 128,-1,26
 301 932 301 932 413 1003.5 c 128,-1,27
 525 1075 525 1075 679 1075 c 0,28,29
 880 1075 880 1075 1031 953 c 1,30,-1
 949 841 l 1,31,32
 813 935 813 935 677 935 c 0,33,34
 584 935 584 935 514 889 c 128,-1,35
 444 843 444 843 404.5 750 c 128,-1,36
 365 657 365 657 365 522 c 0,37,38
 365 320 365 320 449.5 221 c 128,-1,39
 534 122 534 122 677 122 c 0,40,41
 818 122 818 122 951 214 c 1,42,-1
 1033 104 l 1,43,44
 972 52 972 52 888 19 c 128,-1,45
 804 -14 804 -14 718 -21 c 1,46,-1
 718 -114 l 1,0,1
EndSplineSet
Validated: 1
EndChar

StartChar: d
Encoding: 100 100 158
Width: 1200
GlyphClass: 2
Flags: W
AnchorPoint: "Anchor-7" 600 1477 basechar 0
AnchorPoint: "Anchor-6" 600 0 basechar 0
LayerCount: 2
Fore
SplineSet
831 1498 m 1,0,-1
 999 1477 l 1,1,-1
 999 0 l 1,2,-1
 852 0 l 1,3,-1
 836 139 l 1,4,5
 778 57 778 57 702 17 c 128,-1,6
 626 -23 626 -23 537 -23 c 0,7,8
 337 -23 337 -23 236.5 124 c 128,-1,9
 136 271 136 271 136 525 c 0,10,11
 136 684 136 684 185.5 809 c 128,-1,12
 235 934 235 934 328.5 1004.5 c 128,-1,13
 422 1075 422 1075 549 1075 c 0,14,15
 639 1075 639 1075 708.5 1044 c 128,-1,16
 778 1013 778 1013 831 951 c 1,17,-1
 831 1498 l 1,0,-1
389.5 835.5 m 128,-1,19
 319 731 319 731 319 525 c 0,20,21
 319 321 319 321 383.5 217 c 128,-1,22
 448 113 448 113 572 113 c 0,23,24
 721 113 721 113 831 279 c 1,25,-1
 831 805 l 1,26,27
 788 869 788 869 726.5 904.5 c 128,-1,28
 665 940 665 940 593 940 c 0,29,18
 460 940 460 940 389.5 835.5 c 128,-1,19
EndSplineSet
Validated: 1
EndChar

StartChar: eth
Encoding: 240 240 159
Width: 1200
Flags: W
LayerCount: 2
Fore
SplineSet
501 1293 m 1,0,1
 412 1336 412 1336 267 1366 c 1,2,-1
 304 1498 l 1,3,4
 494 1457 494 1457 603 1399 c 1,5,-1
 742 1547 l 1,6,-1
 843 1459 l 1,7,-1
 719 1331 l 1,8,9
 897 1208 897 1208 981 1011.5 c 128,-1,10
 1065 815 1065 815 1065 527 c 0,11,12
 1065 360 1065 360 1006 236 c 128,-1,13
 947 112 947 112 840 44.5 c 128,-1,14
 733 -23 733 -23 590 -23 c 0,15,16
 462 -23 462 -23 358.5 35.5 c 128,-1,17
 255 94 255 94 194.5 205.5 c 128,-1,18
 134 317 134 317 134 470 c 0,19,20
 134 614 134 614 192 726 c 128,-1,21
 250 838 250 838 347.5 900 c 128,-1,22
 445 962 445 962 559 962 c 0,23,24
 754 962 754 962 875 824 c 1,25,26
 847 949 847 949 779.5 1051.5 c 128,-1,27
 712 1154 712 1154 615 1225 c 1,28,-1
 459 1063 l 1,29,-1
 339 1124 l 1,30,-1
 501 1293 l 1,0,1
889 665 m 1,32,33
 838 744 838 744 758.5 785.5 c 128,-1,34
 679 827 679 827 581 827 c 0,35,36
 505 827 505 827 442.5 789.5 c 128,-1,37
 380 752 380 752 342.5 673.5 c 128,-1,38
 305 595 305 595 305 479 c 0,39,40
 305 362 305 362 340.5 279.5 c 128,-1,41
 376 197 376 197 440 155 c 128,-1,42
 504 113 504 113 587 113 c 0,43,44
 682 113 682 113 751 161 c 128,-1,45
 820 209 820 209 857.5 303.5 c 128,-1,46
 895 398 895 398 895 535 c 0,47,31
 895 602 895 602 889 665 c 1,32,33
EndSplineSet
Validated: 1
EndChar

StartChar: dcroat
Encoding: 273 273 161
Width: 1200
GlyphClass: 2
Flags: W
AnchorPoint: "Anchor-7" 605 1477 basechar 0
AnchorPoint: "Anchor-6" 605 0 basechar 0
LayerCount: 2
Fore
SplineSet
1161 1329 m 1,0,-1
 1161 1195 l 1,1,-1
 1004 1195 l 1,2,-1
 1004 0 l 1,3,-1
 856 0 l 1,4,-1
 840 139 l 1,5,6
 783 57 783 57 707 17 c 128,-1,7
 631 -23 631 -23 542 -23 c 0,8,9
 342 -23 342 -23 241.5 124 c 128,-1,10
 141 271 141 271 141 525 c 0,11,12
 141 684 141 684 190.5 809 c 128,-1,13
 240 934 240 934 333 1004.5 c 128,-1,14
 426 1075 426 1075 554 1075 c 0,15,16
 730 1075 730 1075 836 951 c 1,17,-1
 836 1195 l 1,18,-1
 493 1195 l 1,19,-1
 493 1329 l 1,20,-1
 836 1329 l 1,21,-1
 836 1498 l 1,22,-1
 1004 1477 l 1,23,-1
 1004 1329 l 1,24,-1
 1161 1329 l 1,0,-1
836 805 m 1,25,26
 793 870 793 870 731.5 905 c 128,-1,27
 670 940 670 940 597 940 c 0,28,29
 464 940 464 940 394 835.5 c 128,-1,30
 324 731 324 731 324 525 c 0,31,32
 324 321 324 321 388.5 217 c 128,-1,33
 453 113 453 113 577 113 c 0,34,35
 726 113 726 113 836 279 c 1,36,-1
 836 805 l 1,25,26
EndSplineSet
Validated: 1
EndChar

StartChar: e
Encoding: 101 101 162
Width: 1200
GlyphClass: 2
Flags: W
AnchorPoint: "Anchor-7" 621 1053 basechar 0
AnchorPoint: "Anchor-6" 600 0 basechar 0
LayerCount: 2
Fore
SplineSet
333 467 m 1,0,1
 337 349 337 349 379 270.5 c 128,-1,2
 421 192 421 192 489 154.5 c 128,-1,3
 557 117 557 117 641 117 c 0,4,5
 719 117 719 117 784.5 140 c 128,-1,6
 850 163 850 163 922 212 c 1,7,-1
 1001 101 l 1,8,9
 927 43 927 43 831.5 10 c 128,-1,10
 736 -23 736 -23 639 -23 c 0,11,12
 488 -23 488 -23 379 45 c 128,-1,13
 270 113 270 113 213.5 237 c 128,-1,14
 157 361 157 361 157 525 c 0,15,16
 157 684 157 684 214 809 c 128,-1,17
 271 934 271 934 375 1004.5 c 128,-1,18
 479 1075 479 1075 617 1075 c 0,19,20
 749 1075 749 1075 845.5 1013 c 128,-1,21
 942 951 942 951 993.5 834.5 c 128,-1,22
 1045 718 1045 718 1045 559 c 0,23,24
 1045 513 1045 513 1041 467 c 1,25,-1
 333 467 l 1,0,1
420.5 851.5 m 128,-1,27
 344 766 344 766 334 597 c 1,28,-1
 883 597 l 1,29,30
 880 763 880 763 810 850 c 128,-1,31
 740 937 740 937 619 937 c 0,32,26
 497 937 497 937 420.5 851.5 c 128,-1,27
EndSplineSet
Validated: 1
EndChar

StartChar: eogonek
Encoding: 281 281 171
Width: 1200
GlyphClass: 2
Flags: W
AnchorPoint: "Anchor-7" 621 1053 basechar 0
AnchorPoint: "Anchor-6" 600 0 basechar 0
LayerCount: 2
Fore
SplineSet
1041 467 m 1,1,-1
 333 467 l 1,2,3
 337 349 337 349 379 270.5 c 128,-1,4
 421 192 421 192 489 154.5 c 128,-1,5
 557 117 557 117 641 117 c 0,6,7
 719 117 719 117 784.5 140 c 128,-1,8
 850 163 850 163 922 212 c 1,9,-1
 1001 101 l 1,10,11
 910 30 910 30 794 -2 c 1,12,13
 696 -45 696 -45 643 -83 c 128,-1,14
 590 -121 590 -121 570 -155.5 c 128,-1,15
 550 -190 550 -190 550 -229 c 0,16,17
 550 -276 550 -276 576 -300.5 c 128,-1,18
 602 -325 602 -325 662 -325 c 0,19,20
 716 -325 716 -325 786 -311 c 1,21,-1
 768 -445 l 1,22,23
 732 -452 732 -452 705 -455.5 c 128,-1,24
 678 -459 678 -459 642 -459 c 0,25,26
 568 -459 568 -459 512.5 -433 c 128,-1,27
 457 -407 457 -407 427.5 -362.5 c 128,-1,28
 398 -318 398 -318 398 -262 c 0,29,30
 398 -186 398 -186 448.5 -124.5 c 128,-1,31
 499 -63 499 -63 597 -22 c 1,32,33
 458 -12 458 -12 359 58.5 c 128,-1,34
 260 129 260 129 208.5 249 c 128,-1,35
 157 369 157 369 157 525 c 0,36,37
 157 684 157 684 214 809 c 128,-1,38
 271 934 271 934 375 1004.5 c 128,-1,39
 479 1075 479 1075 617 1075 c 0,40,41
 749 1075 749 1075 845.5 1013 c 128,-1,42
 942 951 942 951 993.5 834.5 c 128,-1,43
 1045 718 1045 718 1045 559 c 0,44,0
 1045 513 1045 513 1041 467 c 1,1,-1
883 597 m 1,45,46
 880 763 880 763 810 850 c 128,-1,47
 740 937 740 937 619 937 c 0,48,49
 497 937 497 937 420.5 851.5 c 128,-1,50
 344 766 344 766 334 597 c 1,51,-1
 883 597 l 1,45,46
EndSplineSet
Validated: 1
EndChar

StartChar: f
Encoding: 102 102 172
Width: 1200
GlyphClass: 2
Flags: W
AnchorPoint: "Anchor-7" 740 1477 basechar 0
AnchorPoint: "Anchor-6" 523 0 basechar 0
LayerCount: 2
Fore
SplineSet
974 1483.5 m 128,-1,1
 1043 1469 1043 1469 1108 1441 c 1,2,-1
 1054 1316 l 1,3,4
 956 1360 956 1360 828 1360 c 0,5,6
 607 1360 607 1360 607 1185 c 2,7,-1
 607 971 l 1,8,-1
 964 971 l 1,9,-1
 946 839 l 1,10,-1
 607 839 l 1,11,-1
 607 0 l 1,12,-1
 439 0 l 1,13,-1
 439 839 l 1,14,-1
 188 839 l 1,15,-1
 188 971 l 1,16,-1
 439 971 l 1,17,-1
 439 1181 l 2,18,19
 439 1276 439 1276 489 1348 c 128,-1,20
 539 1420 539 1420 626 1459 c 128,-1,21
 713 1498 713 1498 823 1498 c 0,22,0
 905 1498 905 1498 974 1483.5 c 128,-1,1
EndSplineSet
Validated: 1
EndChar

StartChar: g
Encoding: 103 103 173
Width: 1200
GlyphClass: 2
Flags: W
AnchorPoint: "Anchor-7" 587 1053 basechar 0
LayerCount: 2
Fore
SplineSet
1109 1007 m 1,0,1
 1047 988 1047 988 976.5 982 c 128,-1,2
 906 976 906 976 801 976 c 1,3,4
 984 892 984 892 984 711 c 0,5,6
 984 607 984 607 936.5 525.5 c 128,-1,7
 889 444 889 444 799.5 398.5 c 128,-1,8
 710 353 710 353 588 353 c 0,9,10
 536 353 536 353 500.5 357.5 c 128,-1,11
 465 362 465 362 431 373 c 1,12,13
 407 356 407 356 391.5 328.5 c 128,-1,14
 376 301 376 301 376 271 c 0,15,16
 376 230 376 230 408 206.5 c 128,-1,17
 440 183 440 183 517 183 c 2,18,-1
 707 183 l 2,19,20
 811 183 811 183 896.5 145.5 c 128,-1,21
 982 108 982 108 1030.5 42.5 c 128,-1,22
 1079 -23 1079 -23 1079 -103 c 0,23,24
 1079 -258 1079 -258 948 -341 c 128,-1,25
 817 -424 817 -424 576 -424 c 0,26,27
 410 -424 410 -424 312.5 -390 c 128,-1,28
 215 -356 215 -356 173 -286.5 c 128,-1,29
 131 -217 131 -217 131 -107 c 1,30,-1
 283 -107 l 1,31,32
 283 -172 283 -172 307.5 -210.5 c 128,-1,33
 332 -249 332 -249 395.5 -268 c 128,-1,34
 459 -287 459 -287 575 -287 c 0,35,36
 747 -287 747 -287 828 -244 c 128,-1,37
 909 -201 909 -201 909 -114 c 0,38,39
 909 -41 909 -41 843 -2 c 128,-1,40
 777 37 777 37 671 37 c 2,41,-1
 483 37 l 2,42,43
 396 37 396 37 336 64 c 128,-1,44
 276 91 276 91 247 136 c 128,-1,45
 218 181 218 181 218 235 c 0,46,47
 218 286 218 286 248 334 c 128,-1,48
 278 382 278 382 334 419 c 1,49,50
 243 467 243 467 200 538 c 128,-1,51
 157 609 157 609 157 710 c 0,52,53
 157 815 157 815 210.5 898.5 c 128,-1,54
 264 982 264 982 359.5 1029 c 128,-1,55
 455 1076 455 1076 577 1076 c 0,56,57
 704 1076 704 1076 787 1086.5 c 128,-1,58
 870 1097 870 1097 926.5 1115 c 128,-1,59
 983 1133 983 1133 1057 1165 c 1,60,-1
 1109 1007 l 1,0,1
391.5 887 m 128,-1,62
 329 821 329 821 329 710 c 0,63,64
 329 598 329 598 392.5 531.5 c 128,-1,65
 456 465 456 465 581 465 c 0,66,67
 691 465 691 465 750.5 529.5 c 128,-1,68
 810 594 810 594 810 711 c 0,69,70
 810 830 810 830 751 891.5 c 128,-1,71
 692 953 692 953 577 953 c 0,72,61
 454 953 454 953 391.5 887 c 128,-1,62
EndSplineSet
Validated: 1048577
EndChar

StartChar: uni0123
Encoding: 291 291 176
Width: 1200
GlyphClass: 2
Flags: W
AnchorPoint: "Anchor-7" 587 1053 basechar 0
LayerCount: 2
Fore
SplineSet
502.5 1225 m 128,-1,1
 471 1256 471 1256 471 1301 c 0,2,3
 471 1326 471 1326 478 1350 c 128,-1,4
 485 1374 485 1374 501 1411 c 2,5,-1
 601 1625 l 1,6,-1
 703 1625 l 1,7,-1
 645 1391 l 1,8,9
 665 1375 665 1375 676.5 1351 c 128,-1,10
 688 1327 688 1327 688 1301 c 0,11,12
 688 1255 688 1255 656.5 1224.5 c 128,-1,13
 625 1194 625 1194 579 1194 c 0,14,0
 534 1194 534 1194 502.5 1225 c 128,-1,1
1109 1007 m 1,15,16
 1047 988 1047 988 976.5 982 c 128,-1,17
 906 976 906 976 801 976 c 1,18,19
 984 892 984 892 984 711 c 0,20,21
 984 607 984 607 936.5 525.5 c 128,-1,22
 889 444 889 444 799.5 398.5 c 128,-1,23
 710 353 710 353 588 353 c 0,24,25
 536 353 536 353 500.5 357.5 c 128,-1,26
 465 362 465 362 431 373 c 1,27,28
 407 356 407 356 391.5 328.5 c 128,-1,29
 376 301 376 301 376 271 c 0,30,31
 376 230 376 230 408 206.5 c 128,-1,32
 440 183 440 183 517 183 c 2,33,-1
 707 183 l 2,34,35
 811 183 811 183 896.5 145.5 c 128,-1,36
 982 108 982 108 1030.5 42.5 c 128,-1,37
 1079 -23 1079 -23 1079 -103 c 0,38,39
 1079 -258 1079 -258 948 -341 c 128,-1,40
 817 -424 817 -424 576 -424 c 0,41,42
 410 -424 410 -424 312.5 -390 c 128,-1,43
 215 -356 215 -356 173 -286.5 c 128,-1,44
 131 -217 131 -217 131 -107 c 1,45,-1
 283 -107 l 1,46,47
 283 -172 283 -172 307.5 -210.5 c 128,-1,48
 332 -249 332 -249 395.5 -268 c 128,-1,49
 459 -287 459 -287 575 -287 c 0,50,51
 747 -287 747 -287 828 -244 c 128,-1,52
 909 -201 909 -201 909 -114 c 0,53,54
 909 -41 909 -41 843 -2 c 128,-1,55
 777 37 777 37 671 37 c 2,56,-1
 483 37 l 2,57,58
 396 37 396 37 336 64 c 128,-1,59
 276 91 276 91 247 136 c 128,-1,60
 218 181 218 181 218 235 c 0,61,62
 218 286 218 286 248 334 c 128,-1,63
 278 382 278 382 334 419 c 1,64,65
 243 467 243 467 200 538 c 128,-1,66
 157 609 157 609 157 710 c 0,67,68
 157 815 157 815 210.5 898.5 c 128,-1,69
 264 982 264 982 359.5 1029 c 128,-1,70
 455 1076 455 1076 577 1076 c 0,71,72
 704 1076 704 1076 787 1086.5 c 128,-1,73
 870 1097 870 1097 926.5 1115 c 128,-1,74
 983 1133 983 1133 1057 1165 c 1,75,-1
 1109 1007 l 1,15,16
391.5 887 m 128,-1,77
 329 821 329 821 329 710 c 0,78,79
 329 598 329 598 392.5 531.5 c 128,-1,80
 456 465 456 465 581 465 c 0,81,82
 691 465 691 465 750.5 529.5 c 128,-1,83
 810 594 810 594 810 711 c 0,84,85
 810 830 810 830 751 891.5 c 128,-1,86
 692 953 692 953 577 953 c 0,87,76
 454 953 454 953 391.5 887 c 128,-1,77
EndSplineSet
Validated: 1048577
EndChar

StartChar: h
Encoding: 104 104 178
Width: 1200
GlyphClass: 2
Flags: W
AnchorPoint: "Anchor-7" 600 1477 basechar 0
AnchorPoint: "Anchor-6" 600 0 basechar 0
LayerCount: 2
Fore
SplineSet
369 909 m 1,0,1
 430 989 430 989 519.5 1032 c 128,-1,2
 609 1075 609 1075 705 1075 c 0,3,4
 856 1075 856 1075 928.5 995 c 128,-1,5
 1001 915 1001 915 1001 765 c 2,6,-1
 1001 0 l 1,7,-1
 833 0 l 1,8,-1
 833 761 l 2,9,10
 833 855 833 855 789 899 c 128,-1,11
 745 943 745 943 651 943 c 0,12,13
 568 943 568 943 492 890.5 c 128,-1,14
 416 838 416 838 369 767 c 1,15,-1
 369 0 l 1,16,-1
 201 0 l 1,17,-1
 201 1475 l 1,18,-1
 369 1493 l 1,19,-1
 369 909 l 1,0,1
EndSplineSet
Validated: 1
EndChar

StartChar: hbar
Encoding: 295 295 179
Width: 1200
GlyphClass: 2
Flags: W
AnchorPoint: "Anchor-7" 600 1477 basechar 0
AnchorPoint: "Anchor-6" 600 0 basechar 0
LayerCount: 2
Fore
SplineSet
928.5 995 m 128,-1,1
 1001 915 1001 915 1001 765 c 2,2,-1
 1001 0 l 1,3,-1
 833 0 l 1,4,-1
 833 761 l 2,5,6
 833 855 833 855 789 899 c 128,-1,7
 745 943 745 943 651 943 c 0,8,9
 568 943 568 943 492 890.5 c 128,-1,10
 416 838 416 838 369 767 c 1,11,-1
 369 0 l 1,12,-1
 201 0 l 1,13,-1
 201 1195 l 1,14,-1
 39 1195 l 1,15,-1
 39 1329 l 1,16,-1
 201 1329 l 1,17,-1
 201 1475 l 1,18,-1
 369 1493 l 1,19,-1
 369 1329 l 1,20,-1
 707 1329 l 1,21,-1
 707 1195 l 1,22,-1
 369 1195 l 1,23,-1
 369 909 l 1,24,25
 430 989 430 989 519.5 1032 c 128,-1,26
 609 1075 609 1075 705 1075 c 0,27,0
 856 1075 856 1075 928.5 995 c 128,-1,1
EndSplineSet
Validated: 1
EndChar

StartChar: i
Encoding: 105 105 181
Width: 1200
GlyphClass: 2
Flags: W
AnchorPoint: "Anchor-6" 600 0 basechar 0
LayerCount: 2
Fore
SplineSet
689 1512.5 m 128,-1,1
 723 1479 723 1479 723 1429 c 0,2,3
 723 1377 723 1377 689 1343 c 128,-1,4
 655 1309 655 1309 600 1309 c 0,5,6
 547 1309 547 1309 513 1343.5 c 128,-1,7
 479 1378 479 1378 479 1429 c 0,8,9
 479 1479 479 1479 513 1512.5 c 128,-1,10
 547 1546 547 1546 600 1546 c 0,11,0
 655 1546 655 1546 689 1512.5 c 128,-1,1
251 1053 m 1,12,-1
 734 1053 l 1,13,-1
 734 133 l 1,14,-1
 1031 133 l 1,15,-1
 1031 0 l 1,16,-1
 241 0 l 1,17,-1
 241 133 l 1,18,-1
 566 133 l 1,19,-1
 566 920 l 1,20,-1
 251 920 l 1,21,-1
 251 1053 l 1,12,-1
EndSplineSet
Validated: 1048577
Substitution2: "Single Substitution lookup 221 subtable" i.salt_low
Substitution2: "'locl' Localized Forms in Latin lookup 22 subtable" i.loclTRK
Substitution2: "'locl' Localized Forms in Latin lookup 20 subtable" i.loclTRK
Substitution2: "'locl' Localized Forms in Latin lookup 18 subtable" i.loclTRK
Substitution2: "'locl' Localized Forms in Latin lookup 15 subtable" i.loclTRK
Substitution2: "'locl' Localized Forms in Latin lookup 14 subtable" i.loclTRK
AlternateSubs2: "'aalt' Access All Alternates lookup 1 subtable" i.loclTRK i.salt_low
EndChar

StartChar: dotlessi
Encoding: 305 305 182
Width: 1200
GlyphClass: 2
Flags: W
AnchorPoint: "Anchor-7" 603 1053 basechar 0
LayerCount: 2
Fore
SplineSet
251 1053 m 1,0,-1
 734 1053 l 1,1,-1
 734 133 l 1,2,-1
 1031 133 l 1,3,-1
 1031 0 l 1,4,-1
 241 0 l 1,5,-1
 241 133 l 1,6,-1
 566 133 l 1,7,-1
 566 920 l 1,8,-1
 251 920 l 1,9,-1
 251 1053 l 1,0,-1
EndSplineSet
Validated: 1048577
EndChar

StartChar: ij
Encoding: 307 307 189
Width: 1200
Flags: W
LayerCount: 2
Fore
SplineSet
456.5 1512.5 m 128,-1,1
 491 1479 491 1479 491 1429 c 0,2,3
 491 1378 491 1378 456.5 1343.5 c 128,-1,4
 422 1309 422 1309 369 1309 c 256,5,6
 316 1309 316 1309 281.5 1343.5 c 128,-1,7
 247 1378 247 1378 247 1429 c 0,8,9
 247 1479 247 1479 281.5 1512.5 c 128,-1,10
 316 1546 316 1546 369 1546 c 256,11,0
 422 1546 422 1546 456.5 1512.5 c 128,-1,1
984.5 1512.5 m 128,-1,13
 1019 1479 1019 1479 1019 1429 c 0,14,15
 1019 1378 1019 1378 985 1343.5 c 128,-1,16
 951 1309 951 1309 897 1309 c 0,17,18
 844 1309 844 1309 809.5 1343.5 c 128,-1,19
 775 1378 775 1378 775 1429 c 0,20,21
 775 1479 775 1479 809.5 1512.5 c 128,-1,22
 844 1546 844 1546 897 1546 c 256,23,12
 950 1546 950 1546 984.5 1512.5 c 128,-1,13
1001 109 m 2,24,25
 1001 -93 1001 -93 863.5 -220.5 c 128,-1,26
 726 -348 726 -348 490 -424 c 1,27,-1
 440 -293 l 1,28,29
 559 -247 559 -247 642.5 -199.5 c 128,-1,30
 726 -152 726 -152 781.5 -78 c 128,-1,31
 837 -4 837 -4 837 99 c 2,32,-1
 837 924 l 1,33,-1
 446 924 l 1,34,-1
 446 133 l 1,35,-1
 637 133 l 1,36,-1
 637 0 l 1,37,-1
 97 0 l 1,38,-1
 97 133 l 1,39,-1
 284 133 l 1,40,-1
 284 924 l 1,41,-1
 107 924 l 1,42,-1
 107 1053 l 1,43,-1
 1001 1053 l 1,44,-1
 1001 109 l 2,24,25
EndSplineSet
Validated: 1
EndChar

StartChar: iogonek
Encoding: 303 303 191
Width: 1200
GlyphClass: 2
Flags: W
AnchorPoint: "Anchor-7" 603 1053 basechar 0
LayerCount: 2
Fore
SplineSet
514 1343 m 128,-1,1
 480 1377 480 1377 480 1429 c 0,2,3
 480 1479 480 1479 514 1512.5 c 128,-1,4
 548 1546 548 1546 601 1546 c 0,5,6
 656 1546 656 1546 690 1512.5 c 128,-1,7
 724 1479 724 1479 724 1429 c 0,8,9
 724 1377 724 1377 690 1343 c 128,-1,10
 656 1309 656 1309 601 1309 c 0,11,0
 548 1309 548 1309 514 1343 c 128,-1,1
734 133 m 1,12,-1
 1031 133 l 1,13,-1
 1031 0 l 1,14,-1
 734 0 l 1,15,16
 635 -44 635 -44 580.5 -82.5 c 128,-1,17
 526 -121 526 -121 506 -155.5 c 128,-1,18
 486 -190 486 -190 486 -229 c 0,19,20
 486 -276 486 -276 512 -300.5 c 128,-1,21
 538 -325 538 -325 598 -325 c 0,22,23
 652 -325 652 -325 722 -311 c 1,24,-1
 704 -445 l 1,25,26
 668 -452 668 -452 641 -455.5 c 128,-1,27
 614 -459 614 -459 578 -459 c 0,28,29
 504 -459 504 -459 448.5 -433 c 128,-1,30
 393 -407 393 -407 363.5 -362.5 c 128,-1,31
 334 -318 334 -318 334 -262 c 0,32,33
 334 -181 334 -181 385 -116 c 128,-1,34
 436 -51 436 -51 543 0 c 1,35,-1
 241 0 l 1,36,-1
 241 133 l 1,37,-1
 566 133 l 1,38,-1
 566 920 l 1,39,-1
 251 920 l 1,40,-1
 251 1053 l 1,41,-1
 734 1053 l 1,42,-1
 734 133 l 1,12,-1
EndSplineSet
Validated: 1048577
EndChar

StartChar: j
Encoding: 106 106 193
Width: 1200
GlyphClass: 2
Flags: W
AnchorPoint: "Anchor-7" 735 1053 basechar 0
LayerCount: 2
Fore
SplineSet
822.5 1512.5 m 128,-1,1
 857 1479 857 1479 857 1429 c 0,2,3
 857 1377 857 1377 822.5 1343 c 128,-1,4
 788 1309 788 1309 733 1309 c 0,5,6
 680 1309 680 1309 646.5 1343 c 128,-1,7
 613 1377 613 1377 613 1429 c 0,8,9
 613 1479 613 1479 646.5 1512.5 c 128,-1,10
 680 1546 680 1546 733 1546 c 0,11,0
 788 1546 788 1546 822.5 1512.5 c 128,-1,1
890 169 m 2,12,13
 890 -86 890 -86 720 -227.5 c 128,-1,14
 550 -369 550 -369 219 -424 c 1,15,-1
 191 -294 l 1,16,17
 446 -252 446 -252 584 -147 c 128,-1,18
 722 -42 722 -42 722 158 c 2,19,-1
 722 920 l 1,20,-1
 284 920 l 1,21,-1
 284 1053 l 1,22,-1
 890 1053 l 1,23,-1
 890 169 l 2,12,13
EndSplineSet
Validated: 1048577
Substitution2: "Single Substitution lookup 221 subtable" j.salt_low
Substitution2: "'aalt' Access All Alternates lookup 0 subtable" j.salt_low
EndChar

StartChar: uni0237
Encoding: 567 567 194
Width: 1200
GlyphClass: 2
Flags: W
AnchorPoint: "Anchor-7" 735 1053 basechar 0
LayerCount: 2
Fore
SplineSet
890 169 m 2,0,1
 890 -86 890 -86 720 -227.5 c 128,-1,2
 550 -369 550 -369 219 -424 c 1,3,-1
 191 -294 l 1,4,5
 446 -252 446 -252 584 -147 c 128,-1,6
 722 -42 722 -42 722 158 c 2,7,-1
 722 920 l 1,8,-1
 284 920 l 1,9,-1
 284 1053 l 1,10,-1
 890 1053 l 1,11,-1
 890 169 l 2,0,1
EndSplineSet
Validated: 1048577
EndChar

StartChar: k
Encoding: 107 107 196
Width: 1200
GlyphClass: 2
Flags: W
AnchorPoint: "Anchor-7" 600 1477 basechar 0
AnchorPoint: "Anchor-6" 611 0 basechar 0
LayerCount: 2
Fore
SplineSet
212 1477 m 1,0,-1
 380 1498 l 1,1,-1
 380 0 l 1,2,-1
 212 0 l 1,3,-1
 212 1477 l 1,0,-1
865 1053 m 1,4,-1
 1083 1053 l 1,5,-1
 609 579 l 1,6,-1
 1138 0 l 1,7,-1
 917 0 l 1,8,-1
 399 575 l 1,9,-1
 865 1053 l 1,4,-1
EndSplineSet
Validated: 1
EndChar

StartChar: kgreenlandic
Encoding: 312 312 198
Width: 1200
GlyphClass: 2
Flags: W
AnchorPoint: "Anchor-7" 600 1053 basechar 0
AnchorPoint: "Anchor-6" 600 0 basechar 0
LayerCount: 2
Fore
SplineSet
201 1053 m 1,0,-1
 369 1053 l 1,1,-1
 369 0 l 1,2,-1
 201 0 l 1,3,-1
 201 1053 l 1,0,-1
854 1053 m 1,4,-1
 1072 1053 l 1,5,-1
 594 576 l 1,6,-1
 1127 0 l 1,7,-1
 905 0 l 1,8,-1
 387 565 l 1,9,-1
 854 1053 l 1,4,-1
EndSplineSet
Validated: 1
EndChar

StartChar: l
Encoding: 108 108 199
Width: 1200
GlyphClass: 2
Flags: W
AnchorPoint: "Anchor-7" 530 1477 basechar 0
AnchorPoint: "Anchor-6" 721 0 basechar 0
LayerCount: 2
Fore
SplineSet
611 260 m 2,0,1
 611 186 611 186 657.5 151.5 c 128,-1,2
 704 117 704 117 785 117 c 0,3,4
 870 117 870 117 962 154 c 1,5,-1
 1007 31 l 1,6,7
 959 7 959 7 895 -8 c 128,-1,8
 831 -23 831 -23 757 -23 c 0,9,10
 664 -23 664 -23 592.5 12 c 128,-1,11
 521 47 521 47 482 113 c 128,-1,12
 443 179 443 179 443 269 c 2,13,-1
 443 1344 l 1,14,-1
 120 1344 l 1,15,-1
 120 1477 l 1,16,-1
 611 1477 l 1,17,-1
 611 260 l 2,0,1
EndSplineSet
Validated: 1
Substitution2: "Single Substitution lookup 221 subtable" l.salt_low
Substitution2: "'aalt' Access All Alternates lookup 0 subtable" l.salt_low
EndChar

StartChar: lslash
Encoding: 322 322 204
Width: 1200
GlyphClass: 2
Flags: W
AnchorPoint: "Anchor-7" 530 1477 basechar 0
AnchorPoint: "Anchor-6" 721 0 basechar 0
LayerCount: 2
Fore
SplineSet
1007 31 m 1,0,1
 959 7 959 7 895 -8 c 128,-1,2
 831 -23 831 -23 757 -23 c 0,3,4
 664 -23 664 -23 592.5 12 c 128,-1,5
 521 47 521 47 482 113 c 128,-1,6
 443 179 443 179 443 269 c 2,7,-1
 443 612 l 1,8,-1
 308 529 l 1,9,-1
 237 638 l 1,10,-1
 443 762 l 1,11,-1
 443 1344 l 1,12,-1
 120 1344 l 1,13,-1
 120 1477 l 1,14,-1
 611 1477 l 1,15,-1
 611 866 l 1,16,-1
 791 978 l 1,17,-1
 862 869 l 1,18,-1
 611 715 l 1,19,-1
 611 260 l 2,20,21
 611 186 611 186 657.5 151.5 c 128,-1,22
 704 117 704 117 785 117 c 0,23,24
 870 117 870 117 962 154 c 1,25,-1
 1007 31 l 1,0,1
EndSplineSet
Validated: 1
EndChar

StartChar: m
Encoding: 109 109 205
Width: 1200
GlyphClass: 2
Flags: W
AnchorPoint: "Anchor-7" 600 1053 basechar 0
AnchorPoint: "Anchor-6" 600 0 basechar 0
LayerCount: 2
Fore
SplineSet
1042 1012.5 m 128,-1,1
 1099 950 1099 950 1099 784 c 2,2,-1
 1099 0 l 1,3,-1
 943 0 l 1,4,-1
 943 757 l 2,5,6
 943 832 943 832 938 869.5 c 128,-1,7
 933 907 933 907 916 925.5 c 128,-1,8
 899 944 899 944 862 944 c 0,9,10
 759 944 759 944 678 818 c 1,11,-1
 678 0 l 1,12,-1
 521 0 l 1,13,-1
 521 757 l 2,14,15
 521 832 521 832 516 869.5 c 128,-1,16
 511 907 511 907 494 925.5 c 128,-1,17
 477 944 477 944 440 944 c 0,18,19
 337 944 337 944 256 818 c 1,20,-1
 256 0 l 1,21,-1
 101 0 l 1,22,-1
 101 1053 l 1,23,-1
 233 1053 l 1,24,-1
 243 931 l 1,25,26
 291 1000 291 1000 345 1037.5 c 128,-1,27
 399 1075 399 1075 472 1075 c 0,28,29
 621 1075 621 1075 663 936 c 1,30,31
 710 1004 710 1004 764.5 1039.5 c 128,-1,32
 819 1075 819 1075 895 1075 c 0,33,0
 985 1075 985 1075 1042 1012.5 c 128,-1,1
EndSplineSet
Validated: 1
EndChar

StartChar: n
Encoding: 110 110 206
Width: 1200
GlyphClass: 2
Flags: W
AnchorPoint: "Anchor-7" 600 1053 basechar 0
AnchorPoint: "Anchor-6" 602 0 basechar 0
LayerCount: 2
Fore
SplineSet
201 0 m 1,0,-1
 201 1053 l 1,1,-1
 344 1053 l 1,2,-1
 357 907 l 1,3,4
 420 986 420 986 515.5 1030.5 c 128,-1,5
 611 1075 611 1075 705 1075 c 0,6,7
 856 1075 856 1075 928.5 995 c 128,-1,8
 1001 915 1001 915 1001 765 c 2,9,-1
 1001 0 l 1,10,-1
 833 0 l 1,11,-1
 833 641 l 2,12,13
 833 759 833 759 820.5 821 c 128,-1,14
 808 883 808 883 769.5 913 c 128,-1,15
 731 943 731 943 653 943 c 0,16,17
 568 943 568 943 492.5 890.5 c 128,-1,18
 417 838 417 838 369 767 c 1,19,-1
 369 0 l 1,20,-1
 201 0 l 1,0,-1
EndSplineSet
Validated: 1
EndChar

StartChar: napostrophe
Encoding: 329 329 208
Width: 1200
GlyphClass: 2
Flags: W
AnchorPoint: "Anchor-7" 617 1053 basechar 0
AnchorPoint: "Anchor-6" 619 0 basechar 0
LayerCount: 2
Fore
SplineSet
204.5 1472.5 m 128,-1,1
 236 1442 236 1442 236 1396 c 0,2,3
 236 1371 236 1371 225.5 1339.5 c 128,-1,4
 215 1308 215 1308 183 1241 c 2,5,-1
 101 1068 l 1,6,-1
 1 1068 l 1,7,-1
 61 1305 l 1,8,9
 15 1347 15 1347 15 1396 c 0,10,11
 15 1442 15 1442 48 1472.5 c 128,-1,12
 81 1503 81 1503 127 1503 c 256,13,0
 173 1503 173 1503 204.5 1472.5 c 128,-1,1
218 0 m 1,14,-1
 218 1053 l 1,15,-1
 362 1053 l 1,16,-1
 374 907 l 1,17,18
 437 986 437 986 532.5 1030.5 c 128,-1,19
 628 1075 628 1075 722 1075 c 0,20,21
 873 1075 873 1075 946 995 c 128,-1,22
 1019 915 1019 915 1019 765 c 2,23,-1
 1019 0 l 1,24,-1
 851 0 l 1,25,-1
 851 641 l 2,26,27
 851 758 851 758 838 820.5 c 128,-1,28
 825 883 825 883 786.5 913 c 128,-1,29
 748 943 748 943 670 943 c 0,30,31
 585 943 585 943 510 891 c 128,-1,32
 435 839 435 839 386 767 c 1,33,-1
 386 0 l 1,34,-1
 218 0 l 1,14,-1
EndSplineSet
Validated: 1
Ligature2: "'locl' Localized Forms in Latin lookup 23 subtable" quotesingle n
Ligature2: "'locl' Localized Forms in Latin lookup 23 subtable" quoteright n
EndChar

StartChar: eng
Encoding: 331 331 211
Width: 1200
Flags: W
LayerCount: 2
Fore
SplineSet
1001 57 m 2,0,1
 1001 -88 1001 -88 968 -176 c 128,-1,2
 935 -264 935 -264 870.5 -317 c 128,-1,3
 806 -370 806 -370 692 -421 c 1,4,-1
 629 -299 l 1,5,6
 707 -263 707 -263 748.5 -228 c 128,-1,7
 790 -193 790 -193 811.5 -129.5 c 128,-1,8
 833 -66 833 -66 833 46 c 2,9,-1
 833 641 l 2,10,11
 833 759 833 759 821 821 c 128,-1,12
 809 883 809 883 770 913 c 128,-1,13
 731 943 731 943 651 943 c 0,14,15
 568 943 568 943 492 890.5 c 128,-1,16
 416 838 416 838 369 767 c 1,17,-1
 369 0 l 1,18,-1
 201 0 l 1,19,-1
 201 1053 l 1,20,-1
 344 1053 l 1,21,-1
 357 907 l 1,22,23
 420 986 420 986 514.5 1030.5 c 128,-1,24
 609 1075 609 1075 705 1075 c 0,25,26
 856 1075 856 1075 928.5 995 c 128,-1,27
 1001 915 1001 915 1001 765 c 2,28,-1
 1001 57 l 2,0,1
EndSplineSet
Validated: 1
EndChar

StartChar: o
Encoding: 111 111 213
Width: 1200
GlyphClass: 2
Flags: W
AnchorPoint: "Anchor-7" 600 1053 basechar 0
AnchorPoint: "Anchor-6" 600 0 basechar 0
LayerCount: 2
Fore
SplineSet
849 1008.5 m 128,-1,1
 950 942 950 942 1001.5 818.5 c 128,-1,2
 1053 695 1053 695 1053 527 c 0,3,4
 1053 364 1053 364 1000.5 240 c 128,-1,5
 948 116 948 116 846 46.5 c 128,-1,6
 744 -23 744 -23 600 -23 c 0,7,8
 454 -23 454 -23 352.5 44.5 c 128,-1,9
 251 112 251 112 199 235 c 128,-1,10
 147 358 147 358 147 525 c 0,11,12
 147 689 147 689 199.5 813 c 128,-1,13
 252 937 252 937 354.5 1006 c 128,-1,14
 457 1075 457 1075 602 1075 c 0,15,0
 748 1075 748 1075 849 1008.5 c 128,-1,1
396 836.5 m 128,-1,17
 327 735 327 735 327 525 c 0,18,19
 327 318 327 318 395 216.5 c 128,-1,20
 463 115 463 115 600 115 c 256,21,22
 737 115 737 115 805 216.5 c 128,-1,23
 873 318 873 318 873 527 c 0,24,25
 873 735 873 735 805 836.5 c 128,-1,26
 737 938 737 938 602 938 c 0,27,16
 465 938 465 938 396 836.5 c 128,-1,17
EndSplineSet
Validated: 1
Substitution2: "Single Substitution lookup 143 subtable" ordmasculine
Substitution2: "'aalt' Access All Alternates lookup 0 subtable" ordmasculine
EndChar

StartChar: oslash
Encoding: 248 248 221
Width: 1200
GlyphClass: 2
Flags: W
AnchorPoint: "Anchor-7" 600 1053 basechar 0
LayerCount: 2
Fore
SplineSet
833 1015 m 1,0,1
 940 951 940 951 996.5 825 c 128,-1,2
 1053 699 1053 699 1053 527 c 0,3,4
 1053 364 1053 364 1000.5 240 c 128,-1,5
 948 116 948 116 846 46.5 c 128,-1,6
 744 -23 744 -23 600 -23 c 0,7,8
 544 -23 544 -23 500 -13 c 1,9,-1
 426 -261 l 1,10,-1
 286 -219 l 1,11,-1
 370 36 l 1,12,13
 263 101 263 101 205 227.5 c 128,-1,14
 147 354 147 354 147 525 c 0,15,16
 147 689 147 689 199.5 813 c 128,-1,17
 252 937 252 937 354.5 1006 c 128,-1,18
 457 1075 457 1075 602 1075 c 0,19,20
 654 1075 654 1075 699 1066 c 1,21,-1
 776 1308 l 1,22,-1
 917 1267 l 1,23,-1
 833 1015 l 1,0,1
396.5 835.5 m 128,-1,25
 328 734 328 734 328 525 c 0,26,27
 328 389 328 389 354 302 c 128,-1,28
 380 215 380 215 432 170 c 1,29,-1
 668 931 l 1,30,31
 636 937 636 937 602 937 c 0,32,24
 465 937 465 937 396.5 835.5 c 128,-1,25
804.5 217 m 128,-1,34
 872 318 872 318 872 527 c 0,35,36
 872 663 872 663 846.5 750 c 128,-1,37
 821 837 821 837 769 883 c 1,38,-1
 534 122 l 1,39,40
 566 116 566 116 600 116 c 0,41,33
 737 116 737 116 804.5 217 c 128,-1,34
EndSplineSet
Validated: 1048577
EndChar

StartChar: oe
Encoding: 339 339 224
Width: 1200
Flags: W
LayerCount: 2
Fore
SplineSet
1149 941 m 128,-1,1
 1230 807 1230 807 1230 559 c 0,2,3
 1230 517 1230 517 1226 465 c 1,4,-1
 700 465 l 1,5,6
 714 284 714 284 765.5 201 c 128,-1,7
 817 118 817 118 919 118 c 0,8,9
 972 118 972 118 1014 136.5 c 128,-1,10
 1056 155 1056 155 1112 197 c 1,11,-1
 1189 82 l 1,12,13
 1123 30 1123 30 1059.5 3.5 c 128,-1,14
 996 -23 996 -23 917 -23 c 0,15,16
 808 -23 808 -23 732.5 29.5 c 128,-1,17
 657 82 657 82 617 180 c 1,18,19
 576 81 576 81 510.5 29 c 128,-1,20
 445 -23 445 -23 334 -23 c 0,21,22
 164 -23 164 -23 79.5 122.5 c 128,-1,23
 -5 268 -5 268 -5 525 c 0,24,25
 -5 781 -5 781 78.5 928 c 128,-1,26
 162 1075 162 1075 334 1075 c 0,27,28
 451 1075 451 1075 516.5 1022.5 c 128,-1,29
 582 970 582 970 619 869 c 1,30,31
 658 965 658 965 725.5 1020 c 128,-1,32
 793 1075 793 1075 899 1075 c 0,33,0
 1068 1075 1068 1075 1149 941 c 128,-1,1
216.5 839.5 m 128,-1,35
 174 739 174 739 174 525 c 0,36,37
 174 379 174 379 192.5 289.5 c 128,-1,38
 211 200 211 200 250.5 157.5 c 128,-1,39
 290 115 290 115 355 115 c 0,40,41
 421 115 421 115 459 155.5 c 128,-1,42
 497 196 497 196 514 285 c 128,-1,43
 531 374 531 374 531 527 c 0,44,45
 531 670 531 670 513.5 760.5 c 128,-1,46
 496 851 496 851 457.5 895.5 c 128,-1,47
 419 940 419 940 355 940 c 0,48,34
 259 940 259 940 216.5 839.5 c 128,-1,35
792.5 903 m 128,-1,50
 753 870 753 870 731 796 c 128,-1,51
 709 722 709 722 700 597 c 1,52,-1
 1066 597 l 1,53,54
 1063 714 1063 714 1047 787.5 c 128,-1,55
 1031 861 1031 861 994 898.5 c 128,-1,56
 957 936 957 936 893 936 c 0,57,49
 832 936 832 936 792.5 903 c 128,-1,50
EndSplineSet
Validated: 1
EndChar

StartChar: p
Encoding: 112 112 225
Width: 1200
GlyphClass: 2
Flags: W
AnchorPoint: "Anchor-7" 600 1053 basechar 0
AnchorPoint: "Anchor-6" 600 0 basechar 0
LayerCount: 2
Fore
SplineSet
963.5 932 m 128,-1,1
 1053 789 1053 789 1053 527 c 0,2,3
 1053 364 1053 364 1008 240.5 c 128,-1,4
 963 117 963 117 871.5 47 c 128,-1,5
 780 -23 780 -23 647 -23 c 0,6,7
 473 -23 473 -23 369 99 c 1,8,-1
 369 -403 l 1,9,-1
 201 -424 l 1,10,-1
 201 1053 l 1,11,-1
 344 1053 l 1,12,-1
 358 906 l 1,13,14
 416 988 416 988 496.5 1031.5 c 128,-1,15
 577 1075 577 1075 672 1075 c 0,16,0
 874 1075 874 1075 963.5 932 c 128,-1,1
484.5 892 m 128,-1,18
 418 844 418 844 369 771 c 1,19,-1
 369 249 l 1,20,21
 411 187 411 187 473.5 152 c 128,-1,22
 536 117 536 117 610 117 c 0,23,24
 742 117 742 117 807.5 218 c 128,-1,25
 873 319 873 319 873 528 c 0,26,27
 873 736 873 736 814 838 c 128,-1,28
 755 940 755 940 632 940 c 0,29,17
 551 940 551 940 484.5 892 c 128,-1,18
EndSplineSet
Validated: 1
EndChar

StartChar: thorn
Encoding: 254 254 226
Width: 1200
GlyphClass: 2
Flags: W
AnchorPoint: "Anchor-7" 600 1477 basechar 0
AnchorPoint: "Anchor-6" 600 -399 basechar 0
LayerCount: 2
Fore
SplineSet
369 923 m 1,0,1
 427 997 427 997 505 1036 c 128,-1,2
 583 1075 583 1075 672 1075 c 0,3,4
 874 1075 874 1075 963.5 932 c 128,-1,5
 1053 789 1053 789 1053 527 c 0,6,7
 1053 364 1053 364 1008 240.5 c 128,-1,8
 963 117 963 117 871.5 47 c 128,-1,9
 780 -23 780 -23 647 -23 c 0,10,11
 473 -23 473 -23 369 99 c 1,12,-1
 369 -403 l 1,13,-1
 201 -424 l 1,14,-1
 201 1477 l 1,15,-1
 369 1498 l 1,16,-1
 369 923 l 1,0,1
484.5 892 m 128,-1,18
 418 844 418 844 369 771 c 1,19,-1
 369 249 l 1,20,21
 411 187 411 187 473.5 152 c 128,-1,22
 536 117 536 117 610 117 c 0,23,24
 742 117 742 117 807.5 218 c 128,-1,25
 873 319 873 319 873 528 c 0,26,27
 873 736 873 736 814 838 c 128,-1,28
 755 940 755 940 632 940 c 0,29,17
 551 940 551 940 484.5 892 c 128,-1,18
EndSplineSet
Validated: 1
EndChar

StartChar: q
Encoding: 113 113 227
Width: 1200
GlyphClass: 2
Flags: W
AnchorPoint: "Anchor-7" 600 1053 basechar 0
AnchorPoint: "Anchor-6" 600 0 basechar 0
LayerCount: 2
Fore
SplineSet
842 938 m 1,1,-1
 856 1053 l 1,2,-1
 999 1053 l 1,3,-1
 999 -424 l 1,4,-1
 831 -403 l 1,5,-1
 831 133 l 1,6,7
 775 54 775 54 699 15.5 c 128,-1,8
 623 -23 623 -23 535 -23 c 0,9,10
 331 -23 331 -23 239 120 c 128,-1,11
 147 263 147 263 147 525 c 0,12,13
 147 685 147 685 193.5 809.5 c 128,-1,14
 240 934 240 934 330.5 1004.5 c 128,-1,15
 421 1075 421 1075 548 1075 c 0,16,0
 733 1075 733 1075 842 938 c 1,1,-1
327 525 m 0,18,19
 327 320 327 320 387.5 218.5 c 128,-1,20
 448 117 448 117 570 117 c 0,21,22
 652 117 652 117 717.5 162 c 128,-1,23
 783 207 783 207 831 279 c 1,24,-1
 831 805 l 1,25,26
 790 869 790 869 727 904.5 c 128,-1,27
 664 940 664 940 590 940 c 0,28,17
 327 940 327 940 327 525 c 0,18,19
EndSplineSet
Validated: 1
EndChar

StartChar: r
Encoding: 114 114 228
Width: 1200
GlyphClass: 2
Flags: W
AnchorPoint: "Anchor-7" 661 1053 basechar 0
AnchorPoint: "Anchor-6" 459 0 basechar 0
LayerCount: 2
Fore
SplineSet
987 1070.5 m 128,-1,1
 1021 1065 1021 1065 1061 1053 c 1,2,-1
 1037 697 l 1,3,-1
 899 697 l 1,4,-1
 899 921 l 1,5,-1
 890 921 l 2,6,7
 768 921 768 921 682 835 c 128,-1,8
 596 749 596 749 543 575 c 1,9,-1
 543 129 l 1,10,-1
 757 129 l 1,11,-1
 757 0 l 1,12,-1
 211 0 l 1,13,-1
 211 129 l 1,14,-1
 375 129 l 1,15,-1
 375 924 l 1,16,-1
 211 924 l 1,17,-1
 211 1053 l 1,18,-1
 503 1053 l 1,19,-1
 534 804 l 1,20,21
 598 941 598 941 686.5 1008.5 c 128,-1,22
 775 1076 775 1076 912 1076 c 0,23,0
 953 1076 953 1076 987 1070.5 c 128,-1,1
EndSplineSet
Validated: 1
Substitution2: "'ss01' Style Set 1 lookup 129 subtable" r.ss01
Substitution2: "'salt' Stylistic Alternatives lookup 128 subtable" r.ss01
Substitution2: "'aalt' Access All Alternates lookup 0 subtable" r.ss01
EndChar

StartChar: s
Encoding: 115 115 232
Width: 1200
GlyphClass: 2
Flags: W
AnchorPoint: "Anchor-7" 615 1053 basechar 0
AnchorPoint: "Anchor-6" 593 0 basechar 0
LayerCount: 2
Fore
SplineSet
750.5 161 m 128,-1,1
 821 206 821 206 821 283 c 0,2,3
 821 335 821 335 802.5 368.5 c 128,-1,4
 784 402 784 402 729.5 430 c 128,-1,5
 675 458 675 458 566 485 c 0,6,7
 445 515 445 515 368.5 550.5 c 128,-1,8
 292 586 292 586 249.5 643 c 128,-1,9
 207 700 207 700 207 788 c 0,10,11
 207 875 207 875 257 940 c 128,-1,12
 307 1005 307 1005 397.5 1040 c 128,-1,13
 488 1075 488 1075 607 1075 c 256,14,15
 726 1075 726 1075 821.5 1043.5 c 128,-1,16
 917 1012 917 1012 989 959 c 1,17,-1
 915 845 l 1,18,19
 849 890 849 890 776.5 914.5 c 128,-1,20
 704 939 704 939 609 939 c 0,21,22
 490 939 490 939 435.5 902.5 c 128,-1,23
 381 866 381 866 381 801 c 0,24,25
 381 754 381 754 406.5 724 c 128,-1,26
 432 694 432 694 489.5 670.5 c 128,-1,27
 547 647 547 647 661 616 c 256,28,29
 775 585 775 585 848 547 c 128,-1,30
 921 509 921 509 962 447.5 c 128,-1,31
 1003 386 1003 386 1003 291 c 0,32,33
 1003 184 1003 184 941 113.5 c 128,-1,34
 879 43 879 43 778.5 10 c 128,-1,35
 678 -23 678 -23 559 -23 c 0,36,37
 311 -23 311 -23 147 119 c 1,38,-1
 243 230 l 1,39,40
 307 176 307 176 388 146 c 128,-1,41
 469 116 469 116 559 116 c 0,42,0
 680 116 680 116 750.5 161 c 128,-1,1
EndSplineSet
Validated: 1
EndChar

StartChar: scedilla
Encoding: 351 351 235
Width: 1200
GlyphClass: 2
Flags: W
AnchorPoint: "Anchor-7" 615 1053 basechar 0
AnchorPoint: "Anchor-6" 593 0 basechar 0
LayerCount: 2
Fore
SplineSet
898.5 72.5 m 128,-1,1
 794 -5 794 -5 633 -20 c 1,2,-1
 633 -114 l 1,3,4
 726 -122 726 -122 772 -169 c 128,-1,5
 818 -216 818 -216 818 -281 c 0,6,7
 818 -344 818 -344 785 -388 c 128,-1,8
 752 -432 752 -432 696 -454.5 c 128,-1,9
 640 -477 640 -477 574 -477 c 0,10,11
 515 -477 515 -477 460 -464 c 128,-1,12
 405 -451 405 -451 365 -428 c 1,13,-1
 419 -331 l 1,14,15
 447 -346 447 -346 484 -354.5 c 128,-1,16
 521 -363 521 -363 554 -363 c 0,17,18
 674 -363 674 -363 674 -281 c 0,19,20
 674 -230 674 -230 631.5 -212.5 c 128,-1,21
 589 -195 589 -195 500 -195 c 1,22,-1
 514 -22 l 1,23,24
 294 -9 294 -9 147 119 c 1,25,-1
 243 230 l 1,26,27
 307 176 307 176 388 146 c 128,-1,28
 469 116 469 116 559 116 c 0,29,30
 680 116 680 116 750.5 161 c 128,-1,31
 821 206 821 206 821 283 c 0,32,33
 821 335 821 335 802.5 368.5 c 128,-1,34
 784 402 784 402 729.5 430 c 128,-1,35
 675 458 675 458 566 485 c 0,36,37
 445 515 445 515 368.5 550.5 c 128,-1,38
 292 586 292 586 249.5 643 c 128,-1,39
 207 700 207 700 207 788 c 0,40,41
 207 875 207 875 257 940 c 128,-1,42
 307 1005 307 1005 397.5 1040 c 128,-1,43
 488 1075 488 1075 607 1075 c 256,44,45
 726 1075 726 1075 821.5 1043.5 c 128,-1,46
 917 1012 917 1012 989 959 c 1,47,-1
 915 845 l 1,48,49
 849 890 849 890 776.5 914.5 c 128,-1,50
 704 939 704 939 609 939 c 0,51,52
 490 939 490 939 435.5 902.5 c 128,-1,53
 381 866 381 866 381 801 c 0,54,55
 381 754 381 754 406.5 724 c 128,-1,56
 432 694 432 694 489.5 670.5 c 128,-1,57
 547 647 547 647 661 616 c 256,58,59
 775 585 775 585 848 547 c 128,-1,60
 921 509 921 509 962 447.5 c 128,-1,61
 1003 386 1003 386 1003 291 c 0,62,0
 1003 150 1003 150 898.5 72.5 c 128,-1,1
EndSplineSet
Validated: 1
Substitution2: "'locl' Localized Forms in Latin lookup 17 subtable" uni0219
Substitution2: "'locl' Localized Forms in Latin lookup 16 subtable" uni0219
Substitution2: "'aalt' Access All Alternates lookup 0 subtable" uni0219
EndChar

StartChar: germandbls
Encoding: 223 223 238
Width: 1200
Flags: W
LayerCount: 2
Fore
SplineSet
774 1461.5 m 128,-1,1
 853 1425 853 1425 897 1360 c 128,-1,2
 941 1295 941 1295 941 1211 c 0,3,4
 941 1160 941 1160 922.5 1120.5 c 128,-1,5
 904 1081 904 1081 877 1053.5 c 128,-1,6
 850 1026 850 1026 808 991 c 0,7,8
 759 949 759 949 736.5 921.5 c 128,-1,9
 714 894 714 894 714 857 c 0,10,11
 714 823 714 823 733.5 795 c 128,-1,12
 753 767 753 767 782.5 744.5 c 128,-1,13
 812 722 812 722 866 688 c 0,14,15
 944 638 944 638 994 597 c 128,-1,16
 1044 556 1044 556 1080 490.5 c 128,-1,17
 1116 425 1116 425 1116 334 c 0,18,19
 1116 222 1116 222 1065.5 141 c 128,-1,20
 1015 60 1015 60 930 18.5 c 128,-1,21
 845 -23 845 -23 743 -23 c 0,22,23
 592 -23 592 -23 485 46 c 1,24,-1
 553 161 l 1,25,26
 591 139 591 139 637.5 126 c 128,-1,27
 684 113 684 113 727 113 c 0,28,29
 831 113 831 113 888 166.5 c 128,-1,30
 945 220 945 220 945 325 c 0,31,32
 945 384 945 384 918.5 429 c 128,-1,33
 892 474 892 474 852.5 505 c 128,-1,34
 813 536 813 536 748 578 c 0,35,36
 682 620 682 620 642 651.5 c 128,-1,37
 602 683 602 683 575 729 c 128,-1,38
 548 775 548 775 548 837 c 0,39,40
 548 884 548 884 565.5 920.5 c 128,-1,41
 583 957 583 957 608.5 982 c 128,-1,42
 634 1007 634 1007 676 1041 c 0,43,44
 729 1083 729 1083 755 1115.5 c 128,-1,45
 781 1148 781 1148 781 1194 c 0,46,47
 781 1235 781 1235 762.5 1273.5 c 128,-1,48
 744 1312 744 1312 702 1337.5 c 128,-1,49
 660 1363 660 1363 592 1363 c 0,50,51
 476 1363 476 1363 418 1296 c 128,-1,52
 360 1229 360 1229 360 1078 c 2,53,-1
 360 0 l 1,54,-1
 192 0 l 1,55,-1
 192 1067 l 2,56,57
 192 1277 192 1277 297.5 1387.5 c 128,-1,58
 403 1498 403 1498 593 1498 c 0,59,0
 695 1498 695 1498 774 1461.5 c 128,-1,1
EndSplineSet
Validated: 1
EndChar

StartChar: t
Encoding: 116 116 239
Width: 1200
GlyphClass: 2
Flags: W
AnchorPoint: "Anchor-7" 485 1304 basechar 0
AnchorPoint: "Anchor-6" 743 0 basechar 0
LayerCount: 2
Fore
SplineSet
1037 53 m 1,0,1
 984 18 984 18 906.5 -2.5 c 128,-1,2
 829 -23 829 -23 755 -23 c 0,3,4
 644 -23 644 -23 564.5 17.5 c 128,-1,5
 485 58 485 58 443 130 c 128,-1,6
 401 202 401 202 401 295 c 2,7,-1
 401 923 l 1,8,-1
 159 923 l 1,9,-1
 159 1053 l 1,10,-1
 401 1053 l 1,11,-1
 401 1292 l 1,12,-1
 569 1312 l 1,13,-1
 569 1053 l 1,14,-1
 933 1053 l 1,15,-1
 913 923 l 1,16,-1
 569 923 l 1,17,-1
 569 297 l 2,18,19
 569 207 569 207 616.5 162 c 128,-1,20
 664 117 664 117 770 117 c 0,21,22
 877 117 877 117 972 167 c 1,23,-1
 1037 53 l 1,0,1
EndSplineSet
Validated: 1
EndChar

StartChar: tbar
Encoding: 359 359 240
Width: 1200
GlyphClass: 2
Flags: W
AnchorPoint: "Anchor-7" 485 1304 basechar 0
AnchorPoint: "Anchor-6" 743 0 basechar 0
LayerCount: 2
Fore
SplineSet
1037 53 m 1,0,1
 984 18 984 18 906.5 -2.5 c 128,-1,2
 829 -23 829 -23 755 -23 c 0,3,4
 644 -23 644 -23 564.5 17.5 c 128,-1,5
 485 58 485 58 443 130 c 128,-1,6
 401 202 401 202 401 295 c 2,7,-1
 401 575 l 1,8,-1
 181 575 l 1,9,-1
 181 704 l 1,10,-1
 401 704 l 1,11,-1
 401 923 l 1,12,-1
 159 923 l 1,13,-1
 159 1053 l 1,14,-1
 401 1053 l 1,15,-1
 401 1292 l 1,16,-1
 569 1312 l 1,17,-1
 569 1053 l 1,18,-1
 933 1053 l 1,19,-1
 913 923 l 1,20,-1
 569 923 l 1,21,-1
 569 704 l 1,22,-1
 915 704 l 1,23,-1
 915 575 l 1,24,-1
 569 575 l 1,25,-1
 569 297 l 2,26,27
 569 207 569 207 616.5 162 c 128,-1,28
 664 117 664 117 770 117 c 0,29,30
 877 117 877 117 972 167 c 1,31,-1
 1037 53 l 1,0,1
EndSplineSet
Validated: 1
EndChar

StartChar: uni0163
Encoding: 355 355 242
Width: 1200
GlyphClass: 2
Flags: W
AnchorPoint: "Anchor-7" 485 1304 basechar 0
AnchorPoint: "Anchor-6" 743 0 basechar 0
LayerCount: 2
Fore
SplineSet
783 -114 m 1,0,1
 876 -122 876 -122 922 -169 c 128,-1,2
 968 -216 968 -216 968 -281 c 0,3,4
 968 -344 968 -344 935 -388 c 128,-1,5
 902 -432 902 -432 846 -454.5 c 128,-1,6
 790 -477 790 -477 724 -477 c 0,7,8
 665 -477 665 -477 610 -464 c 128,-1,9
 555 -451 555 -451 515 -428 c 1,10,-1
 569 -331 l 1,11,12
 597 -346 597 -346 634 -354.5 c 128,-1,13
 671 -363 671 -363 704 -363 c 0,14,15
 824 -363 824 -363 824 -281 c 0,16,17
 824 -230 824 -230 781.5 -212.5 c 128,-1,18
 739 -195 739 -195 650 -195 c 1,19,-1
 664 -15 l 1,20,21
 539 8 539 8 470 91 c 128,-1,22
 401 174 401 174 401 295 c 2,23,-1
 401 923 l 1,24,-1
 159 923 l 1,25,-1
 159 1053 l 1,26,-1
 401 1053 l 1,27,-1
 401 1292 l 1,28,-1
 569 1312 l 1,29,-1
 569 1053 l 1,30,-1
 933 1053 l 1,31,-1
 913 923 l 1,32,-1
 569 923 l 1,33,-1
 569 297 l 2,34,35
 569 207 569 207 616.5 162 c 128,-1,36
 664 117 664 117 770 117 c 0,37,38
 877 117 877 117 972 167 c 1,39,-1
 1037 53 l 1,40,41
 989 21 989 21 921 1.5 c 128,-1,42
 853 -18 853 -18 783 -22 c 1,43,-1
 783 -114 l 1,0,1
EndSplineSet
Validated: 1
Substitution2: "'locl' Localized Forms in Latin lookup 17 subtable" uni021B
Substitution2: "'locl' Localized Forms in Latin lookup 16 subtable" uni021B
Substitution2: "'aalt' Access All Alternates lookup 0 subtable" uni021B
EndChar

StartChar: u
Encoding: 117 117 244
Width: 1200
GlyphClass: 2
Flags: W
AnchorPoint: "Anchor-7" 600 1053 basechar 0
LayerCount: 2
Fore
SplineSet
369 307 m 2,0,1
 369 204 369 204 411.5 157.5 c 128,-1,2
 454 111 454 111 546 111 c 0,3,4
 629 111 629 111 707.5 159 c 128,-1,5
 786 207 786 207 831 278 c 1,6,-1
 831 1053 l 1,7,-1
 999 1053 l 1,8,-1
 999 0 l 1,9,-1
 856 0 l 1,10,-1
 842 142 l 1,11,12
 781 64 781 64 690.5 20.5 c 128,-1,13
 600 -23 600 -23 505 -23 c 0,14,15
 354 -23 354 -23 277.5 57.5 c 128,-1,16
 201 138 201 138 201 287 c 2,17,-1
 201 1053 l 1,18,-1
 369 1053 l 1,19,-1
 369 307 l 2,0,1
EndSplineSet
Validated: 1048577
EndChar

StartChar: uogonek
Encoding: 371 371 252
Width: 1200
GlyphClass: 2
Flags: W
AnchorPoint: "Anchor-7" 600 1053 basechar 0
LayerCount: 2
Fore
SplineSet
999 0 m 1,0,1
 900 -44 900 -44 845.5 -82.5 c 128,-1,2
 791 -121 791 -121 771 -155.5 c 128,-1,3
 751 -190 751 -190 751 -229 c 0,4,5
 751 -276 751 -276 777 -300.5 c 128,-1,6
 803 -325 803 -325 863 -325 c 0,7,8
 917 -325 917 -325 987 -311 c 1,9,-1
 969 -445 l 1,10,11
 933 -452 933 -452 906 -455.5 c 128,-1,12
 879 -459 879 -459 843 -459 c 0,13,14
 769 -459 769 -459 713.5 -433 c 128,-1,15
 658 -407 658 -407 628.5 -362.5 c 128,-1,16
 599 -318 599 -318 599 -262 c 0,17,18
 599 -173 599 -173 661 -103 c 128,-1,19
 723 -33 723 -33 854 20 c 1,20,-1
 842 142 l 1,21,22
 781 64 781 64 690.5 20.5 c 128,-1,23
 600 -23 600 -23 505 -23 c 0,24,25
 354 -23 354 -23 277.5 57.5 c 128,-1,26
 201 138 201 138 201 287 c 2,27,-1
 201 1053 l 1,28,-1
 369 1053 l 1,29,-1
 369 307 l 2,30,31
 369 204 369 204 411.5 157.5 c 128,-1,32
 454 111 454 111 546 111 c 0,33,34
 629 111 629 111 707.5 159 c 128,-1,35
 786 207 786 207 831 278 c 1,36,-1
 831 1053 l 1,37,-1
 999 1053 l 1,38,-1
 999 0 l 1,0,1
EndSplineSet
Validated: 1048577
EndChar

StartChar: v
Encoding: 118 118 255
Width: 1200
GlyphClass: 2
Flags: W
AnchorPoint: "Anchor-7" 600 1053 basechar 0
AnchorPoint: "Anchor-6" 600 0 basechar 0
LayerCount: 2
Fore
SplineSet
905 1053 m 1,0,-1
 1079 1053 l 1,1,-1
 696 0 l 1,2,-1
 501 0 l 1,3,-1
 121 1053 l 1,4,-1
 299 1053 l 1,5,-1
 604 153 l 1,6,-1
 905 1053 l 1,0,-1
EndSplineSet
Validated: 1
EndChar

StartChar: w
Encoding: 119 119 256
Width: 1200
GlyphClass: 2
Flags: W
AnchorPoint: "Anchor-7" 600 1053 basechar 0
AnchorPoint: "Anchor-6" 600 0 basechar 0
LayerCount: 2
Fore
SplineSet
1165 1053 m 1,0,-1
 981 0 l 1,1,-1
 743 0 l 1,2,-1
 607 773 l 1,3,-1
 459 0 l 1,4,-1
 227 0 l 1,5,-1
 35 1053 l 1,6,-1
 207 1053 l 1,7,-1
 341 104 l 1,8,-1
 509 919 l 1,9,-1
 708 919 l 1,10,-1
 867 104 l 1,11,-1
 1001 1053 l 1,12,-1
 1165 1053 l 1,0,-1
EndSplineSet
Validated: 1
Substitution2: "Single Substitution lookup 177 subtable" w.spacer
Substitution2: "Single Substitution lookup 176 subtable" w_w_w.liga
AlternateSubs2: "'aalt' Access All Alternates lookup 1 subtable" w_w_w.liga w.spacer
EndChar

StartChar: x
Encoding: 120 120 261
Width: 1200
GlyphClass: 2
Flags: W
AnchorPoint: "Anchor-7" 600 1053 basechar 0
AnchorPoint: "Anchor-6" 600 0 basechar 0
LayerCount: 2
Fore
SplineSet
595 452 m 1,0,-1
 303 0 l 1,1,-1
 111 0 l 1,2,-1
 500 556 l 1,3,-1
 159 1053 l 1,4,-1
 358 1053 l 1,5,-1
 602 661 l 1,6,-1
 849 1053 l 1,7,-1
 1041 1053 l 1,8,-1
 701 563 l 1,9,-1
 1089 0 l 1,10,-1
 883 0 l 1,11,-1
 595 452 l 1,0,-1
EndSplineSet
Validated: 1
Substitution2: "Single Substitution lookup 205 subtable" x.multiply.tosf
Substitution2: "Single Substitution lookup 204 subtable" x.multiply
Substitution2: "Single Substitution lookup 203 subtable" x.multiply.tosf
Substitution2: "Single Substitution lookup 202 subtable" x.multiply
AlternateSubs2: "'aalt' Access All Alternates lookup 1 subtable" x.multiply x.multiply.tosf
EndChar

StartChar: y
Encoding: 121 121 262
Width: 1200
GlyphClass: 2
Flags: W
AnchorPoint: "Anchor-7" 600 1053 basechar 0
LayerCount: 2
Fore
SplineSet
707 -7 m 2,0,1
 666 -125 666 -125 609.5 -211 c 128,-1,2
 553 -297 553 -297 461.5 -353.5 c 128,-1,3
 370 -410 370 -410 237 -423 c 1,4,-1
 211 -289 l 1,5,6
 317 -271 317 -271 380.5 -235 c 128,-1,7
 444 -199 444 -199 480 -144 c 128,-1,8
 516 -89 516 -89 547 0 c 1,9,-1
 491 0 l 1,10,-1
 123 1053 l 1,11,-1
 303 1053 l 1,12,-1
 605 128 l 1,13,-1
 903 1053 l 1,14,-1
 1077 1053 l 1,15,-1
 707 -7 l 2,0,1
EndSplineSet
Validated: 1048577
EndChar

StartChar: z
Encoding: 122 122 267
Width: 1200
GlyphClass: 2
Flags: W
AnchorPoint: "Anchor-7" 621 1053 basechar 0
AnchorPoint: "Anchor-6" 600 0 basechar 0
LayerCount: 2
Fore
SplineSet
991 923 m 1,0,-1
 411 143 l 1,1,-1
 997 143 l 1,2,-1
 975 0 l 1,3,-1
 205 0 l 1,4,-1
 205 127 l 1,5,-1
 789 907 l 1,6,-1
 251 907 l 1,7,-1
 251 1053 l 1,8,-1
 991 1053 l 1,9,-1
 991 923 l 1,0,-1
EndSplineSet
Validated: 1
EndChar

StartChar: x.multiply
Encoding: 1114127 -1 276
Width: 1200
Flags: W
LayerCount: 2
Fore
SplineSet
600 757 m 1,0,-1
 895 1052 l 1,1,-1
 1002 945 l 1,2,-1
 707 650 l 1,3,-1
 1002 350 l 1,4,-1
 895 243 l 1,5,-1
 600 543 l 1,6,-1
 300 243 l 1,7,-1
 193 350 l 1,8,-1
 493 650 l 1,9,-1
 193 945 l 1,10,-1
 300 1052 l 1,11,-1
 600 757 l 1,0,-1
EndSplineSet
Validated: 1
Substitution2: "'onum' Oldstyle Figures lookup 12 subtable" x.multiply.tosf
Substitution2: "'aalt' Access All Alternates lookup 0 subtable" x.multiply.tosf
EndChar

StartChar: i.salt_low
Encoding: 1114128 -1 277
Width: 1200
GlyphClass: 2
Flags: W
AnchorPoint: "Anchor-6" 600 0 basechar 0
LayerCount: 2
Fore
SplineSet
689 1439.5 m 128,-1,1
 723 1406 723 1406 723 1356 c 0,2,3
 723 1304 723 1304 689.5 1270 c 128,-1,4
 656 1236 656 1236 600 1236 c 0,5,6
 547 1236 547 1236 513 1270 c 128,-1,7
 479 1304 479 1304 479 1356 c 0,8,9
 479 1406 479 1406 513 1439.5 c 128,-1,10
 547 1473 547 1473 600 1473 c 0,11,0
 655 1473 655 1473 689 1439.5 c 128,-1,1
251 971 m 1,12,-1
 734 971 l 1,13,-1
 734 133 l 1,14,-1
 1031 133 l 1,15,-1
 1031 0 l 1,16,-1
 241 0 l 1,17,-1
 241 133 l 1,18,-1
 566 133 l 1,19,-1
 566 839 l 1,20,-1
 251 839 l 1,21,-1
 251 971 l 1,12,-1
EndSplineSet
Validated: 1048577
EndChar

StartChar: j.salt_low
Encoding: 1114129 -1 278
Width: 1200
GlyphClass: 2
Flags: W
AnchorPoint: "Anchor-7" 735 1053 basechar 0
LayerCount: 2
Fore
SplineSet
822.5 1439.5 m 128,-1,1
 857 1406 857 1406 857 1356 c 0,2,3
 857 1304 857 1304 822.5 1270 c 128,-1,4
 788 1236 788 1236 733 1236 c 0,5,6
 680 1236 680 1236 646.5 1270 c 128,-1,7
 613 1304 613 1304 613 1356 c 0,8,9
 613 1406 613 1406 646.5 1439.5 c 128,-1,10
 680 1473 680 1473 733 1473 c 0,11,0
 788 1473 788 1473 822.5 1439.5 c 128,-1,1
890 169 m 2,12,13
 890 -86 890 -86 720 -227.5 c 128,-1,14
 550 -369 550 -369 219 -424 c 1,15,-1
 191 -294 l 1,16,17
 446 -252 446 -252 584 -147 c 128,-1,18
 722 -42 722 -42 722 158 c 2,19,-1
 722 839 l 1,20,-1
 284 839 l 1,21,-1
 284 971 l 1,22,-1
 890 971 l 1,23,-1
 890 169 l 2,12,13
EndSplineSet
Validated: 1048577
EndChar

StartChar: l.salt_low
Encoding: 1114130 -1 279
Width: 1200
GlyphClass: 2
Flags: W
AnchorPoint: "Anchor-7" 530 1377 basechar 0
AnchorPoint: "Anchor-6" 721 0 basechar 0
LayerCount: 2
Fore
SplineSet
611 260 m 2,0,1
 611 186 611 186 657.5 151.5 c 128,-1,2
 704 117 704 117 785 117 c 0,3,4
 870 117 870 117 962 154 c 1,5,-1
 1007 31 l 1,6,7
 959 7 959 7 895 -8 c 128,-1,8
 831 -23 831 -23 757 -23 c 0,9,10
 664 -23 664 -23 592.5 12 c 128,-1,11
 521 47 521 47 482 113 c 128,-1,12
 443 179 443 179 443 269 c 2,13,-1
 443 1228 l 1,14,-1
 120 1228 l 1,15,-1
 120 1377 l 1,16,-1
 611 1377 l 1,17,-1
 611 260 l 2,0,1
EndSplineSet
Validated: 1
EndChar

StartChar: r.ss01
Encoding: 1114134 -1 283
Width: 1200
GlyphClass: 2
Flags: W
AnchorPoint: "Anchor-7" 661 1053 basechar 0
AnchorPoint: "Anchor-6" 459 0 basechar 0
LayerCount: 2
Fore
SplineSet
211 0 m 1,0,-1
 211 129 l 1,1,-1
 375 129 l 1,2,-1
 375 924 l 1,3,-1
 211 924 l 1,4,-1
 211 1053 l 1,5,-1
 503 1053 l 1,6,-1
 534 804 l 1,7,8
 598 941 598 941 686.5 1008.5 c 128,-1,9
 775 1076 775 1076 912 1076 c 0,10,11
 953 1076 953 1076 987 1070.5 c 128,-1,12
 1021 1065 1021 1065 1061 1053 c 1,13,-1
 1012 903 l 1,14,15
 976 913 976 913 949.5 917 c 128,-1,16
 923 921 923 921 890 921 c 0,17,18
 768 921 768 921 682 835 c 128,-1,19
 596 749 596 749 543 575 c 1,20,-1
 543 129 l 1,21,-1
 757 129 l 1,22,-1
 757 0 l 1,23,-1
 211 0 l 1,0,-1
EndSplineSet
Validated: 1
EndChar

StartChar: w_w_w.liga
Encoding: 1114136 -1 285
Width: 1200
GlyphClass: 3
Flags: W
LayerCount: 2
Fore
SplineSet
706 104 m 1,0,-1
 841 1053 l 1,1,-1
 1003 1053 l 1,2,-1
 821 0 l 1,3,-1
 582 0 l 1,4,-1
 446 773 l 1,5,-1
 280 0 l 1,6,-1
 39 0 l 1,7,-1
 -85 773 l 1,8,-1
 -213 0 l 1,9,-1
 -461 0 l 1,10,-1
 -594 773 l 1,11,-1
 -737 0 l 1,12,-1
 -979 0 l 1,13,-1
 -1114 773 l 1,14,-1
 -1253 0 l 1,15,-1
 -1501 0 l 1,16,-1
 -1634 773 l 1,17,-1
 -1781 0 l 1,18,-1
 -2013 0 l 1,19,-1
 -2204 1053 l 1,20,-1
 -2033 1053 l 1,21,-1
 -1898 104 l 1,22,-1
 -1730 919 l 1,23,-1
 -1531 919 l 1,24,-1
 -1375 104 l 1,25,-1
 -1213 919 l 1,26,-1
 -1009 919 l 1,27,-1
 -855 104 l 1,28,-1
 -691 919 l 1,29,-1
 -491 919 l 1,30,-1
 -337 104 l 1,31,-1
 -183 919 l 1,32,-1
 21 919 l 1,33,-1
 161 104 l 1,34,-1
 350 919 l 1,35,-1
 549 919 l 1,36,-1
 706 104 l 1,0,-1
EndSplineSet
Validated: 1
EndChar

StartChar: ordfeminine
Encoding: 170 170 286
Width: 1200
Flags: W
LayerCount: 2
Fore
SplineSet
829 1425 m 128,-1,1
 913 1352 913 1352 913 1219 c 2,2,-1
 913 823 l 2,3,4
 913 779 913 779 929 756.5 c 128,-1,5
 945 734 945 734 979 723 c 1,6,-1
 941 614 l 1,7,8
 878 622 878 622 837.5 650 c 128,-1,9
 797 678 797 678 776 733 c 1,10,11
 727 677 727 677 656 646 c 128,-1,12
 585 615 585 615 508 615 c 0,13,14
 418 615 418 615 349 648 c 128,-1,15
 280 681 280 681 242 740.5 c 128,-1,16
 204 800 204 800 204 879 c 0,17,18
 204 1011 204 1011 318.5 1082 c 128,-1,19
 433 1153 433 1153 638 1153 c 2,20,-1
 755 1153 l 1,21,-1
 755 1213 l 2,22,23
 755 1295 755 1295 705 1332 c 128,-1,24
 655 1369 655 1369 557 1369 c 0,25,26
 511 1369 511 1369 447 1357 c 128,-1,27
 383 1345 383 1345 315 1321 c 1,28,-1
 269 1438 l 1,29,30
 426 1498 426 1498 580 1498 c 0,31,0
 745 1498 745 1498 829 1425 c 128,-1,1
639 1041 m 2,32,33
 373 1041 373 1041 373 887 c 0,34,35
 373 811 373 811 418 772 c 128,-1,36
 463 733 463 733 545 733 c 0,37,38
 605 733 605 733 661 763 c 128,-1,39
 717 793 717 793 755 845 c 1,40,-1
 755 1041 l 1,41,-1
 639 1041 l 2,32,33
211 151 m 1,42,-1
 997 151 l 1,43,-1
 997 0 l 1,44,-1
 211 0 l 1,45,-1
 211 151 l 1,42,-1
EndSplineSet
Validated: 1
EndChar

StartChar: ordmasculine
Encoding: 186 186 287
Width: 1200
Flags: W
LayerCount: 2
Fore
SplineSet
815 1444 m 128,-1,1
 907 1390 907 1390 956.5 1290 c 128,-1,2
 1006 1190 1006 1190 1006 1057 c 0,3,4
 1006 927 1006 927 956 827 c 128,-1,5
 906 727 906 727 814 671 c 128,-1,6
 722 615 722 615 600 615 c 0,7,8
 477 615 477 615 384.5 669.5 c 128,-1,9
 292 724 292 724 242 824.5 c 128,-1,10
 192 925 192 925 192 1057 c 0,11,12
 192 1186 192 1186 242.5 1286 c 128,-1,13
 293 1386 293 1386 385.5 1442 c 128,-1,14
 478 1498 478 1498 600 1498 c 0,15,0
 723 1498 723 1498 815 1444 c 128,-1,1
423 1291 m 128,-1,17
 360 1213 360 1213 360 1057 c 0,18,19
 360 900 360 900 423 821.5 c 128,-1,20
 486 743 486 743 600 743 c 0,21,22
 713 743 713 743 775.5 821.5 c 128,-1,23
 838 900 838 900 838 1057 c 256,24,25
 838 1214 838 1214 775.5 1291.5 c 128,-1,26
 713 1369 713 1369 600 1369 c 0,27,16
 486 1369 486 1369 423 1291 c 128,-1,17
209 151 m 1,28,-1
 994 151 l 1,29,-1
 994 0 l 1,30,-1
 209 0 l 1,31,-1
 209 151 l 1,28,-1
EndSplineSet
Validated: 1
EndChar

StartChar: uni207F
Encoding: 8319 8319 288
Width: 1200
Flags: W
LayerCount: 2
Fore
SplineSet
867 1240 m 2,1,-1
 867 756 l 1,2,-1
 724 756 l 1,3,-1
 724 1163 l 2,4,5
 724 1228 724 1228 717.5 1263 c 128,-1,6
 711 1298 711 1298 691 1315 c 128,-1,7
 671 1332 671 1332 631 1332 c 0,8,9
 589 1332 589 1332 548.5 1304 c 128,-1,10
 508 1276 508 1276 478 1237 c 1,11,-1
 478 756 l 1,12,-1
 335 756 l 1,13,-1
 335 1433 l 1,14,-1
 463 1433 l 1,15,-1
 469 1351 l 1,16,17
 507 1398 507 1398 560 1422 c 128,-1,18
 613 1446 613 1446 664 1446 c 0,19,0
 867 1446 867 1446 867 1240 c 2,1,-1
EndSplineSet
Validated: 1
EndChar

StartChar: uni0411
Encoding: 1041 1041 290
Width: 1200
GlyphClass: 2
Flags: W
AnchorPoint: "Anchor-3" 600 1377 basechar 0
AnchorPoint: "Anchor-2" 600 0 basechar 0
LayerCount: 2
Fore
SplineSet
971 1377 m 1,0,-1
 954 1233 l 1,1,-1
 375 1233 l 1,2,-1
 375 841 l 1,3,-1
 549 841 l 2,4,5
 807 841 807 841 946 740.5 c 128,-1,6
 1085 640 1085 640 1085 429 c 0,7,8
 1085 204 1085 204 943 102 c 128,-1,9
 801 0 801 0 551 0 c 2,10,-1
 201 0 l 1,11,-1
 201 1377 l 1,12,-1
 971 1377 l 1,0,-1
375 703 m 1,13,-1
 375 141 l 1,14,-1
 573 141 l 2,15,16
 677 141 677 141 748.5 165 c 128,-1,17
 820 189 820 189 861.5 252 c 128,-1,18
 903 315 903 315 903 427 c 0,19,20
 903 572 903 572 815 637.5 c 128,-1,21
 727 703 727 703 573 703 c 2,22,-1
 375 703 l 1,13,-1
EndSplineSet
Validated: 1
EndChar

StartChar: uni0413
Encoding: 1043 1043 292
Width: 1200
GlyphClass: 2
Flags: W
AnchorPoint: "Anchor-3" 697 1377 basechar 0
AnchorPoint: "Anchor-2" 359 0 basechar 0
LayerCount: 2
Fore
SplineSet
272 1377 m 1,0,-1
 1089 1377 l 1,1,-1
 1071 1225 l 1,2,-1
 445 1225 l 1,3,-1
 445 0 l 1,4,-1
 272 0 l 1,5,-1
 272 1377 l 1,0,-1
EndSplineSet
Validated: 1
EndChar

StartChar: uni0490
Encoding: 1168 1168 294
Width: 1200
GlyphClass: 2
Flags: W
AnchorPoint: "Anchor-3" 697 1377 basechar 0
AnchorPoint: "Anchor-2" 359 0 basechar 0
LayerCount: 2
Fore
SplineSet
919 1377 m 1,0,-1
 919 1669 l 1,1,-1
 1089 1669 l 1,2,-1
 1089 1377 l 1,3,-1
 1071 1225 l 1,4,-1
 445 1225 l 1,5,-1
 445 0 l 1,6,-1
 272 0 l 1,7,-1
 272 1377 l 1,8,-1
 919 1377 l 1,0,-1
EndSplineSet
Validated: 1
EndChar

StartChar: uni0414
Encoding: 1044 1044 295
Width: 1200
GlyphClass: 2
Flags: W
AnchorPoint: "Anchor-3" 600 1377 basechar 0
AnchorPoint: "Anchor-2" 600 -399 basechar 0
LayerCount: 2
Fore
SplineSet
1027 145 m 1,0,-1
 1129 145 l 1,1,-1
 1129 -294 l 1,2,-1
 991 -294 l 1,3,-1
 962 0 l 1,4,-1
 167 0 l 1,5,-1
 138 -294 l 1,6,-1
 0 -294 l 1,7,-1
 0 145 l 1,8,-1
 85 145 l 1,9,10
 136 195 136 195 164 267.5 c 128,-1,11
 192 340 192 340 212 461.5 c 128,-1,12
 232 583 232 583 271 875 c 2,13,-1
 285 981 l 1,14,-1
 337 1377 l 1,15,-1
 1027 1377 l 1,16,-1
 1027 145 l 1,0,-1
851 145 m 1,17,-1
 851 1230 l 1,18,-1
 489 1230 l 1,19,-1
 459 969 l 2,20,21
 422 650 422 650 400 509 c 128,-1,22
 378 368 378 368 345.5 284 c 128,-1,23
 313 200 313 200 253 145 c 1,24,-1
 851 145 l 1,17,-1
EndSplineSet
Validated: 1
EndChar

StartChar: uni0416
Encoding: 1046 1046 299
Width: 1200
GlyphClass: 2
Flags: W
AnchorPoint: "Anchor-3" 600 1377 basechar 0
AnchorPoint: "Anchor-2" 600 0 basechar 0
LayerCount: 2
Fore
SplineSet
523 0 m 1,0,-1
 523 653 l 1,1,-1
 399 653 l 1,2,-1
 192 0 l 1,3,-1
 24 0 l 1,4,-1
 269 729 l 1,5,-1
 53 1377 l 1,6,-1
 220 1377 l 1,7,-1
 401 795 l 1,8,-1
 523 795 l 1,9,-1
 523 1377 l 1,10,-1
 677 1377 l 1,11,-1
 677 795 l 1,12,-1
 799 795 l 1,13,-1
 982 1377 l 1,14,-1
 1147 1377 l 1,15,-1
 931 729 l 1,16,-1
 1176 0 l 1,17,-1
 1004 0 l 1,18,-1
 799 653 l 1,19,-1
 677 653 l 1,20,-1
 677 0 l 1,21,-1
 523 0 l 1,0,-1
EndSplineSet
Validated: 1
EndChar

StartChar: uni0417
Encoding: 1047 1047 300
Width: 1200
GlyphClass: 2
Flags: W
AnchorPoint: "Anchor-3" 596 1377 basechar 0
AnchorPoint: "Anchor-2" 587 0 basechar 0
LayerCount: 2
Fore
SplineSet
812 1354 m 128,-1,1
 919 1309 919 1309 977 1227.5 c 128,-1,2
 1035 1146 1035 1146 1035 1041 c 0,3,4
 1035 959 1035 959 997 897 c 128,-1,5
 959 835 959 835 894.5 797.5 c 128,-1,6
 830 760 830 760 750 749 c 1,7,8
 839 741 839 741 914.5 700.5 c 128,-1,9
 990 660 990 660 1035.5 585.5 c 128,-1,10
 1081 511 1081 511 1081 409 c 0,11,12
 1081 286 1081 286 1017 187.5 c 128,-1,13
 953 89 953 89 833.5 33 c 128,-1,14
 714 -23 714 -23 555 -23 c 0,15,16
 410 -23 410 -23 285 27.5 c 128,-1,17
 160 78 160 78 70 173 c 1,18,-1
 177 269 l 1,19,20
 347 123 347 123 557 123 c 0,21,22
 663 123 663 123 739 157 c 128,-1,23
 815 191 815 191 855 254 c 128,-1,24
 895 317 895 317 895 403 c 0,25,26
 895 536 895 536 807 600.5 c 128,-1,27
 719 665 719 665 573 665 c 2,28,-1
 329 665 l 1,29,-1
 349 812 l 1,30,-1
 559 812 l 2,31,32
 640 812 640 812 707.5 836 c 128,-1,33
 775 860 775 860 816 911 c 128,-1,34
 857 962 857 962 857 1038 c 0,35,36
 857 1144 857 1144 774 1201 c 128,-1,37
 691 1258 691 1258 559 1258 c 0,38,39
 450 1258 450 1258 364 1224.5 c 128,-1,40
 278 1191 278 1191 195 1125 c 1,41,-1
 97 1229 l 1,42,43
 200 1314 200 1314 314.5 1356.5 c 128,-1,44
 429 1399 429 1399 561 1399 c 0,45,0
 705 1399 705 1399 812 1354 c 128,-1,1
EndSplineSet
Validated: 1
EndChar

StartChar: uni0418
Encoding: 1048 1048 301
Width: 1200
GlyphClass: 2
Flags: W
AnchorPoint: "Anchor-3" 600 1377 basechar 0
AnchorPoint: "Anchor-2" 600 0 basechar 0
LayerCount: 2
Fore
SplineSet
167 0 m 1,0,-1
 167 1377 l 1,1,-1
 339 1377 l 1,2,-1
 339 681 l 2,3,4
 339 507 339 507 332 391.5 c 128,-1,5
 325 276 325 276 310 153 c 1,6,-1
 810 1377 l 1,7,-1
 1033 1377 l 1,8,-1
 1033 0 l 1,9,-1
 861 0 l 1,10,-1
 861 697 l 2,11,12
 861 961 861 961 891 1213 c 1,13,-1
 393 0 l 1,14,-1
 167 0 l 1,0,-1
EndSplineSet
Validated: 1
EndChar

StartChar: uni048A
Encoding: 1162 1162 304
Width: 1200
GlyphClass: 2
Flags: W
AnchorPoint: "Anchor-3" 600 1377 basechar 0
AnchorPoint: "Anchor-2" 600 0 basechar 0
LayerCount: 2
Fore
SplineSet
453 1571 m 128,-1,1
 389 1597 389 1597 348.5 1648 c 128,-1,2
 308 1699 308 1699 300 1771 c 1,3,-1
 417 1796 l 1,4,5
 438 1732 438 1732 480.5 1704 c 128,-1,6
 523 1676 523 1676 595 1676 c 0,7,8
 668 1676 668 1676 714 1704 c 128,-1,9
 760 1732 760 1732 781 1796 c 1,10,-1
 896 1771 l 1,11,12
 888 1699 888 1699 846.5 1648 c 128,-1,13
 805 1597 805 1597 739.5 1571 c 128,-1,14
 674 1545 674 1545 595 1545 c 0,15,0
 517 1545 517 1545 453 1571 c 128,-1,1
1033 138 m 1,16,-1
 1213 138 l 1,17,-1
 1058 -294 l 1,18,-1
 923 -294 l 1,19,-1
 991 0 l 1,20,-1
 861 0 l 1,21,-1
 861 697 l 2,22,23
 861 961 861 961 891 1213 c 1,24,-1
 393 0 l 1,25,-1
 167 0 l 1,26,-1
 167 1377 l 1,27,-1
 339 1377 l 1,28,-1
 339 681 l 2,29,30
 339 507 339 507 332 391.5 c 128,-1,31
 325 276 325 276 310 153 c 1,32,-1
 810 1377 l 1,33,-1
 1033 1377 l 1,34,-1
 1033 138 l 1,16,-1
EndSplineSet
Validated: 1
EndChar

StartChar: uni041A
Encoding: 1050 1050 305
Width: 1200
GlyphClass: 2
Flags: W
AnchorPoint: "Anchor-3" 639 1377 basechar 0
AnchorPoint: "Anchor-2" 600 0 basechar 0
LayerCount: 2
Fore
SplineSet
963 0 m 1,0,-1
 522 651 l 1,1,-1
 363 651 l 1,2,-1
 363 0 l 1,3,-1
 189 0 l 1,4,-1
 189 1377 l 1,5,-1
 363 1377 l 1,6,-1
 363 797 l 1,7,-1
 525 797 l 1,8,-1
 947 1377 l 1,9,-1
 1135 1377 l 1,10,-1
 671 729 l 1,11,-1
 1173 0 l 1,12,-1
 963 0 l 1,0,-1
EndSplineSet
Validated: 1
EndChar

StartChar: uni041B
Encoding: 1051 1051 307
Width: 1200
GlyphClass: 2
Flags: W
AnchorPoint: "Anchor-3" 600 1377 basechar 0
AnchorPoint: "Anchor-2" 600 0 basechar 0
LayerCount: 2
Fore
SplineSet
1033 1377 m 1,0,-1
 1033 0 l 1,1,-1
 860 0 l 1,2,-1
 860 1228 l 1,3,-1
 489 1228 l 1,4,-1
 441 820 l 2,5,6
 403 509 403 509 360.5 351 c 128,-1,7
 318 193 318 193 263.5 121 c 128,-1,8
 209 49 209 49 106 -22 c 1,9,-1
 30 107 l 1,10,11
 88 156 88 156 122.5 207.5 c 128,-1,12
 157 259 157 259 192.5 390 c 128,-1,13
 228 521 228 521 260 771 c 2,14,-1
 338 1377 l 1,15,-1
 1033 1377 l 1,0,-1
EndSplineSet
Validated: 1
EndChar

StartChar: uni041F
Encoding: 1055 1055 311
Width: 1200
GlyphClass: 2
Flags: W
AnchorPoint: "Anchor-3" 600 1377 basechar 0
AnchorPoint: "Anchor-2" 600 0 basechar 0
LayerCount: 2
Fore
SplineSet
1033 0 m 1,0,-1
 860 0 l 1,1,-1
 860 1226 l 1,2,-1
 340 1226 l 1,3,-1
 340 0 l 1,4,-1
 167 0 l 1,5,-1
 167 1377 l 1,6,-1
 1033 1377 l 1,7,-1
 1033 0 l 1,0,-1
EndSplineSet
Validated: 1
EndChar

StartChar: uni0423
Encoding: 1059 1059 315
Width: 1200
GlyphClass: 2
Flags: W
AnchorPoint: "Anchor-3" 620 1377 basechar 0
AnchorPoint: "Anchor-2" 600 0 basechar 0
LayerCount: 2
Fore
SplineSet
739 360 m 2,0,1
 688 238 688 238 628.5 162.5 c 128,-1,2
 569 87 569 87 477.5 41 c 128,-1,3
 386 -5 386 -5 243 -23 c 1,4,-1
 217 116 l 1,5,6
 323 131 323 131 386.5 159 c 128,-1,7
 450 187 450 187 492.5 238 c 128,-1,8
 535 289 535 289 576 379 c 1,9,-1
 507 379 l 1,10,-1
 53 1377 l 1,11,-1
 233 1377 l 1,12,-1
 627 491 l 1,13,-1
 985 1377 l 1,14,-1
 1160 1377 l 1,15,-1
 739 360 l 2,0,1
EndSplineSet
Validated: 1
EndChar

StartChar: uni0424
Encoding: 1060 1060 317
Width: 1200
GlyphClass: 2
Flags: W
AnchorPoint: "Anchor-3" 600 1377 basechar 0
AnchorPoint: "Anchor-2" 600 0 basechar 0
LayerCount: 2
Fore
SplineSet
685 1319 m 1,0,1
 934 1301 934 1301 1054 1146 c 128,-1,2
 1174 991 1174 991 1174 693 c 0,3,4
 1174 391 1174 391 1048.5 232.5 c 128,-1,5
 923 74 923 74 685 63 c 1,6,-1
 685 -58 l 1,7,-1
 515 -58 l 1,8,-1
 515 63 l 1,9,10
 276 73 276 73 151 231 c 128,-1,11
 26 389 26 389 26 693 c 0,12,13
 26 990 26 990 146.5 1145.5 c 128,-1,14
 267 1301 267 1301 515 1319 c 1,15,-1
 515 1435 l 1,16,-1
 685 1435 l 1,17,-1
 685 1319 l 1,0,1
517 1190 m 1,18,19
 408 1186 408 1186 339 1136 c 128,-1,20
 270 1086 270 1086 236 978.5 c 128,-1,21
 202 871 202 871 202 693 c 0,22,23
 202 523 202 523 234.5 416 c 128,-1,24
 267 309 267 309 336 254.5 c 128,-1,25
 405 200 405 200 517 191 c 1,26,-1
 517 1190 l 1,18,19
683 191 m 1,27,28
 795 200 795 200 864 254.5 c 128,-1,29
 933 309 933 309 965.5 416 c 128,-1,30
 998 523 998 523 998 693 c 0,31,32
 998 871 998 871 964 978.5 c 128,-1,33
 930 1086 930 1086 861 1136 c 128,-1,34
 792 1186 792 1186 683 1190 c 1,35,-1
 683 191 l 1,27,28
EndSplineSet
Validated: 1
EndChar

StartChar: uni0427
Encoding: 1063 1063 319
Width: 1200
GlyphClass: 2
Flags: W
AnchorPoint: "Anchor-3" 579 1377 basechar 0
AnchorPoint: "Anchor-2" 600 0 basechar 0
LayerCount: 2
Fore
SplineSet
860 1377 m 1,0,-1
 1033 1377 l 1,1,-1
 1033 0 l 1,2,-1
 860 0 l 1,3,-1
 860 563 l 1,4,5
 769 496 769 496 689 467.5 c 128,-1,6
 609 439 609 439 503 439 c 0,7,8
 383 439 383 439 292 489 c 128,-1,9
 201 539 201 539 151 631 c 128,-1,10
 101 723 101 723 101 845 c 2,11,-1
 101 1377 l 1,12,-1
 275 1377 l 1,13,-1
 275 860 l 2,14,15
 275 724 275 724 344 657.5 c 128,-1,16
 413 591 413 591 545 591 c 0,17,18
 735 591 735 591 860 712 c 1,19,-1
 860 1377 l 1,0,-1
EndSplineSet
Validated: 1
EndChar

StartChar: uni0426
Encoding: 1062 1062 320
Width: 1200
GlyphClass: 2
Flags: W
AnchorPoint: "Anchor-2" 600 0 basechar 0
LayerCount: 2
Fore
SplineSet
1033 1377 m 1,0,-1
 1033 145 l 1,1,-1
 1156 145 l 1,2,-1
 1156 -294 l 1,3,-1
 1019 -294 l 1,4,-1
 989 0 l 1,5,-1
 167 0 l 1,6,-1
 167 1377 l 1,7,-1
 340 1377 l 1,8,-1
 340 144 l 1,9,-1
 860 144 l 1,10,-1
 860 1377 l 1,11,-1
 1033 1377 l 1,0,-1
EndSplineSet
Validated: 1048577
EndChar

StartChar: uni0428
Encoding: 1064 1064 321
Width: 1200
GlyphClass: 2
Flags: W
AnchorPoint: "Anchor-3" 600 1377 basechar 0
AnchorPoint: "Anchor-2" 600 0 basechar 0
LayerCount: 2
Fore
SplineSet
944 1377 m 1,0,-1
 1107 1377 l 1,1,-1
 1107 0 l 1,2,-1
 93 0 l 1,3,-1
 93 1377 l 1,4,-1
 256 1377 l 1,5,-1
 256 145 l 1,6,-1
 522 145 l 1,7,-1
 522 1377 l 1,8,-1
 678 1377 l 1,9,-1
 678 145 l 1,10,-1
 944 145 l 1,11,-1
 944 1377 l 1,0,-1
EndSplineSet
Validated: 1
EndChar

StartChar: uni0429
Encoding: 1065 1065 322
Width: 1200
GlyphClass: 2
Flags: W
AnchorPoint: "Anchor-3" 600 1377 basechar 0
AnchorPoint: "Anchor-2" 600 0 basechar 0
LayerCount: 2
Fore
SplineSet
1107 1377 m 1,0,-1
 1107 145 l 1,1,-1
 1230 145 l 1,2,-1
 1230 -294 l 1,3,-1
 1093 -294 l 1,4,-1
 1063 0 l 1,5,-1
 93 0 l 1,6,-1
 93 1377 l 1,7,-1
 256 1377 l 1,8,-1
 256 145 l 1,9,-1
 522 145 l 1,10,-1
 522 1377 l 1,11,-1
 678 1377 l 1,12,-1
 678 145 l 1,13,-1
 944 145 l 1,14,-1
 944 1377 l 1,15,-1
 1107 1377 l 1,0,-1
EndSplineSet
Validated: 1
EndChar

StartChar: uni040F
Encoding: 1039 1039 323
Width: 1200
GlyphClass: 2
Flags: W
AnchorPoint: "Anchor-2" 600 0 basechar 0
LayerCount: 2
Fore
SplineSet
860 1377 m 1,0,-1
 1033 1377 l 1,1,-1
 1033 0 l 1,2,-1
 683 0 l 1,3,-1
 666 -294 l 1,4,-1
 534 -294 l 1,5,-1
 517 0 l 1,6,-1
 167 0 l 1,7,-1
 167 1377 l 1,8,-1
 340 1377 l 1,9,-1
 340 144 l 1,10,-1
 860 144 l 1,11,-1
 860 1377 l 1,0,-1
EndSplineSet
Validated: 1048577
EndChar

StartChar: uni042C
Encoding: 1068 1068 324
Width: 1200
GlyphClass: 2
Flags: W
AnchorPoint: "Anchor-3" 600 1377 basechar 0
AnchorPoint: "Anchor-2" 600 0 basechar 0
LayerCount: 2
Fore
SplineSet
362 1377 m 1,0,-1
 362 867 l 1,1,-1
 569 867 l 2,2,3
 826 867 826 867 964.5 763.5 c 128,-1,4
 1103 660 1103 660 1103 443 c 0,5,6
 1103 214 1103 214 960.5 107 c 128,-1,7
 818 0 818 0 571 0 c 2,8,-1
 189 0 l 1,9,-1
 189 1377 l 1,10,-1
 362 1377 l 1,0,-1
362 729 m 1,11,-1
 362 141 l 1,12,-1
 592 141 l 2,13,14
 693 141 693 141 764 166.5 c 128,-1,15
 835 192 835 192 876 258.5 c 128,-1,16
 917 325 917 325 917 441 c 0,17,18
 917 592 917 592 830 660.5 c 128,-1,19
 743 729 743 729 593 729 c 2,20,-1
 362 729 l 1,11,-1
EndSplineSet
Validated: 1
EndChar

StartChar: uni042A
Encoding: 1066 1066 325
Width: 1200
Flags: W
LayerCount: 2
Fore
SplineSet
418 1377 m 1,0,-1
 418 867 l 1,1,-1
 630 867 l 2,2,3
 886 867 886 867 1024.5 763.5 c 128,-1,4
 1163 660 1163 660 1163 443 c 0,5,6
 1163 213 1163 213 1021 106.5 c 128,-1,7
 879 0 879 0 631 0 c 2,8,-1
 243 0 l 1,9,-1
 243 1225 l 1,10,-1
 1 1225 l 1,11,-1
 1 1377 l 1,12,-1
 418 1377 l 1,0,-1
418 728 m 1,13,-1
 418 142 l 1,14,-1
 661 142 l 2,15,16
 761 142 761 142 830.5 167.5 c 128,-1,17
 900 193 900 193 940.5 259 c 128,-1,18
 981 325 981 325 981 441 c 0,19,20
 981 592 981 592 894.5 660 c 128,-1,21
 808 728 808 728 658 728 c 2,22,-1
 418 728 l 1,13,-1
EndSplineSet
Validated: 1
EndChar

StartChar: uni042B
Encoding: 1067 1067 326
Width: 1200
GlyphClass: 2
Flags: W
AnchorPoint: "Anchor-3" 600 1377 basechar 0
AnchorPoint: "Anchor-2" 600 0 basechar 0
LayerCount: 2
Fore
SplineSet
238 1377 m 1,0,-1
 238 865 l 1,1,-1
 364 865 l 2,2,3
 613 865 613 865 737 757 c 128,-1,4
 861 649 861 649 861 443 c 0,5,6
 861 222 861 222 733.5 111 c 128,-1,7
 606 0 606 0 368 0 c 2,8,-1
 62 0 l 1,9,-1
 62 1377 l 1,10,-1
 238 1377 l 1,0,-1
962 1377 m 1,11,-1
 1138 1377 l 1,12,-1
 1138 0 l 1,13,-1
 962 0 l 1,14,-1
 962 1377 l 1,11,-1
238 733 m 1,15,-1
 238 139 l 1,16,-1
 385 139 l 2,17,18
 531 139 531 139 604 210 c 128,-1,19
 677 281 677 281 677 441 c 0,20,21
 677 586 677 586 603 659.5 c 128,-1,22
 529 733 529 733 383 733 c 2,23,-1
 238 733 l 1,15,-1
EndSplineSet
Validated: 1
EndChar

StartChar: uni0409
Encoding: 1033 1033 327
Width: 1200
GlyphClass: 2
Flags: W
AnchorPoint: "Anchor-3" 600 1377 basechar 0
AnchorPoint: "Anchor-2" 600 0 basechar 0
LayerCount: 2
Fore
SplineSet
710 867 m 1,0,1
 957 867 957 867 1078.5 764 c 128,-1,2
 1200 661 1200 661 1200 443 c 0,3,4
 1200 213 1200 213 1077 106.5 c 128,-1,5
 954 0 954 0 725 0 c 2,6,-1
 539 0 l 1,7,-1
 539 1234 l 1,8,-1
 351 1234 l 1,9,-1
 305 621 l 2,10,11
 287 383 287 383 260.5 261.5 c 128,-1,12
 234 140 234 140 198 85.5 c 128,-1,13
 162 31 162 31 93 -22 c 1,14,-1
 3 92 l 1,15,16
 39 132 39 132 62 181 c 128,-1,17
 85 230 85 230 104 334.5 c 128,-1,18
 123 439 123 439 138 626 c 2,19,-1
 198 1377 l 1,20,-1
 710 1377 l 1,21,-1
 710 867 l 1,0,1
710 732 m 1,22,-1
 710 140 l 1,23,-1
 740 140 l 2,24,25
 835 140 835 140 895 165.5 c 128,-1,26
 955 191 955 191 987 257 c 128,-1,27
 1019 323 1019 323 1019 441 c 0,28,29
 1019 597 1019 597 950.5 664.5 c 128,-1,30
 882 732 882 732 741 732 c 2,31,-1
 710 732 l 1,22,-1
EndSplineSet
Validated: 1
EndChar

StartChar: uni040A
Encoding: 1034 1034 328
Width: 1200
GlyphClass: 2
Flags: W
AnchorPoint: "Anchor-3" 600 1377 basechar 0
AnchorPoint: "Anchor-2" 600 0 basechar 0
LayerCount: 2
Fore
SplineSet
709 827 m 1,0,1
 957 828 957 828 1078.5 730.5 c 128,-1,2
 1200 633 1200 633 1200 425 c 0,3,4
 1200 200 1200 200 1077.5 100 c 128,-1,5
 955 0 955 0 727 0 c 2,6,-1
 538 0 l 1,7,-1
 538 698 l 1,8,-1
 253 698 l 1,9,-1
 253 0 l 1,10,-1
 83 0 l 1,11,-1
 83 1377 l 1,12,-1
 253 1377 l 1,13,-1
 253 827 l 1,14,-1
 538 827 l 1,15,-1
 538 1377 l 1,16,-1
 709 1377 l 1,17,-1
 709 827 l 1,0,1
709 697 m 1,18,-1
 709 137 l 1,19,-1
 741 137 l 2,20,21
 836 136 836 136 895.5 159 c 128,-1,22
 955 182 955 182 987 244.5 c 128,-1,23
 1019 307 1019 307 1019 423 c 0,24,25
 1019 573 1019 573 951 635 c 128,-1,26
 883 697 883 697 741 697 c 2,27,-1
 709 697 l 1,18,-1
EndSplineSet
Validated: 33
EndChar

StartChar: uni0404
Encoding: 1028 1028 330
Width: 1200
GlyphClass: 2
Flags: W
AnchorPoint: "Anchor-3" 600 1377 basechar 0
AnchorPoint: "Anchor-2" 600 0 basechar 0
LayerCount: 2
Fore
SplineSet
926 1366 m 128,-1,1
 1019 1333 1019 1333 1104 1266 c 1,2,-1
 1015 1159 l 1,3,4
 880 1258 880 1258 715 1258 c 0,5,6
 544 1258 544 1258 430.5 1143.5 c 128,-1,7
 317 1029 317 1029 299 780 c 1,8,-1
 907 780 l 1,9,-1
 907 635 l 1,10,-1
 295 635 l 1,11,12
 303 459 303 459 359 344.5 c 128,-1,13
 415 230 415 230 506.5 176 c 128,-1,14
 598 122 598 122 715 122 c 0,15,16
 820 122 820 122 896 155 c 128,-1,17
 972 188 972 188 1032 241 c 1,18,-1
 1124 128 l 1,19,20
 1052 61 1052 61 948.5 19 c 128,-1,21
 845 -23 845 -23 708 -23 c 0,22,23
 534 -23 534 -23 400 59.5 c 128,-1,24
 266 142 266 142 190.5 302.5 c 128,-1,25
 115 463 115 463 115 689 c 0,26,27
 115 913 115 913 194.5 1073.5 c 128,-1,28
 274 1234 274 1234 408.5 1316.5 c 128,-1,29
 543 1399 543 1399 705 1399 c 0,30,0
 833 1399 833 1399 926 1366 c 128,-1,1
EndSplineSet
Validated: 1
EndChar

StartChar: uni042D
Encoding: 1069 1069 331
Width: 1200
GlyphClass: 2
Flags: W
AnchorPoint: "Anchor-3" 579 1378 basechar 0
AnchorPoint: "Anchor-2" 600 0 basechar 0
LayerCount: 2
Fore
SplineSet
826 1322 m 128,-1,1
 947 1245 947 1245 1012 1090.5 c 128,-1,2
 1077 936 1077 936 1077 707 c 0,3,4
 1077 470 1077 470 1009.5 306.5 c 128,-1,5
 942 143 942 143 817.5 60 c 128,-1,6
 693 -23 693 -23 522 -23 c 0,7,8
 390 -23 390 -23 277 24 c 128,-1,9
 164 71 164 71 84 153 c 1,10,-1
 189 253 l 1,11,12
 261 187 261 187 339 154.5 c 128,-1,13
 417 122 417 122 511 122 c 0,14,15
 693 122 693 122 789 247 c 128,-1,16
 885 372 885 372 898 635 c 1,17,-1
 292 635 l 1,18,-1
 292 781 l 1,19,-1
 898 781 l 1,20,21
 884 1034 884 1034 792 1146 c 128,-1,22
 700 1258 700 1258 530 1258 c 0,23,24
 425 1258 425 1258 348.5 1223.5 c 128,-1,25
 272 1189 272 1189 196 1127 c 1,26,-1
 100 1230 l 1,27,28
 291 1399 291 1399 538 1399 c 0,29,0
 705 1399 705 1399 826 1322 c 128,-1,1
EndSplineSet
Validated: 1
EndChar

StartChar: uni040B
Encoding: 1035 1035 335
Width: 1200
Flags: W
LayerCount: 2
Fore
SplineSet
826 1377 m 1,0,-1
 808 1233 l 1,1,-1
 487 1233 l 1,2,-1
 487 780 l 1,3,4
 611 899 611 899 777 899 c 0,5,6
 956 899 956 899 1044.5 796 c 128,-1,7
 1133 693 1133 693 1133 493 c 2,8,-1
 1133 0 l 1,9,-1
 959 0 l 1,10,-1
 959 481 l 2,11,12
 959 577 959 577 937 635.5 c 128,-1,13
 915 694 915 694 867 721.5 c 128,-1,14
 819 749 819 749 738 749 c 0,15,16
 656 749 656 749 598 719.5 c 128,-1,17
 540 690 540 690 487 642 c 1,18,-1
 487 0 l 1,19,-1
 313 0 l 1,20,-1
 313 1233 l 1,21,-1
 -9 1233 l 1,22,-1
 -9 1377 l 1,23,-1
 826 1377 l 1,0,-1
EndSplineSet
Validated: 1
EndChar

StartChar: uni042E
Encoding: 1070 1070 336
Width: 1200
GlyphClass: 2
Flags: W
AnchorPoint: "Anchor-3" 600 1377 basechar 0
AnchorPoint: "Anchor-2" 600 0 basechar 0
LayerCount: 2
Fore
SplineSet
1002 1320 m 128,-1,1
 1086 1241 1086 1241 1122 1085 c 128,-1,2
 1158 929 1158 929 1158 687 c 0,3,4
 1158 334 1158 334 1067 155.5 c 128,-1,5
 976 -23 976 -23 777 -23 c 0,6,7
 573 -23 573 -23 486.5 148.5 c 128,-1,8
 400 320 400 320 395 642 c 1,9,-1
 261 642 l 1,10,-1
 261 0 l 1,11,-1
 93 0 l 1,12,-1
 93 1377 l 1,13,-1
 261 1377 l 1,14,-1
 261 785 l 1,15,-1
 397 785 l 1,16,17
 405 989 405 989 445.5 1124 c 128,-1,18
 486 1259 486 1259 567 1329 c 128,-1,19
 648 1399 648 1399 777 1399 c 0,20,0
 918 1399 918 1399 1002 1320 c 128,-1,1
657.5 1203.5 m 128,-1,22
 613 1150 613 1150 593 1026.5 c 128,-1,23
 573 903 573 903 573 689 c 0,24,25
 573 474 573 474 593 350.5 c 128,-1,26
 613 227 613 227 657.5 173 c 128,-1,27
 702 119 702 119 777 119 c 0,28,29
 848 119 848 119 892.5 173 c 128,-1,30
 937 227 937 227 958.5 351 c 128,-1,31
 980 475 980 475 980 687 c 256,32,33
 980 899 980 899 958.5 1023.5 c 128,-1,34
 937 1148 937 1148 892.5 1202.5 c 128,-1,35
 848 1257 848 1257 777 1257 c 0,36,21
 702 1257 702 1257 657.5 1203.5 c 128,-1,22
EndSplineSet
Validated: 1
EndChar

StartChar: uni042F
Encoding: 1071 1071 337
Width: 1200
GlyphClass: 2
Flags: W
AnchorPoint: "Anchor-3" 600 1377 basechar 0
AnchorPoint: "Anchor-2" 600 0 basechar 0
LayerCount: 2
Fore
SplineSet
1033 1377 m 1,0,-1
 1033 0 l 1,1,-1
 860 0 l 1,2,-1
 860 553 l 1,3,-1
 553 553 l 1,4,-1
 261 0 l 1,5,-1
 67 0 l 1,6,-1
 391 593 l 1,7,8
 272 646 272 646 211 743.5 c 128,-1,9
 150 841 150 841 150 969 c 0,10,11
 150 1164 150 1164 284 1270.5 c 128,-1,12
 418 1377 418 1377 671 1377 c 2,13,-1
 1033 1377 l 1,0,-1
650 1239 m 2,14,15
 490 1239 490 1239 413 1173.5 c 128,-1,16
 336 1108 336 1108 336 969 c 0,17,18
 336 695 336 695 613 695 c 2,19,-1
 860 695 l 1,20,-1
 860 1239 l 1,21,-1
 650 1239 l 2,14,15
EndSplineSet
Validated: 1
EndChar

StartChar: uni0402
Encoding: 1026 1026 338
Width: 1200
GlyphClass: 2
Flags: W
AnchorPoint: "Anchor-3" 600 1377 basechar 0
AnchorPoint: "Anchor-2" 600 -399 basechar 0
LayerCount: 2
Fore
SplineSet
487 780 m 1,0,1
 621 899 621 899 777 899 c 0,2,3
 956 899 956 899 1044.5 796 c 128,-1,4
 1133 693 1133 693 1133 493 c 2,5,-1
 1133 191 l 2,6,7
 1133 56 1133 56 1093 -33 c 128,-1,8
 1053 -122 1053 -122 978.5 -176.5 c 128,-1,9
 904 -231 904 -231 787 -271 c 1,10,-1
 743 -131 l 1,11,12
 832 -96 832 -96 877.5 -56 c 128,-1,13
 923 -16 923 -16 941 40.5 c 128,-1,14
 959 97 959 97 959 191 c 2,15,-1
 959 481 l 2,16,17
 959 577 959 577 937 635.5 c 128,-1,18
 915 694 915 694 867 721.5 c 128,-1,19
 819 749 819 749 738 749 c 0,20,21
 656 749 656 749 598 719.5 c 128,-1,22
 540 690 540 690 487 642 c 1,23,-1
 487 0 l 1,24,-1
 313 0 l 1,25,-1
 313 1233 l 1,26,-1
 -9 1233 l 1,27,-1
 -9 1377 l 1,28,-1
 826 1377 l 1,29,-1
 808 1233 l 1,30,-1
 487 1233 l 1,31,-1
 487 780 l 1,0,1
EndSplineSet
Validated: 1
EndChar

StartChar: uni0460
Encoding: 1120 1120 339
Width: 1200
Flags: W
LayerCount: 2
Fore
SplineSet
1026 1377 m 1,0,1
 1065 1270 1065 1270 1094 1171 c 128,-1,2
 1123 1072 1123 1072 1146 924 c 128,-1,3
 1169 776 1169 776 1169 597 c 0,4,5
 1169 -22 1169 -22 847 -22 c 0,6,7
 752 -22 752 -22 693 30.5 c 128,-1,8
 634 83 634 83 603 186 c 1,9,10
 569 81 569 81 512 29.5 c 128,-1,11
 455 -22 455 -22 359 -22 c 0,12,13
 273 -22 273 -22 199.5 38.5 c 128,-1,14
 126 99 126 99 79.5 237.5 c 128,-1,15
 33 376 33 376 33 597 c 0,16,17
 33 775 33 775 56.5 923.5 c 128,-1,18
 80 1072 80 1072 108 1167.5 c 128,-1,19
 136 1263 136 1263 177 1377 c 1,20,-1
 345 1377 l 1,21,22
 275 1193 275 1193 239 1013 c 128,-1,23
 203 833 203 833 203 603 c 0,24,25
 203 345 203 345 252 233 c 128,-1,26
 301 121 301 121 389 121 c 0,27,28
 445 121 445 121 480.5 172.5 c 128,-1,29
 516 224 516 224 516 338 c 2,30,-1
 516 796 l 1,31,-1
 686 796 l 1,32,-1
 686 340 l 2,33,34
 686 228 686 228 725.5 174.5 c 128,-1,35
 765 121 765 121 827 121 c 0,36,37
 880 121 880 121 917 159 c 128,-1,38
 954 197 954 197 976.5 302 c 128,-1,39
 999 407 999 407 999 599 c 0,40,41
 999 826 999 826 963 1005 c 128,-1,42
 927 1184 927 1184 858 1377 c 1,43,-1
 1026 1377 l 1,0,1
EndSplineSet
Validated: 1
EndChar

StartChar: uni0462
Encoding: 1122 1122 340
Width: 1200
GlyphClass: 2
Flags: W
AnchorPoint: "Anchor-3" 600 1377 basechar 0
AnchorPoint: "Anchor-2" 600 0 basechar 0
LayerCount: 2
Fore
SplineSet
625 857 m 2,0,1
 781 857 781 857 896 811 c 128,-1,2
 1011 765 1011 765 1073.5 672 c 128,-1,3
 1136 579 1136 579 1136 442 c 0,4,5
 1136 217 1136 217 992 108.5 c 128,-1,6
 848 0 848 0 600 0 c 2,7,-1
 308 0 l 1,8,-1
 308 1061 l 1,9,-1
 20 1061 l 1,10,-1
 20 1190 l 1,11,-1
 308 1190 l 1,12,-1
 308 1377 l 1,13,-1
 481 1377 l 1,14,-1
 481 1190 l 1,15,-1
 788 1190 l 1,16,-1
 788 1061 l 1,17,-1
 481 1061 l 1,18,-1
 481 857 l 1,19,-1
 625 857 l 2,0,1
621 141 m 2,20,21
 778 141 778 141 864 207.5 c 128,-1,22
 950 274 950 274 950 438 c 0,23,24
 950 588 950 588 867.5 653.5 c 128,-1,25
 785 719 785 719 629 719 c 2,26,-1
 481 719 l 1,27,-1
 481 141 l 1,28,-1
 621 141 l 2,20,21
EndSplineSet
Validated: 1
EndChar

StartChar: uni0464
Encoding: 1124 1124 341
Width: 1200
GlyphClass: 2
Flags: W
AnchorPoint: "Anchor-3" 600 1377 basechar 0
AnchorPoint: "Anchor-2" 600 0 basechar 0
LayerCount: 2
Fore
SplineSet
1189 74 m 1,0,1
 1127 27 1127 27 1060 2 c 128,-1,2
 993 -23 993 -23 893 -23 c 0,3,4
 747 -23 747 -23 637.5 53 c 128,-1,5
 528 129 528 129 465.5 276.5 c 128,-1,6
 403 424 403 424 396 635 c 1,7,-1
 255 635 l 1,8,-1
 255 0 l 1,9,-1
 80 0 l 1,10,-1
 80 1377 l 1,11,-1
 255 1377 l 1,12,-1
 255 785 l 1,13,-1
 398 785 l 1,14,15
 411 983 411 983 477 1120.5 c 128,-1,16
 543 1258 543 1258 652 1328.5 c 128,-1,17
 761 1399 761 1399 903 1399 c 0,18,19
 994 1399 994 1399 1054 1380 c 128,-1,20
 1114 1361 1114 1361 1176 1318 c 1,21,-1
 1091 1204 l 1,22,23
 1043 1232 1043 1232 1003.5 1244.5 c 128,-1,24
 964 1257 964 1257 907 1257 c 0,25,26
 767 1257 767 1257 682 1144.5 c 128,-1,27
 597 1032 597 1032 577 781 c 1,28,-1
 1034 781 l 1,29,-1
 1034 635 l 1,30,-1
 572 635 l 1,31,32
 584 373 584 373 669.5 249 c 128,-1,33
 755 125 755 125 898 125 c 0,34,35
 965 125 965 125 1009 141.5 c 128,-1,36
 1053 158 1053 158 1108 190 c 1,37,-1
 1189 74 l 1,0,1
EndSplineSet
Validated: 1
EndChar

StartChar: uni0466
Encoding: 1126 1126 342
Width: 1200
GlyphClass: 2
Flags: W
AnchorPoint: "Anchor-3" 600 1377 basechar 0
AnchorPoint: "Anchor-2" 600 0 basechar 0
LayerCount: 2
Fore
SplineSet
1159 0 m 1,0,-1
 973 0 l 1,1,-1
 794 580 l 1,2,-1
 677 580 l 1,3,-1
 677 0 l 1,4,-1
 513 0 l 1,5,-1
 513 580 l 1,6,-1
 398 580 l 1,7,-1
 219 0 l 1,8,-1
 41 0 l 1,9,-1
 489 1377 l 1,10,-1
 711 1377 l 1,11,-1
 1159 0 l 1,0,-1
596 1223 m 1,12,-1
 443 727 l 1,13,-1
 749 727 l 1,14,-1
 596 1223 l 1,12,-1
EndSplineSet
Validated: 1
EndChar

StartChar: uni0468
Encoding: 1128 1128 343
Width: 1200
GlyphClass: 2
Flags: W
AnchorPoint: "Anchor-3" 600 1377 basechar 0
AnchorPoint: "Anchor-2" 600 0 basechar 0
LayerCount: 2
Fore
SplineSet
1199 0 m 1,0,-1
 1027 0 l 1,1,-1
 899 582 l 1,2,-1
 826 582 l 1,3,-1
 826 0 l 1,4,-1
 680 0 l 1,5,-1
 680 582 l 1,6,-1
 607 582 l 1,7,-1
 479 0 l 1,8,-1
 315 0 l 1,9,-1
 455 582 l 1,10,-1
 245 582 l 1,11,-1
 245 1 l 1,12,-1
 74 1 l 1,13,-1
 74 1377 l 1,14,-1
 245 1377 l 1,15,-1
 245 721 l 1,16,-1
 461 721 l 1,17,-1
 465 623 l 1,18,-1
 647 1377 l 1,19,-1
 867 1377 l 1,20,-1
 1199 0 l 1,0,-1
753 1243 m 1,21,-1
 638 721 l 1,22,-1
 868 721 l 1,23,-1
 753 1243 l 1,21,-1
EndSplineSet
Validated: 1
EndChar

StartChar: uni046A
Encoding: 1130 1130 344
Width: 1200
GlyphClass: 2
Flags: W
AnchorPoint: "Anchor-3" 600 1377 basechar 0
AnchorPoint: "Anchor-2" 600 0 basechar 0
LayerCount: 2
Fore
SplineSet
756 757 m 1,0,-1
 917 757 l 1,1,-1
 1125 0 l 1,2,-1
 963 0 l 1,3,-1
 800 622 l 1,4,-1
 686 622 l 1,5,-1
 686 0 l 1,6,-1
 517 0 l 1,7,-1
 517 622 l 1,8,-1
 403 622 l 1,9,-1
 237 0 l 1,10,-1
 75 0 l 1,11,-1
 299 757 l 1,12,-1
 444 757 l 1,13,-1
 185 1262 l 1,14,-1
 185 1377 l 1,15,-1
 1025 1377 l 1,16,-1
 1025 1262 l 1,17,-1
 756 757 l 1,0,-1
851 1251 m 1,18,-1
 366 1251 l 1,19,-1
 607 757 l 1,20,-1
 851 1251 l 1,18,-1
EndSplineSet
Validated: 1
EndChar

StartChar: uni046C
Encoding: 1132 1132 345
Width: 1200
GlyphClass: 2
Flags: W
AnchorPoint: "Anchor-3" 600 1377 basechar 0
AnchorPoint: "Anchor-2" 600 0 basechar 0
LayerCount: 2
Fore
SplineSet
909 757 m 1,0,-1
 1056 757 l 1,1,-1
 1255 0 l 1,2,-1
 1092 0 l 1,3,-1
 939 622 l 1,4,-1
 847 622 l 1,5,-1
 847 0 l 1,6,-1
 674 0 l 1,7,-1
 674 622 l 1,8,-1
 581 622 l 1,9,-1
 427 0 l 1,10,-1
 263 0 l 1,11,-1
 440 622 l 1,12,-1
 208 622 l 1,13,-1
 208 1 l 1,14,-1
 37 1 l 1,15,-1
 37 1377 l 1,16,-1
 208 1377 l 1,17,-1
 208 757 l 1,18,-1
 610 757 l 1,19,-1
 381 1261 l 1,20,-1
 381 1377 l 1,21,-1
 1148 1377 l 1,22,-1
 1148 1261 l 1,23,-1
 909 757 l 1,0,-1
766 757 m 1,24,-1
 980 1250 l 1,25,-1
 554 1250 l 1,26,-1
 766 757 l 1,24,-1
EndSplineSet
Validated: 1
EndChar

StartChar: uni046E
Encoding: 1134 1134 346
Width: 1200
GlyphClass: 2
Flags: W
AnchorPoint: "Anchor-3" 566 1377 basechar 0
LayerCount: 2
Fore
SplineSet
893 1724 m 1,0,-1
 624 1509 l 1,1,-1
 511 1509 l 1,2,-1
 240 1724 l 1,3,-1
 315 1809 l 1,4,-1
 566 1648 l 1,5,-1
 819 1809 l 1,6,-1
 893 1724 l 1,0,-1
582 751 m 2,7,8
 728 752 728 752 830 704 c 128,-1,9
 932 656 932 656 983.5 566.5 c 128,-1,10
 1035 477 1035 477 1035 354 c 0,11,12
 1035 233 1035 233 979.5 142.5 c 128,-1,13
 924 52 924 52 829 -0.5 c 128,-1,14
 734 -53 734 -53 615 -65 c 0,15,16
 514 -75 514 -75 460.5 -88 c 128,-1,17
 407 -101 407 -101 385.5 -120 c 128,-1,18
 364 -139 364 -139 364 -170 c 0,19,20
 364 -208 364 -208 400.5 -243.5 c 128,-1,21
 437 -279 437 -279 509 -315 c 1,22,-1
 447 -427 l 1,23,24
 320 -374 320 -374 256.5 -307.5 c 128,-1,25
 193 -241 193 -241 193 -156 c 0,26,27
 193 -56 193 -56 274.5 -1 c 128,-1,28
 356 54 356 54 526 69 c 0,29,30
 686 84 686 84 770 153 c 128,-1,31
 854 222 854 222 854 353 c 0,32,33
 854 495 854 495 779 558 c 128,-1,34
 704 621 704 621 549 621 c 2,35,-1
 337 621 l 1,36,-1
 337 749 l 1,37,-1
 759 1232 l 1,38,-1
 165 1232 l 1,39,-1
 165 1377 l 1,40,-1
 968 1377 l 1,41,-1
 968 1233 l 1,42,-1
 529 751 l 1,43,-1
 582 751 l 2,7,8
EndSplineSet
Validated: 1048609
EndChar

StartChar: uni0474
Encoding: 1140 1140 349
Width: 1200
GlyphClass: 2
Flags: W
AnchorPoint: "Anchor-3" 578 1377 basechar 0
AnchorPoint: "Anchor-2" 600 0 basechar 0
LayerCount: 2
Fore
SplineSet
1131 1252 m 1,0,1
 1111 1260 1111 1260 1096 1263.5 c 128,-1,2
 1081 1267 1081 1267 1063 1267 c 0,3,4
 1025 1267 1025 1267 1002.5 1241.5 c 128,-1,5
 980 1216 980 1216 963 1157 c 2,6,-1
 655 0 l 1,7,-1
 465 0 l 1,8,-1
 56 1377 l 1,9,-1
 243 1377 l 1,10,-1
 558 201 l 1,11,-1
 809 1182 l 2,12,13
 839 1296 839 1296 894.5 1347.5 c 128,-1,14
 950 1399 950 1399 1044 1399 c 0,15,16
 1085 1399 1085 1399 1119 1390 c 128,-1,17
 1153 1381 1153 1381 1187 1363 c 1,18,-1
 1131 1252 l 1,0,1
EndSplineSet
Validated: 1
EndChar

StartChar: uni0478
Encoding: 1144 1144 351
Width: 1200
Flags: W
LayerCount: 2
Fore
SplineSet
90.5 155.5 m 128,-1,1
 18 334 18 334 18 685 c 0,2,3
 18 1032 18 1032 90.5 1215.5 c 128,-1,4
 163 1399 163 1399 329 1399 c 0,5,6
 494 1399 494 1399 566.5 1218.5 c 128,-1,7
 639 1038 639 1038 639 687 c 0,8,9
 639 335 639 335 566.5 156 c 128,-1,10
 494 -23 494 -23 329 -23 c 0,11,0
 163 -23 163 -23 90.5 155.5 c 128,-1,1
419 169.5 m 128,-1,13
 451 229 451 229 464 353 c 128,-1,14
 477 477 477 477 477 687 c 0,15,16
 477 898 477 898 464.5 1022 c 128,-1,17
 452 1146 452 1146 420 1206.5 c 128,-1,18
 388 1267 388 1267 329 1267 c 256,19,20
 270 1267 270 1267 237.5 1206 c 128,-1,21
 205 1145 205 1145 192 1020.5 c 128,-1,22
 179 896 179 896 179 685 c 0,23,24
 179 479 179 479 193 354 c 128,-1,25
 207 229 207 229 240 169.5 c 128,-1,26
 273 110 273 110 329 110 c 0,27,12
 387 110 387 110 419 169.5 c 128,-1,13
675 -295 m 1,28,29
 764 -269 764 -269 815 -200.5 c 128,-1,30
 866 -132 866 -132 886 0 c 1,31,-1
 815 0 l 1,32,-1
 649 1053 l 1,33,-1
 799 1053 l 1,34,-1
 921 128 l 1,35,-1
 1034 1053 l 1,36,-1
 1188 1053 l 1,37,-1
 1023 -7 l 2,38,39
 995 -183 995 -183 914 -283.5 c 128,-1,40
 833 -384 833 -384 699 -423 c 1,41,-1
 675 -295 l 1,28,29
EndSplineSet
Validated: 1
EndChar

StartChar: uni0492
Encoding: 1170 1170 352
Width: 1200
GlyphClass: 2
Flags: W
AnchorPoint: "Anchor-3" 758 1377 basechar 0
AnchorPoint: "Anchor-2" 420 0 basechar 0
LayerCount: 2
Fore
SplineSet
1150 1377 m 1,0,-1
 1131 1225 l 1,1,-1
 506 1225 l 1,2,-1
 506 866 l 1,3,-1
 821 866 l 1,4,-1
 821 733 l 1,5,-1
 506 733 l 1,6,-1
 506 0 l 1,7,-1
 333 0 l 1,8,-1
 333 733 l 1,9,-1
 132 733 l 1,10,-1
 132 866 l 1,11,-1
 333 866 l 1,12,-1
 333 1377 l 1,13,-1
 1150 1377 l 1,0,-1
EndSplineSet
Validated: 1
EndChar

StartChar: uni0494
Encoding: 1172 1172 353
Width: 1200
GlyphClass: 2
Flags: W
AnchorPoint: "Anchor-3" 600 1377 basechar 0
AnchorPoint: "Anchor-2" 600 -399 basechar 0
LayerCount: 2
Fore
SplineSet
914 848 m 128,-1,1
 1003 797 1003 797 1051 700 c 128,-1,2
 1099 603 1099 603 1099 471 c 2,3,-1
 1099 -121 l 2,4,5
 1099 -269 1099 -269 1021.5 -346 c 128,-1,6
 944 -423 944 -423 809 -423 c 0,7,8
 683 -423 683 -423 584 -349 c 1,9,-1
 649 -234 l 1,10,11
 690 -259 690 -259 722.5 -270 c 128,-1,12
 755 -281 755 -281 802 -281 c 0,13,14
 926 -281 926 -281 926 -131 c 2,15,-1
 926 469 l 2,16,17
 926 604 926 604 863 675.5 c 128,-1,18
 800 747 800 747 677 747 c 0,19,20
 571 747 571 747 492.5 707.5 c 128,-1,21
 414 668 414 668 343 588 c 1,22,-1
 343 0 l 1,23,-1
 170 0 l 1,24,-1
 170 1377 l 1,25,-1
 939 1377 l 1,26,-1
 917 1233 l 1,27,-1
 343 1233 l 1,28,-1
 343 747 l 1,29,30
 414 822 414 822 502.5 860.5 c 128,-1,31
 591 899 591 899 706 899 c 0,32,0
 825 899 825 899 914 848 c 128,-1,1
EndSplineSet
Validated: 1
EndChar

StartChar: uni0496
Encoding: 1174 1174 354
Width: 1200
GlyphClass: 2
Flags: W
AnchorPoint: "Anchor-3" 600 1377 basechar 0
AnchorPoint: "Anchor-2" 600 0 basechar 0
LayerCount: 2
Fore
SplineSet
931 729 m 1,0,-1
 1127 145 l 1,1,-1
 1221 145 l 1,2,-1
 1221 -294 l 1,3,-1
 1088 -294 l 1,4,-1
 1060 0 l 1,5,-1
 1004 0 l 1,6,-1
 799 653 l 1,7,-1
 677 653 l 1,8,-1
 677 0 l 1,9,-1
 523 0 l 1,10,-1
 523 653 l 1,11,-1
 399 653 l 1,12,-1
 192 0 l 1,13,-1
 24 0 l 1,14,-1
 269 729 l 1,15,-1
 53 1377 l 1,16,-1
 220 1377 l 1,17,-1
 401 795 l 1,18,-1
 523 795 l 1,19,-1
 523 1377 l 1,20,-1
 677 1377 l 1,21,-1
 677 795 l 1,22,-1
 799 795 l 1,23,-1
 982 1377 l 1,24,-1
 1147 1377 l 1,25,-1
 931 729 l 1,0,-1
EndSplineSet
Validated: 1
EndChar

StartChar: uni0498
Encoding: 1176 1176 355
Width: 1200
GlyphClass: 2
Flags: W
AnchorPoint: "Anchor-3" 596 1377 basechar 0
AnchorPoint: "Anchor-2" 587 0 basechar 0
LayerCount: 2
Fore
SplineSet
1026 203 m 128,-1,1
 971 110 971 110 868.5 51.5 c 128,-1,2
 766 -7 766 -7 627 -20 c 1,3,-1
 627 -114 l 1,4,5
 720 -122 720 -122 766 -169 c 128,-1,6
 812 -216 812 -216 812 -281 c 0,7,8
 812 -344 812 -344 779 -388 c 128,-1,9
 746 -432 746 -432 690 -454.5 c 128,-1,10
 634 -477 634 -477 568 -477 c 0,11,12
 509 -477 509 -477 454 -464 c 128,-1,13
 399 -451 399 -451 359 -428 c 1,14,-1
 413 -331 l 1,15,16
 441 -346 441 -346 478 -354.5 c 128,-1,17
 515 -363 515 -363 548 -363 c 0,18,19
 668 -363 668 -363 668 -281 c 0,20,21
 668 -230 668 -230 625.5 -212.5 c 128,-1,22
 583 -195 583 -195 494 -195 c 1,23,-1
 508 -22 l 1,24,25
 377 -14 377 -14 264.5 36 c 128,-1,26
 152 86 152 86 70 173 c 1,27,-1
 177 269 l 1,28,29
 347 123 347 123 557 123 c 0,30,31
 663 123 663 123 739 157 c 128,-1,32
 815 191 815 191 855 254 c 128,-1,33
 895 317 895 317 895 403 c 0,34,35
 895 536 895 536 807 600.5 c 128,-1,36
 719 665 719 665 573 665 c 2,37,-1
 329 665 l 1,38,-1
 349 812 l 1,39,-1
 559 812 l 2,40,41
 640 812 640 812 707.5 836 c 128,-1,42
 775 860 775 860 816 911 c 128,-1,43
 857 962 857 962 857 1038 c 0,44,45
 857 1144 857 1144 774 1201 c 128,-1,46
 691 1258 691 1258 559 1258 c 0,47,48
 450 1258 450 1258 364 1224.5 c 128,-1,49
 278 1191 278 1191 195 1125 c 1,50,-1
 97 1229 l 1,51,52
 200 1314 200 1314 314.5 1356.5 c 128,-1,53
 429 1399 429 1399 561 1399 c 0,54,55
 705 1399 705 1399 812 1354 c 128,-1,56
 919 1309 919 1309 977 1227.5 c 128,-1,57
 1035 1146 1035 1146 1035 1041 c 0,58,59
 1035 959 1035 959 997 897 c 128,-1,60
 959 835 959 835 894.5 797.5 c 128,-1,61
 830 760 830 760 750 749 c 1,62,63
 839 741 839 741 914.5 700.5 c 128,-1,64
 990 660 990 660 1035.5 585.5 c 128,-1,65
 1081 511 1081 511 1081 409 c 0,66,0
 1081 296 1081 296 1026 203 c 128,-1,1
EndSplineSet
Validated: 1
EndChar

StartChar: uni049A
Encoding: 1178 1178 356
Width: 1200
GlyphClass: 2
Flags: W
AnchorPoint: "Anchor-3" 639 1377 basechar 0
AnchorPoint: "Anchor-2" 600 0 basechar 0
LayerCount: 2
Fore
SplineSet
671 729 m 1,0,-1
 1073 145 l 1,1,-1
 1174 145 l 1,2,-1
 1174 -294 l 1,3,-1
 1037 -294 l 1,4,-1
 1007 0 l 1,5,-1
 963 0 l 1,6,-1
 522 651 l 1,7,-1
 363 651 l 1,8,-1
 363 0 l 1,9,-1
 189 0 l 1,10,-1
 189 1377 l 1,11,-1
 363 1377 l 1,12,-1
 363 797 l 1,13,-1
 525 797 l 1,14,-1
 947 1377 l 1,15,-1
 1135 1377 l 1,16,-1
 671 729 l 1,0,-1
EndSplineSet
Validated: 1
EndChar

StartChar: uni049C
Encoding: 1180 1180 357
Width: 1200
GlyphClass: 2
Flags: W
AnchorPoint: "Anchor-3" 600 1377 basechar 0
AnchorPoint: "Anchor-2" 600 0 basechar 0
LayerCount: 2
Fore
SplineSet
564 301 m 1,0,-1
 457 301 l 1,1,-1
 457 651 l 1,2,-1
 359 651 l 1,3,-1
 359 0 l 1,4,-1
 189 0 l 1,5,-1
 189 1377 l 1,6,-1
 359 1377 l 1,7,-1
 359 797 l 1,8,-1
 457 797 l 1,9,-1
 457 1139 l 1,10,-1
 564 1139 l 1,11,-1
 564 797 l 1,12,-1
 616 797 l 1,13,-1
 955 1377 l 1,14,-1
 1137 1377 l 1,15,-1
 753 729 l 1,16,-1
 1175 0 l 1,17,-1
 981 0 l 1,18,-1
 615 651 l 1,19,-1
 564 651 l 1,20,-1
 564 301 l 1,0,-1
EndSplineSet
Validated: 1
EndChar

StartChar: uni049E
Encoding: 1182 1182 358
Width: 1200
Flags: W
LayerCount: 2
Fore
SplineSet
1130 1377 m 1,0,-1
 706 729 l 1,1,-1
 1168 0 l 1,2,-1
 958 0 l 1,3,-1
 557 651 l 1,4,-1
 397 651 l 1,5,-1
 397 0 l 1,6,-1
 223 0 l 1,7,-1
 223 1055 l 1,8,-1
 74 1055 l 1,9,-1
 74 1186 l 1,10,-1
 223 1186 l 1,11,-1
 223 1377 l 1,12,-1
 397 1377 l 1,13,-1
 397 1186 l 1,14,-1
 625 1186 l 1,15,-1
 625 1055 l 1,16,-1
 397 1055 l 1,17,-1
 397 797 l 1,18,-1
 559 797 l 1,19,-1
 942 1377 l 1,20,-1
 1130 1377 l 1,0,-1
EndSplineSet
Validated: 1
EndChar

StartChar: uni04A0
Encoding: 1184 1184 359
Width: 1200
Flags: W
LayerCount: 2
Fore
SplineSet
987 0 m 1,0,-1
 579 651 l 1,1,-1
 441 651 l 1,2,-1
 441 0 l 1,3,-1
 264 0 l 1,4,-1
 264 1225 l 1,5,-1
 23 1225 l 1,6,-1
 23 1377 l 1,7,-1
 441 1377 l 1,8,-1
 441 798 l 1,9,-1
 581 798 l 1,10,-1
 972 1377 l 1,11,-1
 1161 1377 l 1,12,-1
 730 729 l 1,13,-1
 1199 0 l 1,14,-1
 987 0 l 1,0,-1
EndSplineSet
Validated: 1
EndChar

StartChar: uni04A2
Encoding: 1186 1186 360
Width: 1200
GlyphClass: 2
Flags: W
AnchorPoint: "Anchor-3" 603 1377 basechar 0
AnchorPoint: "Anchor-2" 603 0 basechar 0
LayerCount: 2
Fore
SplineSet
1036 1377 m 1,0,-1
 1036 145 l 1,1,-1
 1157 145 l 1,2,-1
 1157 -294 l 1,3,-1
 1019 -294 l 1,4,-1
 990 0 l 1,5,-1
 863 0 l 1,6,-1
 863 653 l 1,7,-1
 343 653 l 1,8,-1
 343 0 l 1,9,-1
 170 0 l 1,10,-1
 170 1377 l 1,11,-1
 343 1377 l 1,12,-1
 343 795 l 1,13,-1
 863 795 l 1,14,-1
 863 1377 l 1,15,-1
 1036 1377 l 1,0,-1
EndSplineSet
Validated: 1
EndChar

StartChar: uni04A4
Encoding: 1188 1188 361
Width: 1200
Flags: W
LayerCount: 2
Fore
SplineSet
1209 1377 m 1,0,-1
 1191 1233 l 1,1,-1
 924 1233 l 1,2,-1
 924 0 l 1,3,-1
 751 0 l 1,4,-1
 751 654 l 1,5,-1
 309 654 l 1,6,-1
 309 0 l 1,7,-1
 135 0 l 1,8,-1
 135 1377 l 1,9,-1
 309 1377 l 1,10,-1
 309 795 l 1,11,-1
 751 795 l 1,12,-1
 751 1377 l 1,13,-1
 1209 1377 l 1,0,-1
EndSplineSet
Validated: 1
EndChar

StartChar: uni04A6
Encoding: 1190 1190 362
Width: 1200
GlyphClass: 2
Flags: W
AnchorPoint: "Anchor-3" 600 1377 basechar 0
AnchorPoint: "Anchor-2" 600 -399 basechar 0
LayerCount: 2
Fore
SplineSet
1051 863 m 128,-1,1
 1116 824 1116 824 1151 753 c 128,-1,2
 1186 682 1186 682 1186 588 c 2,3,-1
 1186 -117 l 2,4,5
 1186 -216 1186 -216 1149 -285 c 128,-1,6
 1112 -354 1112 -354 1046.5 -388.5 c 128,-1,7
 981 -423 981 -423 896 -423 c 0,8,9
 770 -423 770 -423 671 -349 c 1,10,-1
 738 -233 l 1,11,12
 778 -258 778 -258 810 -269 c 128,-1,13
 842 -280 842 -280 889 -280 c 0,14,15
 1013 -280 1013 -280 1013 -130 c 2,16,-1
 1013 591 l 2,17,18
 1013 670 1013 670 976 709.5 c 128,-1,19
 939 749 939 749 871 749 c 0,20,21
 824 749 824 749 781.5 731 c 128,-1,22
 739 713 739 713 695 675 c 1,23,-1
 695 0 l 1,24,-1
 521 0 l 1,25,-1
 521 1222 l 1,26,-1
 229 1222 l 1,27,-1
 229 0 l 1,28,-1
 55 0 l 1,29,-1
 55 1377 l 1,30,-1
 695 1377 l 1,31,-1
 695 822 l 1,32,33
 781 902 781 902 898 902 c 0,34,0
 986 902 986 902 1051 863 c 128,-1,1
EndSplineSet
Validated: 1
EndChar

StartChar: uni0524
Encoding: 1316 1316 363
Width: 1200
GlyphClass: 2
Flags: W
AnchorPoint: "Anchor-3" 600 1377 basechar 0
AnchorPoint: "Anchor-2" 600 0 basechar 0
LayerCount: 2
Fore
SplineSet
1033 1377 m 1,0,-1
 1033 145 l 1,1,-1
 1156 145 l 1,2,-1
 1156 -294 l 1,3,-1
 1019 -294 l 1,4,-1
 989 0 l 1,5,-1
 860 0 l 1,6,-1
 860 1226 l 1,7,-1
 340 1226 l 1,8,-1
 340 0 l 1,9,-1
 167 0 l 1,10,-1
 167 1377 l 1,11,-1
 1033 1377 l 1,0,-1
EndSplineSet
Validated: 1
EndChar

StartChar: uni04A8
Encoding: 1192 1192 364
Width: 1200
GlyphClass: 2
Flags: W
AnchorPoint: "Anchor-3" 600 1377 basechar 0
AnchorPoint: "Anchor-2" 600 -399 basechar 0
LayerCount: 2
Fore
SplineSet
1134 337.5 m 128,-1,1
 1104 248 1104 248 1045 172.5 c 128,-1,2
 986 97 986 97 902 48 c 1,3,4
 947 -9 947 -9 947 -9 c 2,5,6
 1005 -80 1005 -80 1058 -151 c 1,7,-1
 943 -237 l 1,8,9
 915 -200 915 -200 845 -113 c 0,10,11
 792 -48 792 -48 761 -7 c 1,12,13
 698 -22 698 -22 627 -22 c 0,14,15
 459 -22 459 -22 333.5 60 c 128,-1,16
 208 142 208 142 139.5 302.5 c 128,-1,17
 71 463 71 463 71 690 c 0,18,19
 71 914 71 914 145.5 1074 c 128,-1,20
 220 1234 220 1234 343 1316.5 c 128,-1,21
 466 1399 466 1399 611 1399 c 0,22,23
 728 1399 728 1399 810 1367.5 c 128,-1,24
 892 1336 892 1336 979 1267 c 1,25,-1
 887 1151 l 1,26,27
 821 1204 821 1204 755.5 1228.5 c 128,-1,28
 690 1253 690 1253 615 1253 c 0,29,30
 518 1253 518 1253 438 1197.5 c 128,-1,31
 358 1142 358 1142 308.5 1016.5 c 128,-1,32
 259 891 259 891 259 690 c 0,33,34
 259 400 259 400 358.5 264.5 c 128,-1,35
 458 129 458 129 635 129 c 0,36,37
 652 129 652 129 660 130 c 1,38,39
 591 231 591 231 554 323 c 128,-1,40
 517 415 517 415 517 508 c 0,41,42
 517 607 517 607 558.5 688 c 128,-1,43
 600 769 600 769 674 815.5 c 128,-1,44
 748 862 748 862 841 862 c 0,45,46
 943 862 943 862 1016 818.5 c 128,-1,47
 1089 775 1089 775 1126.5 697.5 c 128,-1,48
 1164 620 1164 620 1164 519 c 0,49,0
 1164 427 1164 427 1134 337.5 c 128,-1,1
721 334 m 128,-1,51
 752 253 752 253 811 167 c 1,52,53
 896 210 896 210 940.5 300.5 c 128,-1,54
 985 391 985 391 985 520 c 0,55,56
 985 622 985 622 949.5 671.5 c 128,-1,57
 914 721 914 721 842 721 c 0,58,59
 768 721 768 721 729 665 c 128,-1,60
 690 609 690 609 690 509 c 0,61,50
 690 415 690 415 721 334 c 128,-1,51
EndSplineSet
Validated: 1
EndChar

StartChar: uni04AA
Encoding: 1194 1194 365
Width: 1200
GlyphClass: 2
Flags: W
AnchorPoint: "Anchor-3" 731 1377 basechar 0
AnchorPoint: "Anchor-2" 699 0 basechar 0
LayerCount: 2
Fore
SplineSet
898.5 -126 m 128,-1,1
 937 -186 937 -186 937 -257 c 0,2,3
 937 -323 937 -323 906.5 -373 c 128,-1,4
 876 -423 876 -423 819.5 -450.5 c 128,-1,5
 763 -478 763 -478 687 -478 c 0,6,7
 577 -478 577 -478 493 -428 c 1,8,-1
 537 -326 l 1,9,10
 572 -344 572 -344 602 -353.5 c 128,-1,11
 632 -363 632 -363 676 -363 c 0,12,13
 732 -363 732 -363 761.5 -332.5 c 128,-1,14
 791 -302 791 -302 791 -249 c 0,15,16
 791 -186 791 -186 752.5 -126 c 128,-1,17
 714 -66 714 -66 638 -17 c 1,18,19
 489 3 489 3 373.5 91 c 128,-1,20
 258 179 258 179 192.5 331.5 c 128,-1,21
 127 484 127 484 127 689 c 0,22,23
 127 913 127 913 206 1073.5 c 128,-1,24
 285 1234 285 1234 419 1316.5 c 128,-1,25
 553 1399 553 1399 716 1399 c 0,26,27
 846 1399 846 1399 937.5 1366.5 c 128,-1,28
 1029 1334 1029 1334 1115 1265 c 1,29,-1
 1018 1152 l 1,30,31
 896 1254 896 1254 729 1254 c 0,32,33
 609 1254 609 1254 514.5 1198 c 128,-1,34
 420 1142 420 1142 363.5 1016 c 128,-1,35
 307 890 307 890 307 689 c 0,36,37
 307 492 307 492 361 366 c 128,-1,38
 415 240 415 240 508.5 183 c 128,-1,39
 602 126 602 126 725 126 c 0,40,41
 830 126 830 126 905 157 c 128,-1,42
 980 188 980 188 1045 241 c 1,43,-1
 1135 127 l 1,44,45
 1074 68 1074 68 988 28.5 c 128,-1,46
 902 -11 902 -11 789 -20 c 1,47,0
 860 -66 860 -66 898.5 -126 c 128,-1,1
EndSplineSet
Validated: 1
EndChar

StartChar: uni04AC
Encoding: 1196 1196 366
Width: 1200
GlyphClass: 2
Flags: W
AnchorPoint: "Anchor-3" 598 1377 basechar 0
AnchorPoint: "Anchor-2" 598 0 basechar 0
LayerCount: 2
Fore
SplineSet
1119 1377 m 1,0,-1
 1101 1228 l 1,1,-1
 683 1228 l 1,2,-1
 683 145 l 1,3,-1
 806 145 l 1,4,-1
 806 -294 l 1,5,-1
 669 -294 l 1,6,-1
 639 0 l 1,7,-1
 510 0 l 1,8,-1
 510 1228 l 1,9,-1
 80 1228 l 1,10,-1
 80 1377 l 1,11,-1
 1119 1377 l 1,0,-1
EndSplineSet
Validated: 1
EndChar

StartChar: uni04B0
Encoding: 1200 1200 368
Width: 1200
GlyphClass: 2
Flags: W
AnchorPoint: "Anchor-3" 607 1377 basechar 0
AnchorPoint: "Anchor-2" 600 0 basechar 0
LayerCount: 2
Fore
SplineSet
973 1377 m 1,0,-1
 1153 1377 l 1,1,-1
 746 637 l 1,2,-1
 945 637 l 1,3,-1
 945 503 l 1,4,-1
 688 503 l 1,5,-1
 688 0 l 1,6,-1
 512 0 l 1,7,-1
 512 503 l 1,8,-1
 255 503 l 1,9,-1
 255 637 l 1,10,-1
 453 637 l 1,11,-1
 47 1377 l 1,12,-1
 239 1377 l 1,13,-1
 604 687 l 1,14,-1
 973 1377 l 1,0,-1
EndSplineSet
Validated: 1
EndChar

StartChar: uni04B2
Encoding: 1202 1202 369
Width: 1200
GlyphClass: 2
Flags: W
AnchorPoint: "Anchor-3" 600 1377 basechar 0
AnchorPoint: "Anchor-2" 600 0 basechar 0
LayerCount: 2
Fore
SplineSet
700 743 m 1,0,-1
 1053 145 l 1,1,-1
 1149 145 l 1,2,-1
 1149 -294 l 1,3,-1
 1012 -294 l 1,4,-1
 982 0 l 1,5,-1
 939 0 l 1,6,-1
 596 622 l 1,7,-1
 249 0 l 1,8,-1
 62 0 l 1,9,-1
 494 734 l 1,10,-1
 99 1377 l 1,11,-1
 298 1377 l 1,12,-1
 600 848 l 1,13,-1
 903 1377 l 1,14,-1
 1091 1377 l 1,15,-1
 700 743 l 1,0,-1
EndSplineSet
Validated: 1
EndChar

StartChar: uni04B4
Encoding: 1204 1204 370
Width: 1200
GlyphClass: 2
Flags: W
AnchorPoint: "Anchor-3" 600 1377 basechar 0
AnchorPoint: "Anchor-2" 600 -399 basechar 0
LayerCount: 2
Fore
SplineSet
1027 1377 m 1,0,-1
 1027 145 l 1,1,-1
 1127 145 l 1,2,-1
 1127 -294 l 1,3,-1
 985 -294 l 1,4,-1
 956 0 l 1,5,-1
 256 0 l 1,6,-1
 256 1235 l 1,7,-1
 0 1235 l 1,8,-1
 0 1377 l 1,9,-1
 692 1377 l 1,10,-1
 673 1235 l 1,11,-1
 434 1235 l 1,12,-1
 434 144 l 1,13,-1
 849 144 l 1,14,-1
 849 1377 l 1,15,-1
 1027 1377 l 1,0,-1
EndSplineSet
Validated: 1
EndChar

StartChar: uni04B6
Encoding: 1206 1206 371
Width: 1200
GlyphClass: 2
Flags: W
AnchorPoint: "Anchor-3" 579 1377 basechar 0
AnchorPoint: "Anchor-2" 600 0 basechar 0
LayerCount: 2
Fore
SplineSet
1033 145 m 1,0,-1
 1156 145 l 1,1,-1
 1156 -294 l 1,2,-1
 1019 -294 l 1,3,-1
 989 0 l 1,4,-1
 860 0 l 1,5,-1
 860 563 l 1,6,7
 769 496 769 496 689 467.5 c 128,-1,8
 609 439 609 439 503 439 c 0,9,10
 383 439 383 439 292 489 c 128,-1,11
 201 539 201 539 151 631 c 128,-1,12
 101 723 101 723 101 845 c 2,13,-1
 101 1377 l 1,14,-1
 275 1377 l 1,15,-1
 275 860 l 2,16,17
 275 724 275 724 344 657.5 c 128,-1,18
 413 591 413 591 545 591 c 0,19,20
 735 591 735 591 860 712 c 1,21,-1
 860 1377 l 1,22,-1
 1033 1377 l 1,23,-1
 1033 145 l 1,0,-1
EndSplineSet
Validated: 1
EndChar

StartChar: uni04B8
Encoding: 1208 1208 372
Width: 1200
GlyphClass: 2
Flags: W
AnchorPoint: "Anchor-3" 579 1377 basechar 0
AnchorPoint: "Anchor-2" 600 0 basechar 0
LayerCount: 2
Fore
SplineSet
860 1377 m 1,0,-1
 1033 1377 l 1,1,-1
 1033 0 l 1,2,-1
 860 0 l 1,3,-1
 860 563 l 1,4,5
 799 518 799 518 746.5 491.5 c 128,-1,6
 694 465 694 465 637 453 c 1,7,-1
 637 239 l 1,8,-1
 520 239 l 1,9,-1
 520 439 l 1,10,-1
 503 439 l 2,11,12
 383 439 383 439 292 489 c 128,-1,13
 201 539 201 539 151 631 c 128,-1,14
 101 723 101 723 101 845 c 2,15,-1
 101 1377 l 1,16,-1
 275 1377 l 1,17,-1
 275 860 l 2,18,19
 275 730 275 730 338 664 c 128,-1,20
 401 598 401 598 520 592 c 1,21,-1
 520 1077 l 1,22,-1
 637 1077 l 1,23,-1
 637 599 l 1,24,25
 768 622 768 622 860 712 c 1,26,-1
 860 1377 l 1,0,-1
EndSplineSet
Validated: 1
EndChar

StartChar: uni04BA
Encoding: 1210 1210 373
Width: 1200
GlyphClass: 2
Flags: W
AnchorPoint: "Anchor-3" 600 1377 basechar 0
AnchorPoint: "Anchor-2" 600 0 basechar 0
LayerCount: 2
Fore
SplineSet
911.5 848 m 128,-1,1
 1000 797 1000 797 1048 700.5 c 128,-1,2
 1096 604 1096 604 1096 471 c 2,3,-1
 1096 0 l 1,4,-1
 923 0 l 1,5,-1
 923 469 l 2,6,7
 923 604 923 604 860.5 675.5 c 128,-1,8
 798 747 798 747 675 747 c 0,9,10
 568 747 568 747 489.5 707 c 128,-1,11
 411 667 411 667 340 587 c 1,12,-1
 340 0 l 1,13,-1
 167 0 l 1,14,-1
 167 1377 l 1,15,-1
 340 1377 l 1,16,-1
 340 746 l 1,17,18
 411 822 411 822 499 860.5 c 128,-1,19
 587 899 587 899 703 899 c 0,20,0
 823 899 823 899 911.5 848 c 128,-1,1
EndSplineSet
Validated: 1
EndChar

StartChar: uni0526
Encoding: 1318 1318 374
Width: 1200
Flags: W
LayerCount: 2
Fore
SplineSet
1083 145 m 1,0,-1
 1201 145 l 1,1,-1
 1201 -294 l 1,2,-1
 1063 -294 l 1,3,-1
 1034 0 l 1,4,-1
 909 0 l 1,5,-1
 909 469 l 2,6,7
 909 747 909 747 643 747 c 0,8,9
 546 747 546 747 473.5 707.5 c 128,-1,10
 401 668 401 668 340 590 c 1,11,-1
 340 0 l 1,12,-1
 167 0 l 1,13,-1
 167 1377 l 1,14,-1
 340 1377 l 1,15,-1
 340 757 l 1,16,17
 403 826 403 826 486.5 862.5 c 128,-1,18
 570 899 570 899 681 899 c 0,19,20
 807 899 807 899 897.5 848 c 128,-1,21
 988 797 988 797 1035.5 700.5 c 128,-1,22
 1083 604 1083 604 1083 471 c 2,23,-1
 1083 145 l 1,0,-1
EndSplineSet
Validated: 1
EndChar

StartChar: uni04BC
Encoding: 1212 1212 375
Width: 1200
GlyphClass: 2
Flags: W
AnchorPoint: "Anchor-3" 600 1377 basechar 0
AnchorPoint: "Anchor-2" 600 0 basechar 0
LayerCount: 2
Fore
SplineSet
1129 617 m 1,1,-1
 441 617 l 1,2,3
 444 444 444 444 483.5 332.5 c 128,-1,4
 523 221 523 221 589 170 c 128,-1,5
 655 119 655 119 739 119 c 0,6,7
 797 119 797 119 842 131.5 c 128,-1,8
 887 144 887 144 919 162 c 128,-1,9
 951 180 951 180 993 209 c 1,10,-1
 1076 105 l 1,11,12
 1009 48 1009 48 928.5 12.5 c 128,-1,13
 848 -23 848 -23 741 -23 c 0,14,15
 602 -23 602 -23 498 48.5 c 128,-1,16
 394 120 394 120 333.5 263.5 c 128,-1,17
 273 407 273 407 266 616 c 1,18,19
 181 617 181 617 121 647.5 c 128,-1,20
 61 678 61 678 31 730 c 128,-1,21
 1 782 1 782 1 845 c 0,22,23
 1 904 1 904 22 953 c 128,-1,24
 43 1002 43 1002 79 1053 c 1,25,-1
 193 1001 l 1,26,27
 172 955 172 955 162 924 c 128,-1,28
 152 893 152 893 152 859 c 0,29,30
 152 809 152 809 178 783 c 128,-1,31
 204 757 204 757 255 757 c 2,32,-1
 267 757 l 1,33,34
 278 956 278 956 337.5 1100.5 c 128,-1,35
 397 1245 397 1245 495.5 1322 c 128,-1,36
 594 1399 594 1399 721 1399 c 0,37,38
 846 1399 846 1399 939 1322 c 128,-1,39
 1032 1245 1032 1245 1083 1091 c 128,-1,40
 1134 937 1134 937 1134 714 c 0,41,0
 1134 662 1134 662 1129 617 c 1,1,-1
971 757 m 1,42,43
 961 1021 961 1021 896.5 1140.5 c 128,-1,44
 832 1260 832 1260 719 1260 c 0,45,46
 599 1260 599 1260 527 1136 c 128,-1,47
 455 1012 455 1012 441 757 c 1,48,-1
 971 757 l 1,42,43
EndSplineSet
Validated: 1
EndChar

StartChar: uni04BE
Encoding: 1214 1214 376
Width: 1200
GlyphClass: 2
Flags: W
AnchorPoint: "Anchor-3" 600 1377 basechar 0
AnchorPoint: "Anchor-2" 600 0 basechar 0
LayerCount: 2
Fore
SplineSet
1129 617 m 1,1,-1
 441 617 l 1,2,3
 444 444 444 444 483.5 332.5 c 128,-1,4
 523 221 523 221 589 170 c 128,-1,5
 655 119 655 119 739 119 c 0,6,7
 797 119 797 119 842 131.5 c 128,-1,8
 887 144 887 144 919 162 c 128,-1,9
 951 180 951 180 993 209 c 1,10,-1
 1076 105 l 1,11,12
 987 29 987 29 891 -1 c 1,13,14
 793 -44 793 -44 739 -82.5 c 128,-1,15
 685 -121 685 -121 665 -155.5 c 128,-1,16
 645 -190 645 -190 645 -229 c 0,17,18
 645 -276 645 -276 671 -300.5 c 128,-1,19
 697 -325 697 -325 757 -325 c 0,20,21
 811 -325 811 -325 881 -311 c 1,22,-1
 863 -445 l 1,23,24
 827 -452 827 -452 800 -455.5 c 128,-1,25
 773 -459 773 -459 737 -459 c 0,26,27
 663 -459 663 -459 607.5 -433 c 128,-1,28
 552 -407 552 -407 522.5 -362.5 c 128,-1,29
 493 -318 493 -318 493 -262 c 0,30,31
 493 -114 493 -114 667 -18 c 1,32,33
 549 0 549 0 461.5 77 c 128,-1,34
 374 154 374 154 323 290 c 128,-1,35
 272 426 272 426 266 616 c 1,36,37
 181 617 181 617 121 647.5 c 128,-1,38
 61 678 61 678 31 730 c 128,-1,39
 1 782 1 782 1 845 c 0,40,41
 1 904 1 904 22 953 c 128,-1,42
 43 1002 43 1002 79 1053 c 1,43,-1
 193 1001 l 1,44,45
 172 955 172 955 162 924 c 128,-1,46
 152 893 152 893 152 859 c 0,47,48
 152 809 152 809 178 783 c 128,-1,49
 204 757 204 757 255 757 c 2,50,-1
 267 757 l 1,51,52
 278 956 278 956 337.5 1100.5 c 128,-1,53
 397 1245 397 1245 495.5 1322 c 128,-1,54
 594 1399 594 1399 721 1399 c 0,55,56
 846 1399 846 1399 939 1322 c 128,-1,57
 1032 1245 1032 1245 1083 1091 c 128,-1,58
 1134 937 1134 937 1134 714 c 0,59,0
 1134 662 1134 662 1129 617 c 1,1,-1
971 757 m 1,60,61
 961 1021 961 1021 896.5 1140.5 c 128,-1,62
 832 1260 832 1260 719 1260 c 0,63,64
 599 1260 599 1260 527 1136 c 128,-1,65
 455 1012 455 1012 441 757 c 1,66,-1
 971 757 l 1,60,61
EndSplineSet
Validated: 1
EndChar

StartChar: uni04C3
Encoding: 1219 1219 379
Width: 1200
GlyphClass: 2
Flags: W
AnchorPoint: "Anchor-3" 600 1377 basechar 0
AnchorPoint: "Anchor-2" 600 -399 basechar 0
LayerCount: 2
Fore
SplineSet
701 765 m 1,0,1
 887 741 887 741 975.5 634 c 128,-1,2
 1064 527 1064 527 1064 341 c 2,3,-1
 1064 -121 l 2,4,5
 1064 -269 1064 -269 986.5 -346 c 128,-1,6
 909 -423 909 -423 774 -423 c 0,7,8
 647 -423 647 -423 550 -349 c 1,9,-1
 615 -234 l 1,10,11
 656 -259 656 -259 688.5 -270 c 128,-1,12
 721 -281 721 -281 767 -281 c 0,13,14
 891 -281 891 -281 891 -131 c 2,15,-1
 891 339 l 2,16,17
 891 438 891 438 860 500.5 c 128,-1,18
 829 563 829 563 760 594 c 128,-1,19
 691 625 691 625 576 625 c 2,20,-1
 340 625 l 1,21,-1
 340 0 l 1,22,-1
 167 0 l 1,23,-1
 167 1377 l 1,24,-1
 340 1377 l 1,25,-1
 340 771 l 1,26,-1
 537 771 l 1,27,-1
 883 1377 l 1,28,-1
 1068 1377 l 1,29,-1
 701 765 l 1,0,1
EndSplineSet
Validated: 1
EndChar

StartChar: uni04C5
Encoding: 1221 1221 380
Width: 1200
Flags: W
LayerCount: 2
Fore
SplineSet
981 138 m 1,0,-1
 1161 138 l 1,1,-1
 1007 -294 l 1,2,-1
 871 -294 l 1,3,-1
 940 0 l 1,4,-1
 809 0 l 1,5,-1
 809 1228 l 1,6,-1
 498 1228 l 1,7,-1
 449 820 l 2,8,9
 411 509 411 509 369 350.5 c 128,-1,10
 327 192 327 192 272.5 120.5 c 128,-1,11
 218 49 218 49 115 -22 c 1,12,-1
 39 107 l 1,13,14
 97 156 97 156 131 207.5 c 128,-1,15
 165 259 165 259 200.5 390 c 128,-1,16
 236 521 236 521 269 771 c 2,17,-1
 347 1377 l 1,18,-1
 981 1377 l 1,19,-1
 981 138 l 1,0,-1
EndSplineSet
Validated: 1
EndChar

StartChar: uni04C7
Encoding: 1223 1223 381
Width: 1200
GlyphClass: 2
Flags: W
AnchorPoint: "Anchor-3" 600 1377 basechar 0
AnchorPoint: "Anchor-2" 600 0 basechar 0
LayerCount: 2
Fore
SplineSet
860 1377 m 1,0,-1
 1033 1377 l 1,1,-1
 1033 -121 l 2,2,3
 1033 -269 1033 -269 955.5 -346 c 128,-1,4
 878 -423 878 -423 743 -423 c 0,5,6
 617 -423 617 -423 518 -349 c 1,7,-1
 584 -234 l 1,8,9
 624 -259 624 -259 656.5 -270 c 128,-1,10
 689 -281 689 -281 736 -281 c 0,11,12
 860 -281 860 -281 860 -131 c 2,13,-1
 860 653 l 1,14,-1
 340 653 l 1,15,-1
 340 0 l 1,16,-1
 167 0 l 1,17,-1
 167 1377 l 1,18,-1
 340 1377 l 1,19,-1
 340 795 l 1,20,-1
 860 795 l 1,21,-1
 860 1377 l 1,0,-1
EndSplineSet
Validated: 1
EndChar

StartChar: uni04C9
Encoding: 1225 1225 382
Width: 1200
Flags: W
LayerCount: 2
Fore
SplineSet
973 1377 m 1,0,-1
 973 138 l 1,1,-1
 1153 138 l 1,2,-1
 998 -294 l 1,3,-1
 862 -294 l 1,4,-1
 931 0 l 1,5,-1
 800 0 l 1,6,-1
 800 654 l 1,7,-1
 317 654 l 1,8,-1
 317 0 l 1,9,-1
 145 0 l 1,10,-1
 145 1377 l 1,11,-1
 317 1377 l 1,12,-1
 317 795 l 1,13,-1
 800 795 l 1,14,-1
 800 1377 l 1,15,-1
 973 1377 l 1,0,-1
EndSplineSet
Validated: 1
EndChar

StartChar: uni04CB
Encoding: 1227 1227 383
Width: 1200
GlyphClass: 2
Flags: W
AnchorPoint: "Anchor-3" 579 1377 basechar 0
AnchorPoint: "Anchor-2" 600 0 basechar 0
LayerCount: 2
Fore
SplineSet
860 1377 m 1,0,-1
 1033 1377 l 1,1,-1
 1033 0 l 1,2,-1
 888 0 l 1,3,-1
 859 -294 l 1,4,-1
 721 -294 l 1,5,-1
 721 145 l 1,6,-1
 860 145 l 1,7,-1
 860 563 l 1,8,9
 769 496 769 496 689 467.5 c 128,-1,10
 609 439 609 439 503 439 c 0,11,12
 383 439 383 439 292 489 c 128,-1,13
 201 539 201 539 151 631 c 128,-1,14
 101 723 101 723 101 845 c 2,15,-1
 101 1377 l 1,16,-1
 275 1377 l 1,17,-1
 275 860 l 2,18,19
 275 724 275 724 344 657.5 c 128,-1,20
 413 591 413 591 545 591 c 0,21,22
 735 591 735 591 860 712 c 1,23,-1
 860 1377 l 1,0,-1
EndSplineSet
Validated: 1
EndChar

StartChar: uni04CD
Encoding: 1229 1229 384
Width: 1200
Flags: W
LayerCount: 2
Fore
SplineSet
1050 138 m 1,0,-1
 1209 138 l 1,1,-1
 1053 -294 l 1,2,-1
 913 -294 l 1,3,-1
 982 0 l 1,4,-1
 891 0 l 1,5,-1
 849 719 l 2,6,7
 837 928 837 928 837 1205 c 1,8,-1
 634 247 l 1,9,-1
 460 247 l 1,10,-1
 245 1205 l 1,11,-1
 245 1154 l 2,12,13
 245 882 245 882 237 721 c 2,14,-1
 201 0 l 1,15,-1
 37 0 l 1,16,-1
 115 1377 l 1,17,-1
 357 1377 l 1,18,-1
 552 434 l 1,19,-1
 737 1377 l 1,20,-1
 980 1377 l 1,21,-1
 1050 138 l 1,0,-1
EndSplineSet
Validated: 1
EndChar

StartChar: uni04D8
Encoding: 1240 1240 389
Width: 1200
GlyphClass: 2
Flags: W
AnchorPoint: "Anchor-3" 586 1377 basechar 0
AnchorPoint: "Anchor-2" 600 0 basechar 0
LayerCount: 2
Fore
SplineSet
95 761 m 1,1,-1
 925 761 l 1,2,3
 916 1023 916 1023 828.5 1141.5 c 128,-1,4
 741 1260 741 1260 581 1260 c 0,5,6
 488 1260 488 1260 415.5 1230.5 c 128,-1,7
 343 1201 343 1201 265 1143 c 1,8,-1
 176 1246 l 1,9,10
 262 1319 262 1319 362 1359 c 128,-1,11
 462 1399 462 1399 586 1399 c 0,12,13
 839 1399 839 1399 971 1224.5 c 128,-1,14
 1103 1050 1103 1050 1103 707 c 0,15,16
 1103 480 1103 480 1041.5 315.5 c 128,-1,17
 980 151 980 151 865 64 c 128,-1,18
 750 -23 750 -23 594 -23 c 0,19,20
 437 -23 437 -23 324 54 c 128,-1,21
 211 131 211 131 150 285 c 128,-1,22
 89 439 89 439 89 663 c 0,23,0
 89 707 89 707 95 761 c 1,1,-1
827 241 m 128,-1,25
 910 363 910 363 925 617 c 1,26,-1
 258 617 l 1,27,28
 265 438 265 438 304.5 328.5 c 128,-1,29
 344 219 344 219 416 169 c 128,-1,30
 488 119 488 119 597 119 c 0,31,24
 744 119 744 119 827 241 c 128,-1,25
EndSplineSet
Validated: 1
EndChar

StartChar: uni04E0
Encoding: 1248 1248 393
Width: 1200
Flags: W
LayerCount: 2
Fore
SplineSet
591 799 m 2,0,1
 834 799 834 799 946.5 696 c 128,-1,2
 1059 593 1059 593 1059 411 c 0,3,4
 1059 283 1059 283 998.5 184.5 c 128,-1,5
 938 86 938 86 825.5 32 c 128,-1,6
 713 -22 713 -22 564 -22 c 0,7,8
 422 -22 422 -22 325.5 14.5 c 128,-1,9
 229 51 229 51 141 127 c 1,10,-1
 229 235 l 1,11,12
 285 197 285 197 331.5 174 c 128,-1,13
 378 151 378 151 435 137.5 c 128,-1,14
 492 124 492 124 566 124 c 0,15,16
 718 124 718 124 798.5 200.5 c 128,-1,17
 879 277 879 277 879 413 c 0,18,19
 879 539 879 539 806.5 600 c 128,-1,20
 734 661 734 661 597 661 c 2,21,-1
 355 661 l 1,22,-1
 355 791 l 1,23,-1
 799 1232 l 1,24,-1
 193 1232 l 1,25,-1
 193 1377 l 1,26,-1
 1001 1377 l 1,27,-1
 1001 1233 l 1,28,-1
 556 799 l 1,29,-1
 591 799 l 2,0,1
EndSplineSet
Validated: 1
EndChar

StartChar: uni04E8
Encoding: 1256 1256 397
Width: 1200
GlyphClass: 2
Flags: W
AnchorPoint: "Anchor-3" 600 1377 basechar 0
AnchorPoint: "Anchor-2" 600 0 basechar 0
LayerCount: 2
Fore
SplineSet
1049.5 315 m 128,-1,1
 992 155 992 155 878 66 c 128,-1,2
 764 -23 764 -23 600 -23 c 256,3,4
 436 -23 436 -23 322 64 c 128,-1,5
 208 151 208 151 150.5 310.5 c 128,-1,6
 93 470 93 470 93 685 c 0,7,8
 93 897 93 897 150.5 1058 c 128,-1,9
 208 1219 208 1219 322 1309 c 128,-1,10
 436 1399 436 1399 600 1399 c 256,11,12
 764 1399 764 1399 878 1311 c 128,-1,13
 992 1223 992 1223 1049.5 1062.5 c 128,-1,14
 1107 902 1107 902 1107 687 c 0,15,0
 1107 475 1107 475 1049.5 315 c 128,-1,1
367.5 1133 m 128,-1,17
 290 1012 290 1012 278 768 c 1,18,-1
 920 768 l 1,19,20
 909 1012 909 1012 832 1133 c 128,-1,21
 755 1254 755 1254 600 1254 c 256,22,16
 445 1254 445 1254 367.5 1133 c 128,-1,17
839.5 251.5 m 128,-1,24
 917 380 917 380 922 635 c 1,25,-1
 275 635 l 1,26,27
 281 382 281 382 360.5 252.5 c 128,-1,28
 440 123 440 123 600 123 c 0,29,23
 762 123 762 123 839.5 251.5 c 128,-1,24
EndSplineSet
Validated: 1
EndChar

StartChar: uni04F6
Encoding: 1270 1270 404
Width: 1200
GlyphClass: 2
Flags: W
AnchorPoint: "Anchor-3" 697 1377 basechar 0
AnchorPoint: "Anchor-2" 359 0 basechar 0
LayerCount: 2
Fore
SplineSet
1089 1377 m 1,0,-1
 1071 1225 l 1,1,-1
 445 1225 l 1,2,-1
 445 145 l 1,3,-1
 564 145 l 1,4,-1
 564 -294 l 1,5,-1
 427 -294 l 1,6,-1
 397 0 l 1,7,-1
 272 0 l 1,8,-1
 272 1377 l 1,9,-1
 1089 1377 l 1,0,-1
EndSplineSet
Validated: 1
EndChar

StartChar: uni04FA
Encoding: 1274 1274 406
Width: 1200
GlyphClass: 2
Flags: W
AnchorPoint: "Anchor-3" 774 1377 basechar 0
AnchorPoint: "Anchor-2" 437 0 basechar 0
LayerCount: 2
Fore
SplineSet
1148 1225 m 1,0,-1
 522 1225 l 1,1,-1
 522 866 l 1,2,-1
 838 866 l 1,3,-1
 838 733 l 1,4,-1
 522 733 l 1,5,-1
 522 145 l 1,6,-1
 641 145 l 1,7,-1
 641 -121 l 2,8,9
 641 -269 641 -269 563.5 -346 c 128,-1,10
 486 -423 486 -423 351 -423 c 0,11,12
 224 -423 224 -423 127 -349 c 1,13,-1
 192 -234 l 1,14,15
 233 -259 233 -259 265.5 -270 c 128,-1,16
 298 -281 298 -281 344 -281 c 0,17,18
 468 -281 468 -281 468 -131 c 2,19,-1
 468 0 l 1,20,-1
 349 0 l 1,21,-1
 349 733 l 1,22,-1
 149 733 l 1,23,-1
 149 866 l 1,24,-1
 349 866 l 1,25,-1
 349 1377 l 1,26,-1
 1166 1377 l 1,27,-1
 1148 1225 l 1,0,-1
EndSplineSet
Validated: 1
EndChar

StartChar: uni04FC
Encoding: 1276 1276 407
Width: 1200
GlyphClass: 2
Flags: W
AnchorPoint: "Anchor-3" 567 1377 basechar 0
AnchorPoint: "Anchor-2" 567 0 basechar 0
LayerCount: 2
Fore
SplineSet
1020 145 m 1,0,-1
 1153 145 l 1,1,-1
 1153 -121 l 2,2,3
 1153 -269 1153 -269 1075.5 -346 c 128,-1,4
 998 -423 998 -423 863 -423 c 0,5,6
 736 -423 736 -423 639 -349 c 1,7,-1
 704 -234 l 1,8,9
 745 -259 745 -259 777.5 -270 c 128,-1,10
 810 -281 810 -281 856 -281 c 0,11,12
 980 -281 980 -281 980 -131 c 2,13,-1
 980 0 l 1,14,-1
 906 0 l 1,15,-1
 563 622 l 1,16,-1
 216 0 l 1,17,-1
 29 0 l 1,18,-1
 461 734 l 1,19,-1
 66 1377 l 1,20,-1
 265 1377 l 1,21,-1
 567 848 l 1,22,-1
 871 1377 l 1,23,-1
 1058 1377 l 1,24,-1
 667 743 l 1,25,-1
 1020 145 l 1,0,-1
EndSplineSet
Validated: 1
EndChar

StartChar: uni04FE
Encoding: 1278 1278 408
Width: 1200
GlyphClass: 2
Flags: W
AnchorPoint: "Anchor-3" 600 1377 basechar 0
AnchorPoint: "Anchor-2" 600 0 basechar 0
LayerCount: 2
Fore
SplineSet
1121 669 m 1,0,-1
 744 669 l 1,1,-1
 1138 0 l 1,2,-1
 939 0 l 1,3,-1
 596 622 l 1,4,-1
 249 0 l 1,5,-1
 62 0 l 1,6,-1
 456 669 l 1,7,-1
 79 669 l 1,8,-1
 79 802 l 1,9,-1
 452 802 l 1,10,-1
 99 1377 l 1,11,-1
 298 1377 l 1,12,-1
 600 848 l 1,13,-1
 903 1377 l 1,14,-1
 1091 1377 l 1,15,-1
 736 802 l 1,16,-1
 1121 802 l 1,17,-1
 1121 669 l 1,0,-1
EndSplineSet
Validated: 1
EndChar

StartChar: uni0500
Encoding: 1280 1280 409
Width: 1200
GlyphClass: 2
Flags: W
AnchorPoint: "Anchor-3" 600 1377 basechar 0
AnchorPoint: "Anchor-2" 600 0 basechar 0
LayerCount: 2
Fore
SplineSet
607 0 m 2,0,1
 459 0 459 0 343.5 46.5 c 128,-1,2
 228 93 228 93 162.5 187 c 128,-1,3
 97 281 97 281 97 419 c 0,4,5
 97 554 97 554 160.5 652 c 128,-1,6
 224 750 224 750 341 801.5 c 128,-1,7
 458 853 458 853 617 853 c 2,8,-1
 838 853 l 1,9,-1
 838 1377 l 1,10,-1
 1011 1377 l 1,11,-1
 1011 0 l 1,12,-1
 607 0 l 2,0,1
838 141 m 1,13,-1
 838 715 l 1,14,-1
 613 715 l 2,15,16
 454 715 454 715 368.5 642.5 c 128,-1,17
 283 570 283 570 283 419 c 0,18,19
 283 272 283 272 370.5 206.5 c 128,-1,20
 458 141 458 141 608 141 c 2,21,-1
 838 141 l 1,13,-1
EndSplineSet
Validated: 1
EndChar

StartChar: uni0502
Encoding: 1282 1282 410
Width: 1200
GlyphClass: 2
Flags: W
AnchorPoint: "Anchor-3" 600 1377 basechar 0
AnchorPoint: "Anchor-2" 600 0 basechar 0
LayerCount: 2
Fore
SplineSet
1161 753 m 1,0,1
 1171 623 1171 623 1171 501 c 0,2,3
 1171 321 1171 321 1127.5 202.5 c 128,-1,4
 1084 84 1084 84 1009.5 28.5 c 128,-1,5
 935 -27 935 -27 839 -27 c 0,6,7
 755 -27 755 -27 691 14 c 128,-1,8
 627 55 627 55 592 132 c 1,9,10
 497 -28 497 -28 329 -28 c 0,11,12
 245 -28 245 -28 174 18.5 c 128,-1,13
 103 65 103 65 60.5 157 c 128,-1,14
 18 249 18 249 18 380 c 0,15,16
 18 606 18 606 131 729.5 c 128,-1,17
 244 853 244 853 464 853 c 2,18,-1
 555 853 l 1,19,-1
 555 1377 l 1,20,-1
 729 1377 l 1,21,-1
 729 309 l 2,22,23
 729 213 729 213 758 163 c 128,-1,24
 787 113 787 113 843 113 c 0,25,26
 912 113 912 113 954.5 201.5 c 128,-1,27
 997 290 997 290 997 497 c 0,28,29
 997 613 997 613 987 753 c 1,30,-1
 1161 753 l 1,0,1
468 154 m 128,-1,32
 513 195 513 195 555 283 c 1,33,-1
 555 718 l 1,34,-1
 460 718 l 2,35,36
 333 718 333 718 262 634 c 128,-1,37
 191 550 191 550 191 379 c 0,38,39
 191 241 191 241 237 177 c 128,-1,40
 283 113 283 113 359 113 c 0,41,31
 423 113 423 113 468 154 c 128,-1,32
EndSplineSet
Validated: 1
EndChar

StartChar: uni0504
Encoding: 1284 1284 411
Width: 1200
GlyphClass: 2
Flags: W
AnchorPoint: "Anchor-3" 600 1377 basechar 0
AnchorPoint: "Anchor-2" 600 0 basechar 0
LayerCount: 2
Fore
SplineSet
1141 760 m 1,0,1
 1150 620 1150 620 1150 510 c 0,2,3
 1150 327 1150 327 1105 208 c 128,-1,4
 1060 89 1060 89 980 33 c 128,-1,5
 900 -23 900 -23 793 -23 c 0,6,7
 667 -23 667 -23 584 43.5 c 128,-1,8
 501 110 501 110 434 255 c 2,9,-1
 275 591 l 1,10,-1
 110 591 l 1,11,-1
 110 727 l 1,12,-1
 253 727 l 2,13,14
 407 727 407 727 486 790 c 128,-1,15
 565 853 565 853 565 991 c 0,16,17
 565 1079 565 1079 530 1133.5 c 128,-1,18
 495 1188 495 1188 422 1213.5 c 128,-1,19
 349 1239 349 1239 230 1239 c 2,20,-1
 50 1239 l 1,21,-1
 50 1377 l 1,22,-1
 233 1377 l 2,23,24
 488 1377 488 1377 619.5 1278.5 c 128,-1,25
 751 1180 751 1180 751 991 c 0,26,27
 751 846 751 846 677 756 c 128,-1,28
 603 666 603 666 450 622 c 1,29,-1
 592 301 l 2,30,31
 639 197 639 197 683.5 155 c 128,-1,32
 728 113 728 113 793 113 c 0,33,34
 879 113 879 113 929 204 c 128,-1,35
 979 295 979 295 979 510 c 0,36,37
 979 620 979 620 969 760 c 1,38,-1
 1141 760 l 1,0,1
EndSplineSet
Validated: 1
EndChar

StartChar: uni0506
Encoding: 1286 1286 412
Width: 1200
GlyphClass: 2
Flags: W
AnchorPoint: "Anchor-3" 600 1377 basechar 0
AnchorPoint: "Anchor-2" 600 -399 basechar 0
LayerCount: 2
Fore
SplineSet
982 145 m 1,0,-1
 1109 145 l 1,1,-1
 1109 -294 l 1,2,-1
 972 -294 l 1,3,-1
 943 0 l 1,4,-1
 871 0 l 1,5,-1
 494 591 l 1,6,-1
 203 591 l 1,7,-1
 203 727 l 1,8,-1
 509 727 l 2,9,10
 663 727 663 727 742 789.5 c 128,-1,11
 821 852 821 852 821 991 c 0,12,13
 821 1121 821 1121 745 1180 c 128,-1,14
 669 1239 669 1239 508 1239 c 2,15,-1
 145 1239 l 1,16,-1
 145 1377 l 1,17,-1
 488 1377 l 2,18,19
 743 1377 743 1377 874.5 1279 c 128,-1,20
 1006 1181 1006 1181 1006 991 c 0,21,22
 1006 843 1006 843 913 745.5 c 128,-1,23
 820 648 820 648 670 611 c 1,24,-1
 982 145 l 1,0,-1
EndSplineSet
Validated: 1
EndChar

StartChar: uni0508
Encoding: 1288 1288 413
Width: 1200
GlyphClass: 2
Flags: W
AnchorPoint: "Anchor-3" 600 1377 basechar 0
AnchorPoint: "Anchor-2" 600 0 basechar 0
LayerCount: 2
Fore
SplineSet
1164 753 m 1,0,1
 1173 613 1173 613 1173 501 c 0,2,3
 1173 321 1173 321 1130 202.5 c 128,-1,4
 1087 84 1087 84 1013 28.5 c 128,-1,5
 939 -27 939 -27 843 -27 c 0,6,7
 761 -27 761 -27 697 11 c 128,-1,8
 633 49 633 49 596 126 c 128,-1,9
 559 203 559 203 559 316 c 2,10,-1
 559 1233 l 1,11,-1
 370 1233 l 1,12,-1
 334 740 l 2,13,14
 314 468 314 468 286 325.5 c 128,-1,15
 258 183 258 183 220 116 c 128,-1,16
 182 49 182 49 111 -22 c 1,17,-1
 10 99 l 1,18,19
 51 142 51 142 75 197 c 128,-1,20
 99 252 99 252 120 384 c 128,-1,21
 141 516 141 516 161 776 c 2,22,-1
 209 1377 l 1,23,-1
 733 1377 l 1,24,-1
 733 309 l 2,25,26
 733 213 733 213 762 163 c 128,-1,27
 791 113 791 113 846 113 c 0,28,29
 915 113 915 113 957.5 201.5 c 128,-1,30
 1000 290 1000 290 1000 497 c 0,31,32
 1000 613 1000 613 990 753 c 1,33,-1
 1164 753 l 1,0,1
EndSplineSet
Validated: 1
EndChar

StartChar: uni050A
Encoding: 1290 1290 414
Width: 1200
GlyphClass: 2
Flags: W
AnchorPoint: "Anchor-3" 600 1377 basechar 0
AnchorPoint: "Anchor-2" 600 0 basechar 0
LayerCount: 2
Fore
SplineSet
1170 753 m 1,0,1
 1179 613 1179 613 1179 501 c 0,2,3
 1179 321 1179 321 1136 202.5 c 128,-1,4
 1093 84 1093 84 1019 28.5 c 128,-1,5
 945 -27 945 -27 850 -27 c 0,6,7
 769 -27 769 -27 705.5 11 c 128,-1,8
 642 49 642 49 605.5 126 c 128,-1,9
 569 203 569 203 569 316 c 2,10,-1
 569 654 l 1,11,-1
 270 654 l 1,12,-1
 270 0 l 1,13,-1
 98 0 l 1,14,-1
 98 1377 l 1,15,-1
 270 1377 l 1,16,-1
 270 799 l 1,17,-1
 569 799 l 1,18,-1
 569 1377 l 1,19,-1
 741 1377 l 1,20,-1
 741 309 l 2,21,22
 741 213 741 213 769.5 163 c 128,-1,23
 798 113 798 113 853 113 c 0,24,25
 922 113 922 113 964.5 201.5 c 128,-1,26
 1007 290 1007 290 1007 497 c 0,27,28
 1007 613 1007 613 997 753 c 1,29,-1
 1170 753 l 1,0,1
EndSplineSet
Validated: 1
EndChar

StartChar: uni050E
Encoding: 1294 1294 416
Width: 1200
GlyphClass: 2
Flags: W
AnchorPoint: "Anchor-3" 600 1377 basechar 0
AnchorPoint: "Anchor-2" 600 0 basechar 0
LayerCount: 2
Fore
SplineSet
1125 758 m 1,0,1
 1135 628 1135 628 1135 512 c 0,2,3
 1135 333 1135 333 1073.5 212 c 128,-1,4
 1012 91 1012 91 915.5 34 c 128,-1,5
 819 -23 819 -23 715 -23 c 0,6,7
 624 -23 624 -23 549.5 18.5 c 128,-1,8
 475 60 475 60 431 142.5 c 128,-1,9
 387 225 387 225 387 342 c 2,10,-1
 387 585 l 1,11,-1
 388 585 l 1,12,-1
 388 1225 l 1,13,-1
 31 1225 l 1,14,-1
 31 1377 l 1,15,-1
 970 1377 l 1,16,-1
 951 1225 l 1,17,-1
 561 1225 l 1,18,-1
 561 369 l 2,19,20
 561 115 561 115 723 115 c 0,21,22
 828 115 828 115 896.5 206.5 c 128,-1,23
 965 298 965 298 965 513 c 0,24,25
 965 616 965 616 955 758 c 1,26,-1
 1125 758 l 1,0,1
EndSplineSet
Validated: 1
EndChar

StartChar: uni0510
Encoding: 1296 1296 417
Width: 1200
Flags: W
LayerCount: 2
Fore
SplineSet
886.5 1357 m 128,-1,1
 1000 1315 1000 1315 1103 1229 c 1,2,-1
 1005 1125 l 1,3,4
 922 1191 922 1191 837 1224.5 c 128,-1,5
 752 1258 752 1258 643 1258 c 0,6,7
 510 1258 510 1258 426.5 1201 c 128,-1,8
 343 1144 343 1144 343 1036 c 0,9,10
 343 961 343 961 383.5 910.5 c 128,-1,11
 424 860 424 860 491.5 836 c 128,-1,12
 559 812 559 812 641 812 c 2,13,-1
 873 812 l 1,14,-1
 853 665 l 1,15,-1
 627 665 l 2,16,17
 480 665 480 665 392.5 600 c 128,-1,18
 305 535 305 535 305 401 c 0,19,20
 305 316 305 316 345 253.5 c 128,-1,21
 385 191 385 191 461.5 157 c 128,-1,22
 538 123 538 123 645 123 c 0,23,24
 851 123 851 123 1027 269 c 1,25,-1
 1130 173 l 1,26,27
 1041 79 1041 79 912.5 28 c 128,-1,28
 784 -23 784 -23 637 -23 c 0,29,30
 480 -23 480 -23 362.5 31.5 c 128,-1,31
 245 86 245 86 182 182 c 128,-1,32
 119 278 119 278 119 400 c 0,33,34
 119 503 119 503 164.5 578 c 128,-1,35
 210 653 210 653 285.5 696 c 128,-1,36
 361 739 361 739 450 749 c 1,37,38
 371 761 371 761 306 798 c 128,-1,39
 241 835 241 835 203 895.5 c 128,-1,40
 165 956 165 956 165 1034 c 0,41,42
 165 1142 165 1142 225 1225 c 128,-1,43
 285 1308 285 1308 393 1353.5 c 128,-1,44
 501 1399 501 1399 639 1399 c 0,45,0
 773 1399 773 1399 886.5 1357 c 128,-1,1
EndSplineSet
Validated: 1
EndChar

StartChar: uni0512
Encoding: 1298 1298 418
Width: 1200
GlyphClass: 2
Flags: W
AnchorPoint: "Anchor-3" 600 1377 basechar 0
AnchorPoint: "Anchor-2" 600 0 basechar 0
LayerCount: 2
Fore
SplineSet
338 1377 m 1,0,-1
 1033 1377 l 1,1,-1
 1033 -121 l 2,2,3
 1033 -269 1033 -269 955.5 -346 c 128,-1,4
 878 -423 878 -423 743 -423 c 0,5,6
 617 -423 617 -423 518 -349 c 1,7,-1
 584 -234 l 1,8,9
 624 -259 624 -259 656.5 -270 c 128,-1,10
 689 -281 689 -281 736 -281 c 0,11,12
 860 -281 860 -281 860 -131 c 2,13,-1
 860 1228 l 1,14,-1
 489 1228 l 1,15,-1
 441 820 l 2,16,17
 403 509 403 509 360.5 351 c 128,-1,18
 318 193 318 193 263.5 121 c 128,-1,19
 209 49 209 49 106 -22 c 1,20,-1
 30 107 l 1,21,22
 88 156 88 156 122.5 207.5 c 128,-1,23
 157 259 157 259 192.5 390 c 128,-1,24
 228 521 228 521 260 771 c 2,25,-1
 338 1377 l 1,0,-1
EndSplineSet
Validated: 1
EndChar

StartChar: uni0514
Encoding: 1300 1300 419
Width: 1200
GlyphClass: 2
Flags: W
AnchorPoint: "Anchor-3" 600 1377 basechar 0
AnchorPoint: "Anchor-2" 600 0 basechar 0
LayerCount: 2
Fore
SplineSet
903 737 m 1,0,-1
 1217 0 l 1,1,-1
 1039 0 l 1,2,-1
 792 613 l 1,3,-1
 556 0 l 1,4,-1
 387 0 l 1,5,-1
 697 736 l 1,6,-1
 484 1223 l 1,7,-1
 368 1223 l 1,8,-1
 333 740 l 2,9,10
 314 469 314 469 285.5 326 c 128,-1,11
 257 183 257 183 219 116 c 128,-1,12
 181 49 181 49 109 -22 c 1,13,-1
 9 99 l 1,14,15
 50 142 50 142 73.5 197 c 128,-1,16
 97 252 97 252 118 384.5 c 128,-1,17
 139 517 139 517 160 776 c 2,18,-1
 208 1377 l 1,19,-1
 593 1377 l 1,20,-1
 805 853 l 1,21,-1
 1012 1377 l 1,22,-1
 1179 1377 l 1,23,-1
 903 737 l 1,0,-1
EndSplineSet
Validated: 1
EndChar

StartChar: uni0516
Encoding: 1302 1302 420
Width: 1200
GlyphClass: 2
Flags: W
AnchorPoint: "Anchor-3" 600 1377 basechar 0
AnchorPoint: "Anchor-2" 600 0 basechar 0
LayerCount: 2
Fore
SplineSet
1178 0 m 1,0,-1
 989 0 l 1,1,-1
 666 642 l 1,2,3
 607 579 607 579 526 545 c 128,-1,4
 445 511 445 511 351 511 c 2,5,-1
 276 511 l 1,6,-1
 276 0 l 1,7,-1
 109 0 l 1,8,-1
 109 1377 l 1,9,-1
 351 1377 l 2,10,11
 485 1377 485 1377 582 1324 c 128,-1,12
 679 1271 679 1271 730 1175.5 c 128,-1,13
 781 1080 781 1080 781 954 c 0,14,15
 781 934 781 934 780 924 c 2,16,-1
 1003 1377 l 1,17,-1
 1175 1377 l 1,18,-1
 824 707 l 1,19,-1
 1178 0 l 1,0,-1
344 652 m 2,20,21
 468 652 468 652 542.5 722 c 128,-1,22
 617 792 617 792 617 952 c 0,23,24
 617 1094 617 1094 547 1166 c 128,-1,25
 477 1238 477 1238 355 1238 c 2,26,-1
 276 1238 l 1,27,-1
 276 652 l 1,28,-1
 344 652 l 2,20,21
EndSplineSet
Validated: 1
EndChar

StartChar: uni0518
Encoding: 1304 1304 421
Width: 1200
GlyphClass: 2
Flags: W
AnchorPoint: "Anchor-3" 600 1377 basechar 0
AnchorPoint: "Anchor-2" 600 0 basechar 0
LayerCount: 2
Fore
SplineSet
767 141 m 1,0,-1
 1196 141 l 1,1,-1
 1196 0 l 1,2,-1
 589 0 l 1,3,-1
 589 553 l 1,4,-1
 448 553 l 1,5,-1
 215 0 l 1,6,-1
 16 0 l 1,7,-1
 281 593 l 1,8,9
 159 646 159 646 98 741.5 c 128,-1,10
 37 837 37 837 37 967 c 0,11,12
 37 1091 37 1091 94.5 1183.5 c 128,-1,13
 152 1276 152 1276 261.5 1326.5 c 128,-1,14
 371 1377 371 1377 523 1377 c 2,15,-1
 1178 1377 l 1,16,-1
 1157 1234 l 1,17,-1
 767 1234 l 1,18,-1
 767 771 l 1,19,-1
 1078 771 l 1,20,-1
 1078 628 l 1,21,-1
 767 628 l 1,22,-1
 767 141 l 1,0,-1
589 695 m 1,23,-1
 589 1238 l 1,24,-1
 503 1238 l 2,25,26
 372 1238 372 1238 299.5 1169 c 128,-1,27
 227 1100 227 1100 227 967 c 0,28,29
 227 831 227 831 292 763 c 128,-1,30
 357 695 357 695 469 695 c 2,31,-1
 589 695 l 1,23,-1
EndSplineSet
Validated: 1
EndChar

StartChar: uni051E
Encoding: 1310 1310 424
Width: 1200
GlyphClass: 2
Flags: W
AnchorPoint: "Anchor-3" 628 1377 basechar 0
AnchorPoint: "Anchor-2" 589 0 basechar 0
LayerCount: 2
Fore
SplineSet
825 960 m 1,0,-1
 660 729 l 1,1,-1
 1162 0 l 1,2,-1
 952 0 l 1,3,-1
 512 651 l 1,4,-1
 352 651 l 1,5,-1
 352 0 l 1,6,-1
 178 0 l 1,7,-1
 178 1377 l 1,8,-1
 352 1377 l 1,9,-1
 352 797 l 1,10,-1
 514 797 l 1,11,-1
 695 1045 l 1,12,-1
 455 1201 l 1,13,-1
 531 1313 l 1,14,-1
 774 1155 l 1,15,-1
 936 1377 l 1,16,-1
 1124 1377 l 1,17,-1
 904 1070 l 1,18,-1
 1121 929 l 1,19,-1
 1045 817 l 1,20,-1
 825 960 l 1,0,-1
EndSplineSet
Validated: 1
EndChar

StartChar: uni0520
Encoding: 1312 1312 425
Width: 1200
GlyphClass: 2
Flags: W
AnchorPoint: "Anchor-3" 600 1377 basechar 0
AnchorPoint: "Anchor-2" 600 -399 basechar 0
LayerCount: 2
Fore
SplineSet
1041 864.5 m 128,-1,1
 1102 827 1102 827 1134.5 760.5 c 128,-1,2
 1167 694 1167 694 1167 611 c 2,3,-1
 1167 -117 l 2,4,5
 1167 -216 1167 -216 1129.5 -285 c 128,-1,6
 1092 -354 1092 -354 1026 -388.5 c 128,-1,7
 960 -423 960 -423 874 -423 c 0,8,9
 803 -423 803 -423 746.5 -402 c 128,-1,10
 690 -381 690 -381 648 -349 c 1,11,-1
 716 -233 l 1,12,13
 757 -257 757 -257 788.5 -268 c 128,-1,14
 820 -279 820 -279 867 -279 c 0,15,16
 927 -279 927 -279 959 -241.5 c 128,-1,17
 991 -204 991 -204 991 -129 c 2,18,-1
 991 591 l 2,19,20
 991 749 991 749 869 749 c 0,21,22
 826 749 826 749 788 732 c 128,-1,23
 750 715 750 715 709 678 c 1,24,-1
 709 0 l 1,25,-1
 535 0 l 1,26,-1
 535 1233 l 1,27,-1
 347 1233 l 1,28,-1
 311 740 l 2,29,30
 291 468 291 468 262.5 325 c 128,-1,31
 234 182 234 182 196 115.5 c 128,-1,32
 158 49 158 49 87 -22 c 1,33,-1
 -13 99 l 1,34,35
 28 142 28 142 51.5 197 c 128,-1,36
 75 252 75 252 96 384.5 c 128,-1,37
 117 517 117 517 137 776 c 2,38,-1
 185 1377 l 1,39,-1
 709 1377 l 1,40,-1
 709 822 l 1,41,42
 749 861 749 861 794.5 881.5 c 128,-1,43
 840 902 840 902 898 902 c 0,44,0
 980 902 980 902 1041 864.5 c 128,-1,1
EndSplineSet
Validated: 1
EndChar

StartChar: uni0522
Encoding: 1314 1314 426
Width: 1200
GlyphClass: 2
Flags: W
AnchorPoint: "Anchor-3" 600 1377 basechar 0
AnchorPoint: "Anchor-2" 600 -399 basechar 0
LayerCount: 2
Fore
SplineSet
1051.5 863 m 128,-1,1
 1117 824 1117 824 1152 753 c 128,-1,2
 1187 682 1187 682 1187 588 c 2,3,-1
 1187 -117 l 2,4,5
 1187 -216 1187 -216 1149.5 -285 c 128,-1,6
 1112 -354 1112 -354 1046.5 -388.5 c 128,-1,7
 981 -423 981 -423 896 -423 c 0,8,9
 770 -423 770 -423 671 -349 c 1,10,-1
 738 -233 l 1,11,12
 778 -258 778 -258 810 -269 c 128,-1,13
 842 -280 842 -280 889 -280 c 0,14,15
 1013 -280 1013 -280 1013 -130 c 2,16,-1
 1013 591 l 2,17,18
 1013 670 1013 670 976 709.5 c 128,-1,19
 939 749 939 749 871 749 c 0,20,21
 824 749 824 749 781.5 731 c 128,-1,22
 739 713 739 713 695 675 c 1,23,-1
 695 0 l 1,24,-1
 523 0 l 1,25,-1
 523 654 l 1,26,-1
 225 654 l 1,27,-1
 225 0 l 1,28,-1
 53 0 l 1,29,-1
 53 1377 l 1,30,-1
 225 1377 l 1,31,-1
 225 799 l 1,32,-1
 523 799 l 1,33,-1
 523 1377 l 1,34,-1
 695 1377 l 1,35,-1
 695 822 l 1,36,37
 781 902 781 902 898 902 c 0,38,0
 986 902 986 902 1051.5 863 c 128,-1,1
EndSplineSet
Validated: 1
EndChar

StartChar: uni048C
Encoding: 1164 1164 427
Width: 1200
GlyphClass: 2
Flags: W
AnchorPoint: "Anchor-3" 600 1377 basechar 0
AnchorPoint: "Anchor-2" 600 0 basechar 0
LayerCount: 2
Fore
SplineSet
627 857 m 2,0,1
 784 857 784 857 898.5 811 c 128,-1,2
 1013 765 1013 765 1075.5 672 c 128,-1,3
 1138 579 1138 579 1138 442 c 0,4,5
 1138 217 1138 217 994 108.5 c 128,-1,6
 850 0 850 0 602 0 c 2,7,-1
 251 0 l 1,8,-1
 251 1062 l 1,9,-1
 60 1062 l 1,10,-1
 60 1188 l 1,11,-1
 251 1188 l 1,12,-1
 251 1377 l 1,13,-1
 424 1377 l 1,14,-1
 424 1188 l 1,15,-1
 687 1188 l 1,16,-1
 687 1062 l 1,17,-1
 424 1062 l 1,18,-1
 424 857 l 1,19,-1
 627 857 l 2,0,1
623 141 m 2,20,21
 780 141 780 141 866.5 207.5 c 128,-1,22
 953 274 953 274 953 438 c 0,23,24
 953 588 953 588 870 653.5 c 128,-1,25
 787 719 787 719 631 719 c 2,26,-1
 424 719 l 1,27,-1
 424 141 l 1,28,-1
 623 141 l 2,20,21
EndSplineSet
Validated: 1
EndChar

StartChar: uni048E
Encoding: 1166 1166 428
Width: 1200
GlyphClass: 2
Flags: W
AnchorPoint: "Anchor-3" 600 1377 basechar 0
AnchorPoint: "Anchor-2" 600 0 basechar 0
LayerCount: 2
Fore
SplineSet
1070 751 m 128,-1,1
 1026 665 1026 665 945 608 c 1,2,-1
 1111 336 l 1,3,-1
 953 336 l 1,4,-1
 824 548 l 1,5,6
 717 511 717 511 581 511 c 2,7,-1
 405 511 l 1,8,-1
 405 0 l 1,9,-1
 231 0 l 1,10,-1
 231 1377 l 1,11,-1
 583 1377 l 2,12,13
 836 1377 836 1377 975 1270.5 c 128,-1,14
 1114 1164 1114 1164 1114 949 c 0,15,0
 1114 837 1114 837 1070 751 c 128,-1,1
595 651 m 2,16,17
 685 651 685 651 749 669 c 1,18,-1
 573 958 l 1,19,-1
 731 958 l 1,20,-1
 865 739 l 1,21,22
 926 809 926 809 926 947 c 0,23,24
 926 1102 926 1102 839.5 1170.5 c 128,-1,25
 753 1239 753 1239 602 1239 c 2,26,-1
 405 1239 l 1,27,-1
 405 651 l 1,28,-1
 595 651 l 2,16,17
EndSplineSet
Validated: 1
EndChar

StartChar: uni0528
Encoding: 1320 1320 429
Width: 1200
GlyphClass: 2
Flags: W
AnchorPoint: "Anchor-3" 600 1377 basechar 0
AnchorPoint: "Anchor-2" 600 0 basechar 0
LayerCount: 2
Fore
SplineSet
860 1377 m 1,0,-1
 1033 1377 l 1,1,-1
 1033 0 l 1,2,-1
 860 0 l 1,3,-1
 860 653 l 1,4,-1
 340 653 l 1,5,-1
 340 -124 l 2,6,7
 340 -272 340 -272 263 -348.5 c 128,-1,8
 186 -425 186 -425 50 -425 c 0,9,10
 -77 -425 -77 -425 -174 -351 c 1,11,-1
 -109 -236 l 1,12,13
 -68 -261 -68 -261 -35.5 -272 c 128,-1,14
 -3 -283 -3 -283 43 -283 c 0,15,16
 167 -283 167 -283 167 -134 c 2,17,-1
 167 1377 l 1,18,-1
 340 1377 l 1,19,-1
 340 795 l 1,20,-1
 860 795 l 1,21,-1
 860 1377 l 1,0,-1
EndSplineSet
Validated: 1
EndChar

StartChar: uni052A
Encoding: 1322 1322 430
Width: 1200
GlyphClass: 2
Flags: W
AnchorPoint: "Anchor-3" 600 1377 basechar 0
AnchorPoint: "Anchor-2" 600 -399 basechar 0
LayerCount: 2
Fore
SplineSet
1029 725 m 1,0,-1
 1223 0 l 1,1,-1
 1057 0 l 1,2,-1
 904 647 l 1,3,-1
 852 647 l 1,4,-1
 852 0 l 1,5,-1
 735 0 l 1,6,-1
 735 -294 l 1,7,-1
 605 -294 l 1,8,-1
 575 0 l 1,9,-1
 131 0 l 1,10,-1
 101 -294 l 1,11,-1
 -25 -294 l 1,12,-1
 -25 129 l 1,13,-1
 41 129 l 1,14,15
 73 215 73 215 94 290.5 c 128,-1,16
 115 366 115 366 136 506 c 128,-1,17
 157 646 157 646 172 869 c 2,18,-1
 205 1377 l 1,19,-1
 603 1377 l 1,20,-1
 603 791 l 1,21,-1
 706 791 l 1,22,-1
 706 1377 l 1,23,-1
 852 1377 l 1,24,-1
 852 791 l 1,25,-1
 907 791 l 1,26,-1
 1038 1377 l 1,27,-1
 1183 1377 l 1,28,-1
 1029 725 l 1,0,-1
458 1243 m 1,29,-1
 347 1243 l 1,30,-1
 327 862 l 2,31,32
 316 645 316 645 297 507 c 128,-1,33
 278 369 278 369 250 283.5 c 128,-1,34
 222 198 222 198 179 129 c 1,35,-1
 458 129 l 1,36,-1
 458 1243 l 1,29,-1
706 129 m 1,37,-1
 706 647 l 1,38,-1
 603 647 l 1,39,-1
 603 129 l 1,40,-1
 706 129 l 1,37,-1
EndSplineSet
Validated: 1
EndChar

StartChar: uni052C
Encoding: 1324 1324 431
Width: 1200
GlyphClass: 2
Flags: W
AnchorPoint: "Anchor-3" 600 1377 basechar 0
AnchorPoint: "Anchor-2" 600 -399 basechar 0
LayerCount: 2
Fore
SplineSet
1053 145 m 1,0,-1
 1125 145 l 1,1,-1
 1125 -294 l 1,2,-1
 988 -294 l 1,3,-1
 958 0 l 1,4,-1
 273 0 l 1,5,-1
 243 -294 l 1,6,-1
 106 -294 l 1,7,-1
 106 145 l 1,8,-1
 179 145 l 1,9,-1
 179 146 l 1,10,11
 239 210 239 210 297 342.5 c 128,-1,12
 355 475 355 475 400 691 c 1,13,14
 259 727 259 727 190.5 829.5 c 128,-1,15
 122 932 122 932 121 1117 c 2,16,-1
 121 1377 l 1,17,-1
 301 1377 l 1,18,-1
 301 1123 l 2,19,20
 301 1009 301 1009 330 941.5 c 128,-1,21
 359 874 359 874 427 843 c 1,22,23
 436 895 436 895 446 976 c 2,24,-1
 497 1377 l 1,25,-1
 1053 1377 l 1,26,-1
 1053 145 l 1,0,-1
655 1229 m 1,27,-1
 625 969 l 2,28,29
 617 898 617 898 605 814 c 1,30,-1
 880 814 l 1,31,-1
 880 1229 l 1,32,-1
 655 1229 l 1,27,-1
880 145 m 1,33,-1
 880 672 l 1,34,-1
 591 671 l 1,35,-1
 581 671 l 1,36,37
 539 455 539 455 483.5 339 c 128,-1,38
 428 223 428 223 354 145 c 1,39,-1
 880 145 l 1,33,-1
EndSplineSet
Validated: 1
EndChar

StartChar: uni052E
Encoding: 1326 1326 432
Width: 1200
Flags: W
LayerCount: 2
Fore
SplineSet
972 145 m 1,0,-1
 1095 145 l 1,1,-1
 1095 -294 l 1,2,-1
 958 -294 l 1,3,-1
 928 0 l 1,4,-1
 799 0 l 1,5,-1
 799 1228 l 1,6,-1
 466 1228 l 1,7,-1
 417 820 l 2,8,9
 379 509 379 509 337 350.5 c 128,-1,10
 295 192 295 192 240.5 120.5 c 128,-1,11
 186 49 186 49 83 -22 c 1,12,-1
 7 107 l 1,13,14
 65 156 65 156 99 207.5 c 128,-1,15
 133 259 133 259 168.5 390 c 128,-1,16
 204 521 204 521 237 771 c 2,17,-1
 315 1377 l 1,18,-1
 972 1377 l 1,19,-1
 972 145 l 1,0,-1
EndSplineSet
Validated: 1
EndChar

StartChar: uni0431
Encoding: 1073 1073 434
Width: 1200
GlyphClass: 2
Flags: W
AnchorPoint: "Anchor-3" 600 1477 basechar 0
AnchorPoint: "Anchor-2" 600 0 basechar 0
LayerCount: 2
Fore
SplineSet
865.5 926 m 128,-1,1
 952 868 952 868 999.5 759.5 c 128,-1,2
 1047 651 1047 651 1047 503 c 0,3,4
 1047 337 1047 337 990.5 218.5 c 128,-1,5
 934 100 934 100 832.5 38.5 c 128,-1,6
 731 -23 731 -23 598 -23 c 0,7,8
 468 -23 468 -23 367.5 41.5 c 128,-1,9
 267 106 267 106 209 240 c 128,-1,10
 151 374 151 374 151 577 c 0,11,12
 151 806 151 806 184.5 954.5 c 128,-1,13
 218 1103 218 1103 301.5 1198.5 c 128,-1,14
 385 1294 385 1294 537 1347 c 0,15,16
 659 1390 659 1390 727 1421 c 128,-1,17
 795 1452 795 1452 865 1500 c 1,18,-1
 939 1369 l 1,19,20
 875 1330 875 1330 800.5 1293.5 c 128,-1,21
 726 1257 726 1257 619 1218 c 0,22,23
 527 1184 527 1184 471.5 1141.5 c 128,-1,24
 416 1099 416 1099 380.5 1016.5 c 128,-1,25
 345 934 345 934 331 791 c 1,26,27
 385 881 385 881 470.5 932.5 c 128,-1,28
 556 984 556 984 664 984 c 0,29,0
 779 984 779 984 865.5 926 c 128,-1,1
792 200 m 128,-1,31
 863 284 863 284 863 497 c 0,32,33
 863 845 863 845 637 845 c 0,34,35
 547 845 547 845 467.5 795 c 128,-1,36
 388 745 388 745 335 639 c 1,37,-1
 335 511 l 2,38,39
 335 386 335 386 367 297 c 128,-1,40
 399 208 399 208 458 162 c 128,-1,41
 517 116 517 116 598 116 c 0,42,30
 721 116 721 116 792 200 c 128,-1,31
EndSplineSet
Validated: 1
EndChar

StartChar: uni0432
Encoding: 1074 1074 435
Width: 1200
Flags: W
LayerCount: 2
Fore
SplineSet
999 493.5 m 128,-1,1
 1065 430 1065 430 1065 311 c 0,2,3
 1065 205 1065 205 1006 135 c 128,-1,4
 947 65 947 65 847 32.5 c 128,-1,5
 747 0 747 0 621 0 c 2,6,-1
 223 0 l 1,7,-1
 223 1039 l 1,8,9
 412 1075 412 1075 581 1075 c 0,10,11
 712 1075 712 1075 808.5 1043 c 128,-1,12
 905 1011 905 1011 957 949.5 c 128,-1,13
 1009 888 1009 888 1009 801 c 256,14,15
 1009 714 1009 714 961 657 c 128,-1,16
 913 600 913 600 797 571 c 1,17,0
 933 557 933 557 999 493.5 c 128,-1,1
484 938 m 128,-1,19
 442 935 442 935 391 929 c 1,20,-1
 391 623 l 1,21,-1
 608 623 l 2,22,23
 719 623 719 623 777.5 660 c 128,-1,24
 836 697 836 697 836 785 c 0,25,26
 836 869 836 869 774.5 905 c 128,-1,27
 713 941 713 941 583 941 c 0,28,18
 526 941 526 941 484 938 c 128,-1,19
617 136 m 2,29,30
 753 136 753 136 819 178 c 128,-1,31
 885 220 885 220 885 310 c 0,32,33
 885 414 885 414 810.5 452.5 c 128,-1,34
 736 491 736 491 619 491 c 2,35,-1
 391 491 l 1,36,-1
 391 136 l 1,37,-1
 617 136 l 2,29,30
EndSplineSet
Validated: 1
EndChar

StartChar: uni0433
Encoding: 1075 1075 436
Width: 1200
GlyphClass: 2
Flags: W
AnchorPoint: "Anchor-3" 681 1053 basechar 0
AnchorPoint: "Anchor-2" 400 0 basechar 0
LayerCount: 2
Fore
SplineSet
484 912 m 1,0,-1
 484 0 l 1,1,-1
 316 0 l 1,2,-1
 316 1053 l 1,3,-1
 1049 1053 l 1,4,-1
 1029 912 l 1,5,-1
 484 912 l 1,0,-1
EndSplineSet
Validated: 1
EndChar

StartChar: uni0491
Encoding: 1169 1169 438
Width: 1200
GlyphClass: 2
Flags: W
AnchorPoint: "Anchor-3" 681 1053 basechar 0
AnchorPoint: "Anchor-2" 400 0 basechar 0
LayerCount: 2
Fore
SplineSet
877 1053 m 1,0,-1
 877 1319 l 1,1,-1
 1049 1319 l 1,2,-1
 1049 1053 l 1,3,-1
 1029 912 l 1,4,-1
 484 912 l 1,5,-1
 484 0 l 1,6,-1
 316 0 l 1,7,-1
 316 1053 l 1,8,-1
 877 1053 l 1,0,-1
EndSplineSet
Validated: 1
EndChar

StartChar: uni0434
Encoding: 1076 1076 439
Width: 1200
GlyphClass: 2
Flags: W
AnchorPoint: "Anchor-3" 600 1053 basechar 0
AnchorPoint: "Anchor-2" 600 -399 basechar 0
LayerCount: 2
Fore
SplineSet
993 137 m 1,0,-1
 1070 137 l 1,1,-1
 1070 -294 l 1,2,-1
 931 -294 l 1,3,-1
 901 0 l 1,4,-1
 221 0 l 1,5,-1
 192 -294 l 1,6,-1
 52 -294 l 1,7,-1
 52 137 l 1,8,-1
 123 137 l 1,9,10
 173 180 173 180 204 242 c 128,-1,11
 235 304 235 304 255.5 414 c 128,-1,12
 276 524 276 524 289 713 c 2,13,-1
 313 1053 l 1,14,-1
 993 1053 l 1,15,-1
 993 137 l 1,0,-1
822 916 m 1,16,-1
 465 916 l 1,17,-1
 453 725 l 2,18,19
 440 527 440 527 420 417 c 128,-1,20
 400 307 400 307 365 245 c 128,-1,21
 330 183 330 183 267 137 c 1,22,-1
 822 137 l 1,23,-1
 822 916 l 1,16,-1
EndSplineSet
Validated: 1
EndChar

StartChar: uni0436
Encoding: 1078 1078 443
Width: 1200
GlyphClass: 2
Flags: W
AnchorPoint: "Anchor-3" 600 1053 basechar 0
AnchorPoint: "Anchor-2" 600 0 basechar 0
LayerCount: 2
Fore
SplineSet
675 0 m 1,0,-1
 525 0 l 1,1,-1
 525 493 l 1,2,-1
 413 493 l 1,3,-1
 205 0 l 1,4,-1
 39 0 l 1,5,-1
 283 565 l 1,6,-1
 59 1053 l 1,7,-1
 229 1053 l 1,8,-1
 413 625 l 1,9,-1
 525 625 l 1,10,-1
 525 1053 l 1,11,-1
 675 1053 l 1,12,-1
 675 625 l 1,13,-1
 787 625 l 1,14,-1
 976 1053 l 1,15,-1
 1141 1053 l 1,16,-1
 917 565 l 1,17,-1
 1161 0 l 1,18,-1
 990 0 l 1,19,-1
 783 493 l 1,20,-1
 675 493 l 1,21,-1
 675 0 l 1,0,-1
EndSplineSet
Validated: 1
EndChar

StartChar: uni0437
Encoding: 1079 1079 444
Width: 1200
GlyphClass: 2
Flags: W
AnchorPoint: "Anchor-3" 587 1054 basechar 0
AnchorPoint: "Anchor-2" 601 0 basechar 0
LayerCount: 2
Fore
SplineSet
573 619 m 2,0,1
 678 619 678 619 739.5 662.5 c 128,-1,2
 801 706 801 706 801 777 c 0,3,4
 801 860 801 860 736.5 900.5 c 128,-1,5
 672 941 672 941 551 941 c 0,6,7
 470 941 470 941 384 916.5 c 128,-1,8
 298 892 298 892 227 847 c 1,9,-1
 147 948 l 1,10,11
 226 1007 226 1007 336.5 1041 c 128,-1,12
 447 1075 447 1075 557 1075 c 0,13,14
 676 1075 676 1075 770.5 1043 c 128,-1,15
 865 1011 865 1011 920 946.5 c 128,-1,16
 975 882 975 882 975 789 c 0,17,18
 975 704 975 704 917.5 647 c 128,-1,19
 860 590 860 590 762 562 c 1,20,21
 837 554 837 554 898.5 523.5 c 128,-1,22
 960 493 960 493 997 440 c 128,-1,23
 1034 387 1034 387 1034 315 c 0,24,25
 1034 207 1034 207 973 131 c 128,-1,26
 912 55 912 55 803.5 16 c 128,-1,27
 695 -23 695 -23 556 -23 c 0,28,29
 292 -23 292 -23 108 124 c 1,30,-1
 188 232 l 1,31,32
 267 175 267 175 357 145.5 c 128,-1,33
 447 116 447 116 561 116 c 0,34,35
 703 116 703 116 777 168 c 128,-1,36
 851 220 851 220 851 311 c 0,37,38
 851 482 851 482 583 482 c 2,39,-1
 371 482 l 1,40,-1
 383 619 l 1,41,-1
 573 619 l 2,0,1
EndSplineSet
Validated: 1
EndChar

StartChar: uni0438
Encoding: 1080 1080 445
Width: 1200
GlyphClass: 2
Flags: W
AnchorPoint: "Anchor-3" 600 1053 basechar 0
AnchorPoint: "Anchor-2" 600 0 basechar 0
LayerCount: 2
Fore
SplineSet
999 1053 m 1,0,-1
 999 0 l 1,1,-1
 831 0 l 1,2,-1
 831 493 l 2,3,4
 831 695 831 695 853 859 c 1,5,-1
 405 0 l 1,6,-1
 201 0 l 1,7,-1
 201 1053 l 1,8,-1
 369 1053 l 1,9,-1
 369 561 l 2,10,11
 369 461 369 461 363 361 c 128,-1,12
 357 261 357 261 348 198 c 1,13,-1
 791 1053 l 1,14,-1
 999 1053 l 1,0,-1
EndSplineSet
Validated: 1
EndChar

StartChar: uni048B
Encoding: 1163 1163 448
Width: 1200
Flags: W
LayerCount: 2
Fore
SplineSet
430 1319 m 128,-1,1
 366 1345 366 1345 325.5 1396 c 128,-1,2
 285 1447 285 1447 277 1519 c 1,3,-1
 394 1544 l 1,4,5
 415 1480 415 1480 457.5 1452 c 128,-1,6
 500 1424 500 1424 572 1424 c 0,7,8
 645 1424 645 1424 691 1452 c 128,-1,9
 737 1480 737 1480 758 1544 c 1,10,-1
 873 1519 l 1,11,12
 865 1447 865 1447 823.5 1396 c 128,-1,13
 782 1345 782 1345 716.5 1319 c 128,-1,14
 651 1293 651 1293 572 1293 c 0,15,0
 494 1293 494 1293 430 1319 c 128,-1,1
967 132 m 1,16,-1
 1122 132 l 1,17,-1
 990 -294 l 1,18,-1
 852 -294 l 1,19,-1
 921 0 l 1,20,-1
 804 0 l 1,21,-1
 804 493 l 2,22,23
 804 622 804 622 809.5 730.5 c 128,-1,24
 815 839 815 839 823 898 c 1,25,-1
 389 0 l 1,26,-1
 186 0 l 1,27,-1
 186 1053 l 1,28,-1
 349 1053 l 1,29,-1
 349 561 l 2,30,31
 349 444 349 444 341 330.5 c 128,-1,32
 333 217 333 217 323 159 c 1,33,-1
 762 1053 l 1,34,-1
 967 1053 l 1,35,-1
 967 132 l 1,16,-1
EndSplineSet
Validated: 1
EndChar

StartChar: uni043A
Encoding: 1082 1082 449
Width: 1200
GlyphClass: 2
Flags: W
AnchorPoint: "Anchor-3" 640 1053 basechar 0
AnchorPoint: "Anchor-2" 600 0 basechar 0
LayerCount: 2
Fore
SplineSet
379 0 m 1,0,-1
 211 0 l 1,1,-1
 211 1053 l 1,2,-1
 379 1053 l 1,3,-1
 379 627 l 1,4,-1
 590 627 l 1,5,-1
 894 1053 l 1,6,-1
 1083 1053 l 1,7,-1
 729 565 l 1,8,-1
 1138 0 l 1,9,-1
 935 0 l 1,10,-1
 587 491 l 1,11,-1
 379 491 l 1,12,-1
 379 0 l 1,0,-1
EndSplineSet
Validated: 1
EndChar

StartChar: uni043B
Encoding: 1083 1083 451
Width: 1200
GlyphClass: 2
Flags: W
AnchorPoint: "Anchor-3" 600 1053 basechar 0
AnchorPoint: "Anchor-2" 600 0 basechar 0
LayerCount: 2
Fore
SplineSet
1020 1053 m 1,0,-1
 1020 0 l 1,1,-1
 852 0 l 1,2,-1
 852 913 l 1,3,-1
 458 913 l 1,4,-1
 434 635 l 2,5,6
 416 400 416 400 387 279 c 128,-1,7
 358 158 358 158 307 96 c 128,-1,8
 256 34 256 34 155 -22 c 1,9,-1
 84 86 l 1,10,11
 142 122 142 122 174.5 166.5 c 128,-1,12
 207 211 207 211 232 317.5 c 128,-1,13
 257 424 257 424 273 627 c 2,14,-1
 306 1053 l 1,15,-1
 1020 1053 l 1,0,-1
EndSplineSet
Validated: 1
EndChar

StartChar: uni043C
Encoding: 1084 1084 452
Width: 1200
GlyphClass: 2
Flags: W
AnchorPoint: "Anchor-3" 600 1053 basechar 0
AnchorPoint: "Anchor-2" 600 0 basechar 0
LayerCount: 2
Fore
SplineSet
1039 1053 m 1,0,-1
 1115 0 l 1,1,-1
 954 0 l 1,2,-1
 913 515 l 2,3,4
 903 662 903 662 903 794 c 0,5,6
 903 854 903 854 904 886 c 1,7,-1
 896 886 l 1,8,-1
 687 177 l 1,9,-1
 519 177 l 1,10,-1
 287 886 l 1,11,-1
 279 886 l 1,12,13
 281 850 281 850 281 771 c 0,14,15
 281 653 281 653 274 518 c 2,16,-1
 244 0 l 1,17,-1
 85 0 l 1,18,-1
 159 1053 l 1,19,-1
 380 1053 l 1,20,-1
 606 334 l 1,21,-1
 815 1053 l 1,22,-1
 1039 1053 l 1,0,-1
EndSplineSet
Validated: 1
EndChar

StartChar: uni043D
Encoding: 1085 1085 453
Width: 1200
Flags: W
LayerCount: 2
Fore
SplineSet
999 0 m 1,0,-1
 831 0 l 1,1,-1
 831 469 l 1,2,-1
 369 469 l 1,3,-1
 369 0 l 1,4,-1
 201 0 l 1,5,-1
 201 1053 l 1,6,-1
 369 1053 l 1,7,-1
 369 607 l 1,8,-1
 831 607 l 1,9,-1
 831 1053 l 1,10,-1
 999 1053 l 1,11,-1
 999 0 l 1,0,-1
EndSplineSet
Validated: 1
EndChar

StartChar: uni043F
Encoding: 1087 1087 455
Width: 1200
GlyphClass: 2
Flags: W
AnchorPoint: "Anchor-3" 600 1053 basechar 0
AnchorPoint: "Anchor-2" 600 0 basechar 0
LayerCount: 2
Fore
SplineSet
999 0 m 1,0,-1
 831 0 l 1,1,-1
 831 915 l 1,2,-1
 369 915 l 1,3,-1
 369 0 l 1,4,-1
 201 0 l 1,5,-1
 201 1053 l 1,6,-1
 999 1053 l 1,7,-1
 999 0 l 1,0,-1
EndSplineSet
Validated: 1
EndChar

StartChar: uni0442
Encoding: 1090 1090 458
Width: 1200
GlyphClass: 2
Flags: W
AnchorPoint: "Anchor-3" 600 1053 basechar 0
AnchorPoint: "Anchor-2" 600 0 basechar 0
LayerCount: 2
Fore
SplineSet
131 1053 m 1,0,-1
 1081 1053 l 1,1,-1
 1061 913 l 1,2,-1
 684 913 l 1,3,-1
 684 0 l 1,4,-1
 516 0 l 1,5,-1
 516 913 l 1,6,-1
 131 913 l 1,7,-1
 131 1053 l 1,0,-1
EndSplineSet
Validated: 1
EndChar

StartChar: uni0444
Encoding: 1092 1092 461
Width: 1200
GlyphClass: 2
Flags: W
AnchorPoint: "Anchor-3" 600 1477 basechar 0
AnchorPoint: "Anchor-2" 600 -399 basechar 0
LayerCount: 2
Fore
SplineSet
524 1498 m 1,0,-1
 676 1477 l 1,1,-1
 676 969 l 1,2,3
 761 1075 761 1075 872 1075 c 0,4,5
 1021 1075 1021 1075 1082 934.5 c 128,-1,6
 1143 794 1143 794 1143 528 c 0,7,8
 1143 362 1143 362 1109.5 237.5 c 128,-1,9
 1076 113 1076 113 1011 45 c 128,-1,10
 946 -23 946 -23 855 -23 c 0,11,12
 807 -23 807 -23 761 5 c 128,-1,13
 715 33 715 33 676 89 c 1,14,-1
 676 -403 l 1,15,-1
 524 -424 l 1,16,-1
 524 89 l 1,17,18
 486 34 486 34 437.5 5.5 c 128,-1,19
 389 -23 389 -23 341 -23 c 0,20,21
 250 -23 250 -23 186 45 c 128,-1,22
 122 113 122 113 89.5 237 c 128,-1,23
 57 361 57 361 57 528 c 0,24,25
 57 791 57 791 122.5 933 c 128,-1,26
 188 1075 188 1075 337 1075 c 0,27,28
 390 1075 390 1075 436 1050.5 c 128,-1,29
 482 1026 482 1026 524 973 c 1,30,-1
 524 1498 l 1,0,-1
267 845.5 m 128,-1,32
 232 748 232 748 232 528 c 0,33,34
 232 307 232 307 267 209 c 128,-1,35
 302 111 302 111 375 111 c 0,36,37
 416 111 416 111 447 134 c 128,-1,38
 478 157 478 157 524 213 c 1,39,-1
 524 849 l 1,40,41
 479 901 479 901 449 922 c 128,-1,42
 419 943 419 943 375 943 c 0,43,31
 302 943 302 943 267 845.5 c 128,-1,32
752.5 920.5 m 128,-1,45
 717 898 717 898 676 847 c 1,46,-1
 676 213 l 1,47,48
 715 159 715 159 746.5 135 c 128,-1,49
 778 111 778 111 820 111 c 0,50,51
 895 111 895 111 933 210.5 c 128,-1,52
 971 310 971 310 971 528 c 0,53,54
 971 678 971 678 957 768.5 c 128,-1,55
 943 859 943 859 913.5 901 c 128,-1,56
 884 943 884 943 835 943 c 0,57,44
 788 943 788 943 752.5 920.5 c 128,-1,45
EndSplineSet
Validated: 1
EndChar

StartChar: uni0447
Encoding: 1095 1095 463
Width: 1200
GlyphClass: 2
Flags: W
AnchorPoint: "Anchor-3" 574 1053 basechar 0
AnchorPoint: "Anchor-2" 600 0 basechar 0
LayerCount: 2
Fore
SplineSet
978 1053 m 1,0,-1
 978 0 l 1,1,-1
 810 0 l 1,2,-1
 810 446 l 1,3,4
 750 391 750 391 663 359 c 128,-1,5
 576 327 576 327 479 327 c 0,6,7
 328 327 328 327 249 408 c 128,-1,8
 170 489 170 489 170 637 c 2,9,-1
 170 1053 l 1,10,-1
 338 1053 l 1,11,-1
 338 657 l 2,12,13
 338 553 338 553 382.5 507 c 128,-1,14
 427 461 427 461 521 461 c 0,15,16
 599 461 599 461 680.5 494 c 128,-1,17
 762 527 762 527 810 581 c 1,18,-1
 810 1053 l 1,19,-1
 978 1053 l 1,0,-1
EndSplineSet
Validated: 1
EndChar

StartChar: uni0446
Encoding: 1094 1094 464
Width: 1200
GlyphClass: 2
Flags: W
AnchorPoint: "Anchor-2" 588 0 basechar 0
LayerCount: 2
Fore
SplineSet
987 1053 m 1,0,-1
 987 137 l 1,1,-1
 1149 137 l 1,2,-1
 1149 -294 l 1,3,-1
 1010 -294 l 1,4,-1
 981 0 l 1,5,-1
 189 0 l 1,6,-1
 189 1053 l 1,7,-1
 357 1053 l 1,8,-1
 357 140 l 1,9,-1
 819 140 l 1,10,-1
 819 1053 l 1,11,-1
 987 1053 l 1,0,-1
EndSplineSet
Validated: 1048577
EndChar

StartChar: uni0448
Encoding: 1096 1096 465
Width: 1200
GlyphClass: 2
Flags: W
AnchorPoint: "Anchor-3" 600 1053 basechar 0
AnchorPoint: "Anchor-2" 600 0 basechar 0
LayerCount: 2
Fore
SplineSet
945 1053 m 1,0,-1
 1103 1053 l 1,1,-1
 1103 0 l 1,2,-1
 97 0 l 1,3,-1
 97 1053 l 1,4,-1
 255 1053 l 1,5,-1
 255 140 l 1,6,-1
 522 140 l 1,7,-1
 522 1053 l 1,8,-1
 678 1053 l 1,9,-1
 678 140 l 1,10,-1
 945 140 l 1,11,-1
 945 1053 l 1,0,-1
EndSplineSet
Validated: 1
EndChar

StartChar: uni0449
Encoding: 1097 1097 466
Width: 1200
GlyphClass: 2
Flags: W
AnchorPoint: "Anchor-3" 600 1053 basechar 0
AnchorPoint: "Anchor-2" 600 0 basechar 0
LayerCount: 2
Fore
SplineSet
1103 1053 m 1,0,-1
 1103 137 l 1,1,-1
 1246 137 l 1,2,-1
 1246 -294 l 1,3,-1
 1107 -294 l 1,4,-1
 1078 0 l 1,5,-1
 97 0 l 1,6,-1
 97 1053 l 1,7,-1
 255 1053 l 1,8,-1
 255 140 l 1,9,-1
 522 140 l 1,10,-1
 522 1053 l 1,11,-1
 678 1053 l 1,12,-1
 678 140 l 1,13,-1
 945 140 l 1,14,-1
 945 1053 l 1,15,-1
 1103 1053 l 1,0,-1
EndSplineSet
Validated: 1
EndChar

StartChar: uni045F
Encoding: 1119 1119 467
Width: 1200
GlyphClass: 2
Flags: W
AnchorPoint: "Anchor-2" 600 0 basechar 0
LayerCount: 2
Fore
SplineSet
831 1053 m 1,0,-1
 999 1053 l 1,1,-1
 999 0 l 1,2,-1
 683 0 l 1,3,-1
 666 -294 l 1,4,-1
 534 -294 l 1,5,-1
 517 0 l 1,6,-1
 201 0 l 1,7,-1
 201 1053 l 1,8,-1
 369 1053 l 1,9,-1
 369 140 l 1,10,-1
 831 140 l 1,11,-1
 831 1053 l 1,0,-1
EndSplineSet
Validated: 1048577
EndChar

StartChar: uni044C
Encoding: 1100 1100 468
Width: 1200
GlyphClass: 2
Flags: W
AnchorPoint: "Anchor-3" 600 1053 basechar 0
AnchorPoint: "Anchor-2" 600 0 basechar 0
LayerCount: 2
Fore
SplineSet
420 1053 m 1,0,-1
 420 721 l 1,1,-1
 627 721 l 2,2,3
 862 721 862 721 964.5 628 c 128,-1,4
 1067 535 1067 535 1067 363 c 0,5,6
 1067 243 1067 243 1011 161 c 128,-1,7
 955 79 955 79 863 39.5 c 128,-1,8
 771 0 771 0 664 0 c 2,9,-1
 252 0 l 1,10,-1
 252 1053 l 1,11,-1
 420 1053 l 1,0,-1
420 589 m 1,12,-1
 420 135 l 1,13,-1
 645 135 l 2,14,15
 760 135 760 135 823.5 187 c 128,-1,16
 887 239 887 239 887 362 c 0,17,18
 887 441 887 441 863 490 c 128,-1,19
 839 539 839 539 781 564 c 128,-1,20
 723 589 723 589 624 589 c 2,21,-1
 420 589 l 1,12,-1
EndSplineSet
Validated: 1
EndChar

StartChar: uni044A
Encoding: 1098 1098 469
Width: 1200
Flags: W
LayerCount: 2
Fore
SplineSet
485 1053 m 1,0,-1
 485 722 l 1,1,-1
 609 722 l 2,2,3
 1091 722 1091 722 1091 367 c 0,4,5
 1091 0 1091 0 609 0 c 2,6,-1
 317 0 l 1,7,-1
 317 923 l 1,8,-1
 66 923 l 1,9,-1
 66 1053 l 1,10,-1
 485 1053 l 1,0,-1
485 590 m 1,11,-1
 485 135 l 1,12,-1
 628 135 l 2,13,14
 762 135 762 135 836 185 c 128,-1,15
 910 235 910 235 910 367 c 0,16,17
 910 486 910 486 838.5 538 c 128,-1,18
 767 590 767 590 629 590 c 2,19,-1
 485 590 l 1,11,-1
EndSplineSet
Validated: 1
EndChar

StartChar: uni044B
Encoding: 1099 1099 470
Width: 1200
GlyphClass: 2
Flags: W
AnchorPoint: "Anchor-3" 600 1053 basechar 0
AnchorPoint: "Anchor-2" 600 0 basechar 0
LayerCount: 2
Fore
SplineSet
284 1053 m 1,0,-1
 284 711 l 1,1,-1
 355 711 l 2,2,3
 571 711 571 711 687 627 c 128,-1,4
 803 543 803 543 803 365 c 0,5,6
 803 179 803 179 684.5 89.5 c 128,-1,7
 566 0 566 0 356 0 c 2,8,-1
 124 0 l 1,9,-1
 124 1053 l 1,10,-1
 284 1053 l 1,0,-1
914 1053 m 1,11,-1
 1076 1053 l 1,12,-1
 1076 0 l 1,13,-1
 914 0 l 1,14,-1
 914 1053 l 1,11,-1
284 586 m 1,15,-1
 284 131 l 1,16,-1
 361 131 l 2,17,18
 450 131 450 131 508.5 152 c 128,-1,19
 567 173 567 173 598 224.5 c 128,-1,20
 629 276 629 276 629 365 c 0,21,22
 629 483 629 483 565.5 534.5 c 128,-1,23
 502 586 502 586 363 586 c 2,24,-1
 284 586 l 1,15,-1
EndSplineSet
Validated: 1
EndChar

StartChar: uni0459
Encoding: 1113 1113 471
Width: 1200
GlyphClass: 2
Flags: W
AnchorPoint: "Anchor-3" 600 1053 basechar 0
AnchorPoint: "Anchor-2" 600 0 basechar 0
LayerCount: 2
Fore
SplineSet
726 1053 m 1,0,-1
 726 712 l 1,1,-1
 753 712 l 2,2,3
 961 712 961 712 1072.5 627 c 128,-1,4
 1184 542 1184 542 1184 366 c 0,5,6
 1184 184 1184 184 1070.5 92 c 128,-1,7
 957 0 957 0 755 0 c 2,8,-1
 564 0 l 1,9,-1
 564 919 l 1,10,-1
 352 919 l 1,11,-1
 339 642 l 2,12,13
 329 417 329 417 299.5 292.5 c 128,-1,14
 270 168 270 168 217.5 102 c 128,-1,15
 165 36 165 36 69 -22 c 1,16,-1
 7 91 l 1,17,18
 55 131 55 131 85 177.5 c 128,-1,19
 115 224 115 224 139 331 c 128,-1,20
 163 438 163 438 173 631 c 2,21,-1
 196 1053 l 1,22,-1
 726 1053 l 1,0,-1
726 587 m 1,23,-1
 726 131 l 1,24,-1
 766 131 l 2,25,26
 848 131 848 131 901 152 c 128,-1,27
 954 173 954 173 981.5 224.5 c 128,-1,28
 1009 276 1009 276 1009 365 c 0,29,30
 1009 484 1009 484 951 535.5 c 128,-1,31
 893 587 893 587 762 587 c 2,32,-1
 726 587 l 1,23,-1
EndSplineSet
Validated: 1
EndChar

StartChar: uni045A
Encoding: 1114 1114 472
Width: 1200
GlyphClass: 2
Flags: W
AnchorPoint: "Anchor-3" 600 1053 basechar 0
AnchorPoint: "Anchor-2" 600 0 basechar 0
LayerCount: 2
Fore
SplineSet
732 1053 m 1,0,-1
 732 657 l 1,1,-1
 759 657 l 2,2,3
 968 657 968 657 1079 579.5 c 128,-1,4
 1190 502 1190 502 1190 331 c 0,5,6
 1190 156 1190 156 1078.5 78 c 128,-1,7
 967 0 967 0 765 0 c 2,8,-1
 571 0 l 1,9,-1
 571 533 l 1,10,-1
 311 533 l 1,11,-1
 311 0 l 1,12,-1
 145 0 l 1,13,-1
 145 1053 l 1,14,-1
 311 1053 l 1,15,-1
 311 657 l 1,16,-1
 571 657 l 1,17,-1
 571 1053 l 1,18,-1
 732 1053 l 1,0,-1
732 531 m 1,19,-1
 732 131 l 1,20,-1
 769 131 l 2,21,22
 854 131 854 131 905.5 145 c 128,-1,23
 957 159 957 159 985.5 202 c 128,-1,24
 1014 245 1014 245 1014 330 c 0,25,26
 1014 407 1014 407 988 451 c 128,-1,27
 962 495 962 495 908.5 513 c 128,-1,28
 855 531 855 531 767 531 c 2,29,-1
 732 531 l 1,19,-1
EndSplineSet
Validated: 1
EndChar

